M48
;GenerationSoftware,Autodesk,EAGLE,9.7.0*%
;CreationDate,2024-02-22T00:57:55Z*%
FMAT,2
ICI,OFF
METRIC,TZ,000.000
T5C0.350
T4C0.800
T3C0.813
T2C1.000
T1C1.016
%
G90
M71
T1
X72949Y9169
X79451Y9169
X12624Y21946
X86436Y17424
X12624Y17424
X19126Y17424
X34451Y31869
X40953Y31869
X34451Y27347
X52629Y26949
X40953Y27347
X52629Y31471
X59131Y31471
X59131Y26949
X32766Y14961
X39268Y14961
X32766Y10439
X39268Y10439
X53899Y14961
X60401Y14961
X53899Y10439
X60401Y10439
X72314Y30836
X78816Y30836
X72314Y26314
X78816Y26314
X65329Y21946
X71831Y21946
X65329Y17424
X71831Y17424
X19126Y21946
X79934Y21946
X86436Y21946
X79934Y17424
X72949Y13691
X79451Y13691
T2
X66040Y48895
X45720Y74295
X43180Y74295
X43180Y48895
X78740Y48895
X76200Y48895
X73660Y48895
X71120Y48895
X68580Y48895
X63500Y48895
X60960Y48895
X58420Y48895
X55880Y48895
X53340Y48895
X50800Y48895
X48260Y48895
X45720Y48895
X50800Y74295
X78740Y74295
X76200Y74295
X73660Y74295
X71120Y74295
X68580Y74295
X66040Y74295
X63500Y74295
X60960Y74295
X58420Y74295
X55880Y74295
X53340Y74295
X48260Y74295
T3
X6350Y42164
X6350Y34036
X6350Y36068
X6350Y38100
X6350Y40132
T4
X47990Y81915
X49990Y81915
X45990Y81915
X43990Y81915
T5
X46863Y53721
X44577Y61493
X41834Y62408
X54635Y77267
M30