G04 EAGLE Gerber RS-274X export*
G75*
%MOMM*%
%FSLAX34Y34*%
%LPD*%
%INBottom Copper*%
%IPPOS*%
%AMOC8*
5,1,8,0,0,1.08239X$1,22.5*%
G01*
G04 Define Apertures*
%ADD10C,1.930400*%
%ADD11R,1.308000X1.308000*%
%ADD12C,1.308000*%
%ADD13C,1.524000*%
%ADD14C,1.320800*%
%ADD15C,0.609600*%
%ADD16C,0.756400*%
G36*
X889481Y10401D02*
X888292Y10160D01*
X13208Y10160D01*
X12109Y10365D01*
X11087Y11019D01*
X10401Y12019D01*
X10160Y13208D01*
X10160Y847092D01*
X10365Y848191D01*
X11019Y849213D01*
X12019Y849899D01*
X13208Y850140D01*
X418108Y850140D01*
X419162Y849952D01*
X420194Y849315D01*
X420896Y848325D01*
X421156Y847141D01*
X420934Y845948D01*
X420264Y844937D01*
X383452Y808125D01*
X382524Y805885D01*
X382524Y339401D01*
X383452Y337161D01*
X392311Y328302D01*
X392953Y327358D01*
X393204Y326171D01*
X392972Y324980D01*
X391244Y320808D01*
X391244Y316564D01*
X392868Y312643D01*
X395869Y309642D01*
X399790Y308018D01*
X419274Y308018D01*
X423195Y309642D01*
X426196Y312643D01*
X427147Y314938D01*
X427740Y315857D01*
X428729Y316559D01*
X429914Y316819D01*
X431107Y316597D01*
X432118Y315927D01*
X530221Y217824D01*
X530873Y216857D01*
X531114Y215668D01*
X531114Y163084D01*
X530900Y161963D01*
X530238Y160946D01*
X529232Y160268D01*
X525325Y158650D01*
X522324Y155649D01*
X520700Y151728D01*
X520700Y147484D01*
X522324Y143563D01*
X525325Y140562D01*
X529246Y138938D01*
X548730Y138938D01*
X552651Y140562D01*
X555652Y143563D01*
X557276Y147484D01*
X557276Y151728D01*
X555652Y155649D01*
X552651Y158650D01*
X548730Y160274D01*
X546354Y160274D01*
X545255Y160479D01*
X544233Y161133D01*
X543547Y162133D01*
X543306Y163322D01*
X543306Y220669D01*
X542378Y222909D01*
X510165Y255122D01*
X509563Y255977D01*
X509275Y257156D01*
X509469Y258353D01*
X510114Y259380D01*
X511109Y260074D01*
X512296Y260325D01*
X513487Y260093D01*
X516546Y258826D01*
X536030Y258826D01*
X539951Y260450D01*
X542952Y263451D01*
X544576Y267372D01*
X544576Y271616D01*
X542952Y275537D01*
X539951Y278538D01*
X536030Y280162D01*
X516546Y280162D01*
X512625Y278538D01*
X509624Y275537D01*
X508000Y271616D01*
X508000Y267372D01*
X509267Y264313D01*
X509496Y263292D01*
X509311Y262093D01*
X508674Y261061D01*
X507685Y260359D01*
X506500Y260099D01*
X505307Y260321D01*
X504296Y260991D01*
X404753Y360534D01*
X404101Y361501D01*
X403860Y362690D01*
X403860Y423377D01*
X404039Y424408D01*
X404669Y425445D01*
X405652Y426155D01*
X406835Y426424D01*
X408029Y426211D01*
X409046Y425550D01*
X409724Y424544D01*
X410884Y421743D01*
X508844Y323783D01*
X509486Y322839D01*
X509737Y321652D01*
X509505Y320461D01*
X508000Y316828D01*
X508000Y312584D01*
X509624Y308663D01*
X512625Y305662D01*
X516546Y304038D01*
X536030Y304038D01*
X539951Y305662D01*
X542952Y308663D01*
X544576Y312584D01*
X544576Y317268D01*
X544764Y318322D01*
X545401Y319354D01*
X546391Y320056D01*
X547575Y320316D01*
X548768Y320094D01*
X549779Y319424D01*
X583838Y285365D01*
X584450Y284488D01*
X584729Y283307D01*
X584526Y282111D01*
X583872Y281089D01*
X582871Y280403D01*
X581682Y280162D01*
X581570Y280162D01*
X577649Y278538D01*
X574648Y275537D01*
X573024Y271616D01*
X573024Y267372D01*
X574648Y263451D01*
X577649Y260450D01*
X581570Y258826D01*
X582930Y258826D01*
X584029Y258621D01*
X585051Y257967D01*
X585737Y256967D01*
X585978Y255778D01*
X585978Y234245D01*
X586906Y232005D01*
X635770Y183141D01*
X636412Y182197D01*
X636662Y181010D01*
X636431Y179820D01*
X635000Y176366D01*
X635000Y172122D01*
X636624Y168201D01*
X639625Y165200D01*
X643546Y163576D01*
X663030Y163576D01*
X666951Y165200D01*
X669952Y168201D01*
X671576Y172122D01*
X671576Y176366D01*
X669952Y180287D01*
X666951Y183288D01*
X663030Y184912D01*
X652504Y184912D01*
X651360Y185135D01*
X650348Y185805D01*
X599063Y237090D01*
X598411Y238057D01*
X598170Y239246D01*
X598170Y255778D01*
X598375Y256877D01*
X599029Y257899D01*
X600029Y258585D01*
X600896Y258761D01*
X604975Y260450D01*
X607976Y263451D01*
X608927Y265746D01*
X609520Y266665D01*
X610509Y267367D01*
X611694Y267627D01*
X612887Y267405D01*
X613898Y266735D01*
X644521Y236112D01*
X645173Y235145D01*
X645414Y233956D01*
X645414Y232934D01*
X645200Y231813D01*
X644538Y230796D01*
X643532Y230118D01*
X639625Y228500D01*
X636624Y225499D01*
X635000Y221578D01*
X635000Y217334D01*
X636624Y213413D01*
X639625Y210412D01*
X643546Y208788D01*
X663030Y208788D01*
X666951Y210412D01*
X669952Y213413D01*
X671576Y217334D01*
X671576Y221578D01*
X669952Y225499D01*
X666951Y228500D01*
X663030Y230124D01*
X660654Y230124D01*
X659555Y230329D01*
X658533Y230983D01*
X657847Y231983D01*
X657606Y233172D01*
X657606Y238957D01*
X656678Y241197D01*
X609243Y288632D01*
X607003Y289560D01*
X598148Y289560D01*
X597004Y289783D01*
X595992Y290453D01*
X587610Y298835D01*
X586998Y299712D01*
X586719Y300893D01*
X586923Y302089D01*
X587576Y303111D01*
X588577Y303797D01*
X589766Y304038D01*
X601054Y304038D01*
X604975Y305662D01*
X607976Y308663D01*
X609075Y311317D01*
X609669Y312237D01*
X610658Y312938D01*
X611843Y313199D01*
X613035Y312976D01*
X614047Y312306D01*
X687955Y238398D01*
X688607Y237431D01*
X688848Y236242D01*
X688848Y167951D01*
X689776Y165711D01*
X711300Y144187D01*
X711942Y143243D01*
X712193Y142056D01*
X711961Y140865D01*
X711200Y139028D01*
X711200Y134784D01*
X712824Y130863D01*
X715825Y127862D01*
X719746Y126238D01*
X739230Y126238D01*
X743151Y127862D01*
X746152Y130863D01*
X747776Y134784D01*
X747776Y139028D01*
X746152Y142949D01*
X743151Y145950D01*
X739230Y147574D01*
X726418Y147574D01*
X725274Y147797D01*
X724262Y148467D01*
X714356Y158373D01*
X713744Y159250D01*
X713465Y160431D01*
X713669Y161627D01*
X714322Y162649D01*
X715323Y163335D01*
X716512Y163576D01*
X728054Y163576D01*
X731975Y165200D01*
X734976Y168201D01*
X736600Y172122D01*
X736600Y176366D01*
X734976Y180287D01*
X731975Y183288D01*
X728054Y184912D01*
X708570Y184912D01*
X705254Y183539D01*
X704185Y183308D01*
X702989Y183512D01*
X701967Y184165D01*
X701281Y185166D01*
X701040Y186355D01*
X701040Y207345D01*
X701236Y208421D01*
X701882Y209449D01*
X702877Y210142D01*
X704064Y210393D01*
X705254Y210161D01*
X708570Y208788D01*
X728054Y208788D01*
X731975Y210412D01*
X734976Y213413D01*
X736600Y217334D01*
X736600Y221578D01*
X734976Y225499D01*
X731975Y228500D01*
X728054Y230124D01*
X708570Y230124D01*
X705254Y228751D01*
X704185Y228520D01*
X702989Y228724D01*
X701967Y229377D01*
X701281Y230378D01*
X701040Y231567D01*
X701040Y241243D01*
X700112Y243483D01*
X567059Y376536D01*
X566407Y377503D01*
X566166Y378692D01*
X566166Y477093D01*
X566389Y478237D01*
X567059Y479248D01*
X569345Y481534D01*
X570267Y482166D01*
X571451Y482427D01*
X572644Y482204D01*
X573655Y481534D01*
X577006Y478183D01*
X581674Y476250D01*
X586726Y476250D01*
X591394Y478183D01*
X594745Y481534D01*
X595667Y482166D01*
X596851Y482427D01*
X598044Y482204D01*
X599055Y481534D01*
X602421Y478168D01*
X603339Y477566D01*
X604025Y476565D01*
X604266Y475376D01*
X604266Y449129D01*
X605194Y446889D01*
X727856Y324227D01*
X728468Y323350D01*
X728747Y322169D01*
X728544Y320973D01*
X727890Y319951D01*
X726889Y319265D01*
X725700Y319024D01*
X713396Y319024D01*
X709475Y317400D01*
X706474Y314399D01*
X704850Y310478D01*
X704850Y306234D01*
X706474Y302313D01*
X709475Y299312D01*
X713396Y297688D01*
X732880Y297688D01*
X736801Y299312D01*
X739802Y302313D01*
X740976Y305147D01*
X741569Y306066D01*
X742558Y306768D01*
X743743Y307028D01*
X744936Y306806D01*
X745947Y306136D01*
X747391Y304692D01*
X748043Y303725D01*
X748284Y302536D01*
X748284Y261677D01*
X749212Y259437D01*
X781373Y227276D01*
X782015Y226332D01*
X782266Y225145D01*
X782034Y223954D01*
X781050Y221578D01*
X781050Y217334D01*
X782674Y213413D01*
X785675Y210412D01*
X789596Y208788D01*
X809080Y208788D01*
X813001Y210412D01*
X816002Y213413D01*
X817626Y217334D01*
X817626Y221578D01*
X816002Y225499D01*
X813001Y228500D01*
X809080Y230124D01*
X797030Y230124D01*
X795886Y230347D01*
X794874Y231017D01*
X778618Y247273D01*
X778006Y248150D01*
X777727Y249331D01*
X777931Y250527D01*
X778584Y251549D01*
X779585Y252235D01*
X780774Y252476D01*
X797904Y252476D01*
X801825Y254100D01*
X804826Y257101D01*
X806450Y261022D01*
X806450Y265266D01*
X804826Y269187D01*
X801825Y272188D01*
X797904Y273812D01*
X787632Y273812D01*
X786488Y274035D01*
X785476Y274705D01*
X770513Y289668D01*
X769861Y290635D01*
X769620Y291824D01*
X769620Y296833D01*
X769808Y297886D01*
X770445Y298918D01*
X771435Y299620D01*
X772619Y299880D01*
X773812Y299658D01*
X774058Y299495D01*
X778420Y297688D01*
X797904Y297688D01*
X801825Y299312D01*
X804826Y302313D01*
X806450Y306234D01*
X806450Y310478D01*
X804826Y314399D01*
X801825Y317400D01*
X797904Y319024D01*
X778420Y319024D01*
X774153Y317256D01*
X773946Y317112D01*
X772765Y316833D01*
X771569Y317036D01*
X770547Y317690D01*
X769861Y318691D01*
X769620Y319879D01*
X769620Y464058D01*
X769825Y465157D01*
X770479Y466179D01*
X771479Y466865D01*
X772668Y467106D01*
X796741Y467106D01*
X798981Y468034D01*
X809840Y478893D01*
X810768Y481133D01*
X810768Y497275D01*
X809840Y499515D01*
X770513Y538842D01*
X769861Y539809D01*
X769620Y540998D01*
X769620Y731347D01*
X769843Y732491D01*
X770513Y733502D01*
X772545Y735534D01*
X773467Y736166D01*
X774651Y736427D01*
X775844Y736204D01*
X776855Y735534D01*
X780206Y732183D01*
X784874Y730250D01*
X789926Y730250D01*
X794594Y732183D01*
X798167Y735756D01*
X800100Y740424D01*
X800100Y745476D01*
X798167Y750144D01*
X794594Y753717D01*
X789926Y755650D01*
X784874Y755650D01*
X780206Y753717D01*
X776855Y750366D01*
X775933Y749734D01*
X774749Y749473D01*
X773556Y749696D01*
X772545Y750366D01*
X769194Y753717D01*
X764526Y755650D01*
X759474Y755650D01*
X754806Y753717D01*
X751455Y750366D01*
X750533Y749734D01*
X749349Y749473D01*
X748156Y749696D01*
X747145Y750366D01*
X743794Y753717D01*
X739126Y755650D01*
X734074Y755650D01*
X729406Y753717D01*
X726055Y750366D01*
X725133Y749734D01*
X723949Y749473D01*
X722756Y749696D01*
X721745Y750366D01*
X718394Y753717D01*
X713726Y755650D01*
X708674Y755650D01*
X704006Y753717D01*
X700655Y750366D01*
X699733Y749734D01*
X698549Y749473D01*
X697356Y749696D01*
X696345Y750366D01*
X692994Y753717D01*
X688326Y755650D01*
X682984Y755650D01*
X681840Y755873D01*
X680828Y756543D01*
X592434Y844937D01*
X591822Y845814D01*
X591543Y846995D01*
X591747Y848191D01*
X592400Y849213D01*
X593401Y849899D01*
X594590Y850140D01*
X888292Y850140D01*
X889391Y849935D01*
X890413Y849281D01*
X891099Y848281D01*
X891340Y847092D01*
X891340Y13208D01*
X891135Y12109D01*
X890481Y11087D01*
X889481Y10401D01*
G37*
%LPC*%
G36*
X116496Y163576D02*
X135980Y163576D01*
X139901Y165200D01*
X142902Y168201D01*
X144526Y172122D01*
X144526Y176366D01*
X142902Y180287D01*
X139901Y183288D01*
X135980Y184912D01*
X126724Y184912D01*
X125580Y185135D01*
X124568Y185805D01*
X109859Y200514D01*
X109207Y201481D01*
X108966Y202670D01*
X108966Y207345D01*
X109162Y208421D01*
X109808Y209449D01*
X110803Y210142D01*
X111990Y210393D01*
X113180Y210161D01*
X116496Y208788D01*
X135980Y208788D01*
X139901Y210412D01*
X142902Y213413D01*
X144526Y217334D01*
X144526Y221578D01*
X142902Y225499D01*
X139901Y228500D01*
X135980Y230124D01*
X116496Y230124D01*
X113180Y228751D01*
X112111Y228520D01*
X110915Y228724D01*
X109893Y229377D01*
X109207Y230378D01*
X108966Y231567D01*
X108966Y389833D01*
X108038Y392073D01*
X80649Y419462D01*
X79997Y420429D01*
X79756Y421618D01*
X79756Y423560D01*
X78287Y427107D01*
X75571Y429823D01*
X72024Y431292D01*
X54976Y431292D01*
X51429Y429823D01*
X48713Y427107D01*
X47244Y423560D01*
X47244Y419720D01*
X48713Y416173D01*
X51251Y413635D01*
X51883Y412713D01*
X52143Y411529D01*
X51921Y410336D01*
X51251Y409325D01*
X48713Y406787D01*
X47244Y403240D01*
X47244Y399400D01*
X48713Y395853D01*
X51251Y393315D01*
X51883Y392393D01*
X52143Y391209D01*
X51921Y390016D01*
X51251Y389005D01*
X48713Y386467D01*
X47244Y382920D01*
X47244Y379080D01*
X48713Y375533D01*
X51251Y372995D01*
X51883Y372073D01*
X52143Y370889D01*
X51921Y369696D01*
X51251Y368685D01*
X48713Y366147D01*
X47244Y362600D01*
X47244Y358760D01*
X48713Y355213D01*
X51251Y352675D01*
X51883Y351753D01*
X52143Y350569D01*
X51921Y349376D01*
X51251Y348365D01*
X48713Y345827D01*
X47244Y342280D01*
X47244Y338440D01*
X48713Y334893D01*
X51429Y332177D01*
X54976Y330708D01*
X72024Y330708D01*
X75571Y332177D01*
X78287Y334893D01*
X79756Y338440D01*
X79756Y342280D01*
X78287Y345827D01*
X75749Y348365D01*
X75117Y349287D01*
X74857Y350471D01*
X75079Y351664D01*
X75749Y352675D01*
X78287Y355213D01*
X79756Y358760D01*
X79756Y362600D01*
X78287Y366147D01*
X75749Y368685D01*
X75117Y369607D01*
X74857Y370791D01*
X75079Y371984D01*
X75749Y372995D01*
X78287Y375533D01*
X79756Y379080D01*
X79756Y382920D01*
X78287Y386467D01*
X75749Y389005D01*
X75117Y389927D01*
X74857Y391111D01*
X75079Y392304D01*
X75749Y393315D01*
X78287Y395853D01*
X79098Y397811D01*
X79691Y398730D01*
X80680Y399432D01*
X81865Y399692D01*
X83058Y399470D01*
X84069Y398800D01*
X95881Y386988D01*
X96533Y386021D01*
X96774Y384832D01*
X96774Y197669D01*
X97702Y195429D01*
X109092Y184039D01*
X109734Y183095D01*
X109984Y181908D01*
X109752Y180718D01*
X107950Y176366D01*
X107950Y172122D01*
X109574Y168201D01*
X112575Y165200D01*
X116496Y163576D01*
G37*
G36*
X334766Y308018D02*
X354250Y308018D01*
X358171Y309642D01*
X361172Y312643D01*
X362796Y316564D01*
X362796Y320808D01*
X361172Y324729D01*
X358171Y327730D01*
X354250Y329354D01*
X334766Y329354D01*
X330845Y327730D01*
X327844Y324729D01*
X326220Y320808D01*
X326220Y316564D01*
X327844Y312643D01*
X330845Y309642D01*
X334766Y308018D01*
G37*
G36*
X399790Y262806D02*
X419274Y262806D01*
X423195Y264430D01*
X426196Y267431D01*
X427820Y271352D01*
X427820Y275596D01*
X426196Y279517D01*
X423195Y282518D01*
X419274Y284142D01*
X399790Y284142D01*
X395869Y282518D01*
X392868Y279517D01*
X391244Y275596D01*
X391244Y271352D01*
X392868Y267431D01*
X395869Y264430D01*
X399790Y262806D01*
G37*
G36*
X334766Y262806D02*
X354250Y262806D01*
X358171Y264430D01*
X361172Y267431D01*
X362796Y271352D01*
X362796Y275596D01*
X361172Y279517D01*
X358171Y282518D01*
X354250Y284142D01*
X334766Y284142D01*
X330845Y282518D01*
X327844Y279517D01*
X326220Y275596D01*
X326220Y271352D01*
X327844Y267431D01*
X330845Y264430D01*
X334766Y262806D01*
G37*
G36*
X713396Y252476D02*
X732880Y252476D01*
X736801Y254100D01*
X739802Y257101D01*
X741426Y261022D01*
X741426Y265266D01*
X739802Y269187D01*
X736801Y272188D01*
X732880Y273812D01*
X713396Y273812D01*
X709475Y272188D01*
X706474Y269187D01*
X704850Y265266D01*
X704850Y261022D01*
X706474Y257101D01*
X709475Y254100D01*
X713396Y252476D01*
G37*
G36*
X854620Y208788D02*
X874104Y208788D01*
X878025Y210412D01*
X881026Y213413D01*
X882650Y217334D01*
X882650Y221578D01*
X881026Y225499D01*
X878025Y228500D01*
X874104Y230124D01*
X854620Y230124D01*
X850699Y228500D01*
X847698Y225499D01*
X846074Y221578D01*
X846074Y217334D01*
X847698Y213413D01*
X850699Y210412D01*
X854620Y208788D01*
G37*
G36*
X181520Y208788D02*
X201004Y208788D01*
X204925Y210412D01*
X207926Y213413D01*
X209550Y217334D01*
X209550Y221578D01*
X207926Y225499D01*
X204925Y228500D01*
X201004Y230124D01*
X181520Y230124D01*
X177599Y228500D01*
X174598Y225499D01*
X172974Y221578D01*
X172974Y217334D01*
X174598Y213413D01*
X177599Y210412D01*
X181520Y208788D01*
G37*
G36*
X854620Y163576D02*
X874104Y163576D01*
X878025Y165200D01*
X881026Y168201D01*
X882650Y172122D01*
X882650Y176366D01*
X881026Y180287D01*
X878025Y183288D01*
X874104Y184912D01*
X854620Y184912D01*
X850699Y183288D01*
X847698Y180287D01*
X846074Y176366D01*
X846074Y172122D01*
X847698Y168201D01*
X850699Y165200D01*
X854620Y163576D01*
G37*
G36*
X789596Y163576D02*
X809080Y163576D01*
X813001Y165200D01*
X816002Y168201D01*
X817626Y172122D01*
X817626Y176366D01*
X816002Y180287D01*
X813001Y183288D01*
X809080Y184912D01*
X789596Y184912D01*
X785675Y183288D01*
X782674Y180287D01*
X781050Y176366D01*
X781050Y172122D01*
X782674Y168201D01*
X785675Y165200D01*
X789596Y163576D01*
G37*
G36*
X317918Y93726D02*
X337402Y93726D01*
X341323Y95350D01*
X344324Y98351D01*
X345948Y102272D01*
X345948Y106516D01*
X344324Y110437D01*
X341323Y113438D01*
X337402Y115062D01*
X326876Y115062D01*
X325732Y115285D01*
X324720Y115955D01*
X261771Y178904D01*
X259531Y179832D01*
X209643Y179832D01*
X208499Y180055D01*
X207488Y180725D01*
X204925Y183288D01*
X201004Y184912D01*
X181520Y184912D01*
X177599Y183288D01*
X174598Y180287D01*
X172974Y176366D01*
X172974Y172122D01*
X174598Y168201D01*
X177599Y165200D01*
X181520Y163576D01*
X201004Y163576D01*
X204925Y165200D01*
X206472Y166747D01*
X207439Y167399D01*
X208627Y167640D01*
X254530Y167640D01*
X255674Y167417D01*
X256686Y166747D01*
X310142Y113291D01*
X310784Y112347D01*
X311034Y111160D01*
X310803Y109970D01*
X309372Y106516D01*
X309372Y102272D01*
X310996Y98351D01*
X313997Y95350D01*
X317918Y93726D01*
G37*
G36*
X594270Y138938D02*
X613754Y138938D01*
X617675Y140562D01*
X620676Y143563D01*
X622300Y147484D01*
X622300Y151728D01*
X620676Y155649D01*
X617675Y158650D01*
X613754Y160274D01*
X594270Y160274D01*
X590349Y158650D01*
X587348Y155649D01*
X585724Y151728D01*
X585724Y147484D01*
X587348Y143563D01*
X590349Y140562D01*
X594270Y138938D01*
G37*
G36*
X382942Y138938D02*
X402426Y138938D01*
X406347Y140562D01*
X409348Y143563D01*
X410972Y147484D01*
X410972Y151728D01*
X409348Y155649D01*
X406347Y158650D01*
X402426Y160274D01*
X382942Y160274D01*
X379021Y158650D01*
X376020Y155649D01*
X374396Y151728D01*
X374396Y147484D01*
X376020Y143563D01*
X379021Y140562D01*
X382942Y138938D01*
G37*
G36*
X317918Y138938D02*
X337402Y138938D01*
X341323Y140562D01*
X344324Y143563D01*
X345948Y147484D01*
X345948Y151728D01*
X344324Y155649D01*
X341323Y158650D01*
X337402Y160274D01*
X317918Y160274D01*
X313997Y158650D01*
X310996Y155649D01*
X309372Y151728D01*
X309372Y147484D01*
X310996Y143563D01*
X313997Y140562D01*
X317918Y138938D01*
G37*
G36*
X784770Y126238D02*
X804254Y126238D01*
X808175Y127862D01*
X811176Y130863D01*
X812800Y134784D01*
X812800Y139028D01*
X811176Y142949D01*
X808175Y145950D01*
X804254Y147574D01*
X784770Y147574D01*
X780849Y145950D01*
X777848Y142949D01*
X776224Y139028D01*
X776224Y134784D01*
X777848Y130863D01*
X780849Y127862D01*
X784770Y126238D01*
G37*
G36*
X594270Y93726D02*
X613754Y93726D01*
X617675Y95350D01*
X620676Y98351D01*
X622300Y102272D01*
X622300Y106516D01*
X620676Y110437D01*
X617675Y113438D01*
X613754Y115062D01*
X594270Y115062D01*
X590349Y113438D01*
X587348Y110437D01*
X585724Y106516D01*
X585724Y102272D01*
X587348Y98351D01*
X590349Y95350D01*
X594270Y93726D01*
G37*
G36*
X529246Y93726D02*
X548730Y93726D01*
X552651Y95350D01*
X555652Y98351D01*
X557276Y102272D01*
X557276Y106516D01*
X555652Y110437D01*
X552651Y113438D01*
X548730Y115062D01*
X529246Y115062D01*
X525325Y113438D01*
X522324Y110437D01*
X520700Y106516D01*
X520700Y102272D01*
X522324Y98351D01*
X525325Y95350D01*
X529246Y93726D01*
G37*
G36*
X382942Y93726D02*
X402426Y93726D01*
X406347Y95350D01*
X409348Y98351D01*
X410972Y102272D01*
X410972Y106516D01*
X409348Y110437D01*
X406347Y113438D01*
X402426Y115062D01*
X382942Y115062D01*
X379021Y113438D01*
X376020Y110437D01*
X374396Y106516D01*
X374396Y102272D01*
X376020Y98351D01*
X379021Y95350D01*
X382942Y93726D01*
G37*
G36*
X784770Y81026D02*
X804254Y81026D01*
X808175Y82650D01*
X811176Y85651D01*
X812800Y89572D01*
X812800Y93816D01*
X811176Y97737D01*
X808175Y100738D01*
X804254Y102362D01*
X784770Y102362D01*
X780849Y100738D01*
X777848Y97737D01*
X776224Y93816D01*
X776224Y89572D01*
X777848Y85651D01*
X780849Y82650D01*
X784770Y81026D01*
G37*
G36*
X719746Y81026D02*
X739230Y81026D01*
X743151Y82650D01*
X746152Y85651D01*
X747776Y89572D01*
X747776Y93816D01*
X746152Y97737D01*
X743151Y100738D01*
X739230Y102362D01*
X719746Y102362D01*
X715825Y100738D01*
X712824Y97737D01*
X711200Y93816D01*
X711200Y89572D01*
X712824Y85651D01*
X715825Y82650D01*
X719746Y81026D01*
G37*
%LPD*%
G36*
X648933Y749734D02*
X647749Y749473D01*
X646556Y749696D01*
X645545Y750366D01*
X642194Y753717D01*
X637526Y755650D01*
X632474Y755650D01*
X627806Y753717D01*
X624455Y750366D01*
X623533Y749734D01*
X622349Y749473D01*
X621156Y749696D01*
X620145Y750366D01*
X616794Y753717D01*
X612126Y755650D01*
X607074Y755650D01*
X602406Y753717D01*
X599055Y750366D01*
X598133Y749734D01*
X596949Y749473D01*
X595756Y749696D01*
X594745Y750366D01*
X591394Y753717D01*
X586726Y755650D01*
X581674Y755650D01*
X577006Y753717D01*
X573655Y750366D01*
X572733Y749734D01*
X571549Y749473D01*
X570356Y749696D01*
X569345Y750366D01*
X565994Y753717D01*
X565762Y753813D01*
X564807Y754439D01*
X564121Y755440D01*
X563880Y756629D01*
X563880Y780739D01*
X562952Y782979D01*
X515982Y829949D01*
X515370Y830826D01*
X515091Y832007D01*
X515295Y833203D01*
X515948Y834225D01*
X516949Y834911D01*
X518138Y835152D01*
X583714Y835152D01*
X584858Y834929D01*
X585870Y834259D01*
X659319Y760810D01*
X659941Y759911D01*
X660211Y758728D01*
X659998Y757534D01*
X659336Y756517D01*
X658330Y755839D01*
X653206Y753717D01*
X649855Y750366D01*
X648933Y749734D01*
G37*
G36*
X408186Y764544D02*
X407005Y764265D01*
X405809Y764469D01*
X404787Y765122D01*
X404101Y766123D01*
X403860Y767312D01*
X403860Y796312D01*
X404083Y797456D01*
X404753Y798468D01*
X425109Y818824D01*
X425986Y819436D01*
X427167Y819715D01*
X428363Y819512D01*
X429385Y818858D01*
X430071Y817857D01*
X430312Y816668D01*
X430312Y812004D01*
X430776Y810883D01*
X431923Y809736D01*
X432575Y808770D01*
X432816Y807581D01*
X432816Y790172D01*
X432593Y789028D01*
X431923Y788016D01*
X409063Y765156D01*
X408186Y764544D01*
G37*
G36*
X547333Y749734D02*
X546149Y749473D01*
X544956Y749696D01*
X543945Y750366D01*
X540594Y753717D01*
X535926Y755650D01*
X530874Y755650D01*
X526206Y753717D01*
X522855Y750366D01*
X521933Y749734D01*
X520749Y749473D01*
X519556Y749696D01*
X518545Y750366D01*
X515194Y753717D01*
X510526Y755650D01*
X505474Y755650D01*
X500806Y753717D01*
X497455Y750366D01*
X496533Y749734D01*
X495349Y749473D01*
X494156Y749696D01*
X493145Y750366D01*
X489794Y753717D01*
X485126Y755650D01*
X480074Y755650D01*
X475406Y753717D01*
X472055Y750366D01*
X471133Y749734D01*
X469949Y749473D01*
X468756Y749696D01*
X467745Y750366D01*
X464394Y753717D01*
X459726Y755650D01*
X454674Y755650D01*
X450006Y753717D01*
X446655Y750366D01*
X445733Y749734D01*
X444549Y749473D01*
X443356Y749696D01*
X442345Y750366D01*
X438994Y753717D01*
X435846Y755021D01*
X434927Y755614D01*
X434225Y756603D01*
X433965Y757788D01*
X434187Y758981D01*
X434857Y759992D01*
X482942Y808077D01*
X483436Y809271D01*
X484080Y810242D01*
X485086Y810920D01*
X485331Y811022D01*
X487745Y813435D01*
X488667Y814067D01*
X489851Y814328D01*
X491044Y814105D01*
X492055Y813435D01*
X494469Y811022D01*
X497993Y809562D01*
X499576Y809562D01*
X500720Y809339D01*
X501732Y808669D01*
X539401Y771000D01*
X540062Y770011D01*
X540564Y768799D01*
X542485Y766878D01*
X544995Y765838D01*
X547933Y765838D01*
X548543Y765969D01*
X549739Y765766D01*
X550761Y765112D01*
X551447Y764112D01*
X551688Y762923D01*
X551688Y755061D01*
X551465Y753917D01*
X550795Y752906D01*
X548255Y750366D01*
X547333Y749734D01*
G37*
G36*
X449334Y791976D02*
X448153Y791697D01*
X446957Y791901D01*
X445935Y792554D01*
X445249Y793555D01*
X445008Y794744D01*
X445008Y806681D01*
X445222Y807803D01*
X445884Y808819D01*
X446890Y809497D01*
X448167Y810026D01*
X449198Y811057D01*
X449507Y811536D01*
X450496Y812238D01*
X451681Y812498D01*
X452873Y812276D01*
X453885Y811606D01*
X454469Y811022D01*
X457993Y809562D01*
X459826Y809562D01*
X460880Y809374D01*
X461912Y808737D01*
X462614Y807747D01*
X462874Y806563D01*
X462652Y805370D01*
X461982Y804359D01*
X450211Y792588D01*
X449334Y791976D01*
G37*
G36*
X775549Y510668D02*
X774362Y510417D01*
X773171Y510649D01*
X771595Y511302D01*
X543284Y511302D01*
X542140Y511525D01*
X541128Y512195D01*
X449688Y603635D01*
X449076Y604512D01*
X448797Y605693D01*
X449001Y606889D01*
X449654Y607911D01*
X450655Y608597D01*
X451844Y608838D01*
X456127Y608838D01*
X458367Y609766D01*
X578238Y729637D01*
X579182Y730278D01*
X580369Y730529D01*
X581559Y730297D01*
X581674Y730250D01*
X586726Y730250D01*
X591394Y732183D01*
X594745Y735534D01*
X595667Y736166D01*
X596851Y736427D01*
X598044Y736204D01*
X599055Y735534D01*
X602406Y732183D01*
X607074Y730250D01*
X612126Y730250D01*
X616794Y732183D01*
X620145Y735534D01*
X621067Y736166D01*
X622251Y736427D01*
X623444Y736204D01*
X624455Y735534D01*
X627806Y732183D01*
X632474Y730250D01*
X637526Y730250D01*
X642194Y732183D01*
X645545Y735534D01*
X646467Y736166D01*
X647651Y736427D01*
X648844Y736204D01*
X649855Y735534D01*
X653206Y732183D01*
X657874Y730250D01*
X662926Y730250D01*
X667594Y732183D01*
X670945Y735534D01*
X671867Y736166D01*
X673051Y736427D01*
X674244Y736204D01*
X675255Y735534D01*
X678606Y732183D01*
X683274Y730250D01*
X688326Y730250D01*
X692994Y732183D01*
X696345Y735534D01*
X697267Y736166D01*
X698451Y736427D01*
X699644Y736204D01*
X700655Y735534D01*
X704006Y732183D01*
X708674Y730250D01*
X713726Y730250D01*
X718394Y732183D01*
X721745Y735534D01*
X722667Y736166D01*
X723851Y736427D01*
X725044Y736204D01*
X726055Y735534D01*
X729406Y732183D01*
X734074Y730250D01*
X739126Y730250D01*
X743794Y732183D01*
X747145Y735534D01*
X748067Y736166D01*
X749251Y736427D01*
X750444Y736204D01*
X751455Y735534D01*
X754806Y732184D01*
X755546Y731877D01*
X756501Y731250D01*
X757187Y730250D01*
X757428Y729061D01*
X757428Y535997D01*
X758356Y533757D01*
X776493Y515620D01*
X777094Y514765D01*
X777383Y513586D01*
X777189Y512389D01*
X776544Y511362D01*
X775549Y510668D01*
G37*
G36*
X438544Y617536D02*
X437359Y617276D01*
X436166Y617498D01*
X435155Y618168D01*
X423041Y630282D01*
X422389Y631249D01*
X422148Y632438D01*
X422148Y728640D01*
X422344Y729716D01*
X422990Y730743D01*
X423985Y731437D01*
X425172Y731688D01*
X426362Y731456D01*
X429274Y730250D01*
X434326Y730250D01*
X438994Y732183D01*
X442345Y735534D01*
X443267Y736166D01*
X444451Y736427D01*
X445644Y736204D01*
X446655Y735534D01*
X450006Y732183D01*
X454674Y730250D01*
X459726Y730250D01*
X464394Y732183D01*
X467745Y735534D01*
X468667Y736166D01*
X469851Y736427D01*
X471044Y736204D01*
X472055Y735534D01*
X475406Y732183D01*
X480074Y730250D01*
X485126Y730250D01*
X489794Y732183D01*
X493145Y735534D01*
X494067Y736166D01*
X495251Y736427D01*
X496444Y736204D01*
X497455Y735534D01*
X500806Y732183D01*
X505474Y730250D01*
X510526Y730250D01*
X515194Y732183D01*
X518545Y735534D01*
X519467Y736166D01*
X520651Y736427D01*
X521844Y736204D01*
X522855Y735534D01*
X526206Y732183D01*
X530874Y730250D01*
X535926Y730250D01*
X540594Y732183D01*
X543945Y735534D01*
X544867Y736166D01*
X546051Y736427D01*
X547244Y736204D01*
X548255Y735534D01*
X551606Y732184D01*
X555832Y730433D01*
X556751Y729840D01*
X557453Y728850D01*
X557713Y727666D01*
X557491Y726473D01*
X556821Y725462D01*
X453282Y621923D01*
X452315Y621271D01*
X451126Y621030D01*
X449507Y621030D01*
X448340Y621262D01*
X447129Y621764D01*
X444411Y621764D01*
X441901Y620724D01*
X439749Y618572D01*
X439533Y618238D01*
X438544Y617536D01*
G37*
G36*
X408186Y495114D02*
X407005Y494834D01*
X405809Y495038D01*
X404787Y495692D01*
X404101Y496692D01*
X403860Y497881D01*
X403860Y602002D01*
X404048Y603056D01*
X404685Y604088D01*
X405675Y604790D01*
X406859Y605050D01*
X408052Y604828D01*
X409063Y604158D01*
X464712Y548509D01*
X465324Y547632D01*
X465603Y546451D01*
X465400Y545255D01*
X464746Y544233D01*
X463745Y543547D01*
X462556Y543306D01*
X455987Y543306D01*
X453747Y542378D01*
X410884Y499515D01*
X409724Y496714D01*
X409164Y495831D01*
X408186Y495114D01*
G37*
G36*
X496533Y495734D02*
X495349Y495473D01*
X494156Y495696D01*
X493145Y496366D01*
X489794Y499717D01*
X485126Y501650D01*
X480074Y501650D01*
X475406Y499717D01*
X472055Y496366D01*
X471133Y495734D01*
X469949Y495473D01*
X468756Y495696D01*
X467745Y496366D01*
X464394Y499717D01*
X459726Y501650D01*
X454674Y501650D01*
X450006Y499717D01*
X446655Y496366D01*
X445733Y495734D01*
X444549Y495473D01*
X443356Y495696D01*
X442345Y496366D01*
X438994Y499717D01*
X435666Y501095D01*
X434747Y501688D01*
X434045Y502678D01*
X433785Y503862D01*
X434007Y505055D01*
X434677Y506066D01*
X458832Y530221D01*
X459799Y530873D01*
X460988Y531114D01*
X464893Y531114D01*
X466060Y530882D01*
X467271Y530380D01*
X469989Y530380D01*
X472499Y531420D01*
X474651Y533572D01*
X474867Y533906D01*
X475856Y534608D01*
X477041Y534868D01*
X478234Y534646D01*
X479245Y533976D01*
X506560Y506661D01*
X507182Y505762D01*
X507451Y504579D01*
X507239Y503385D01*
X506577Y502368D01*
X505571Y501690D01*
X500806Y499717D01*
X497455Y496366D01*
X496533Y495734D01*
G37*
G36*
X755613Y316468D02*
X754429Y316208D01*
X753236Y316430D01*
X752225Y317100D01*
X617351Y451974D01*
X616699Y452941D01*
X616458Y454130D01*
X616458Y476585D01*
X616681Y477729D01*
X617351Y478740D01*
X620145Y481534D01*
X621067Y482166D01*
X622251Y482427D01*
X623444Y482204D01*
X624455Y481534D01*
X627806Y478183D01*
X632474Y476250D01*
X637526Y476250D01*
X642194Y478183D01*
X645545Y481534D01*
X646467Y482166D01*
X647651Y482427D01*
X648844Y482204D01*
X649855Y481534D01*
X653206Y478183D01*
X657874Y476250D01*
X662926Y476250D01*
X667594Y478183D01*
X670945Y481534D01*
X671867Y482166D01*
X673051Y482427D01*
X674244Y482204D01*
X675255Y481534D01*
X678606Y478183D01*
X683274Y476250D01*
X688326Y476250D01*
X692994Y478183D01*
X696345Y481534D01*
X697267Y482166D01*
X698451Y482427D01*
X699644Y482204D01*
X700655Y481534D01*
X704006Y478183D01*
X708674Y476250D01*
X713726Y476250D01*
X718394Y478183D01*
X721745Y481534D01*
X722667Y482166D01*
X723851Y482427D01*
X725044Y482204D01*
X726055Y481534D01*
X729406Y478183D01*
X734074Y476250D01*
X739126Y476250D01*
X743794Y478183D01*
X747145Y481534D01*
X748067Y482166D01*
X749251Y482427D01*
X750444Y482204D01*
X751455Y481534D01*
X754806Y478184D01*
X755546Y477877D01*
X756501Y477250D01*
X757187Y476250D01*
X757428Y475061D01*
X757428Y319256D01*
X757240Y318202D01*
X756603Y317170D01*
X755613Y316468D01*
G37*
G36*
X572189Y317012D02*
X571004Y316752D01*
X569812Y316975D01*
X568801Y317645D01*
X439043Y447402D01*
X438391Y448369D01*
X438150Y449558D01*
X438150Y476077D01*
X438373Y477221D01*
X439043Y478232D01*
X442345Y481534D01*
X443267Y482166D01*
X444451Y482427D01*
X445644Y482204D01*
X446655Y481534D01*
X450006Y478183D01*
X454674Y476250D01*
X459726Y476250D01*
X464394Y478183D01*
X467745Y481534D01*
X468667Y482166D01*
X469851Y482427D01*
X471044Y482204D01*
X472055Y481534D01*
X475406Y478183D01*
X480074Y476250D01*
X485126Y476250D01*
X489794Y478183D01*
X493145Y481534D01*
X494067Y482166D01*
X495251Y482427D01*
X496444Y482204D01*
X497455Y481534D01*
X500806Y478183D01*
X505474Y476250D01*
X510526Y476250D01*
X515194Y478183D01*
X518545Y481534D01*
X519467Y482166D01*
X520651Y482427D01*
X521844Y482204D01*
X522855Y481534D01*
X526206Y478183D01*
X530874Y476250D01*
X535926Y476250D01*
X540594Y478183D01*
X543945Y481534D01*
X544867Y482166D01*
X546051Y482427D01*
X547244Y482204D01*
X548255Y481534D01*
X551606Y478183D01*
X552092Y477982D01*
X553047Y477355D01*
X553733Y476355D01*
X553974Y475166D01*
X553974Y373691D01*
X554902Y371451D01*
X595776Y330577D01*
X596388Y329700D01*
X596667Y328519D01*
X596464Y327323D01*
X595810Y326301D01*
X594809Y325615D01*
X593620Y325374D01*
X581570Y325374D01*
X577649Y323750D01*
X574648Y320749D01*
X573772Y318633D01*
X573179Y317714D01*
X572189Y317012D01*
G37*
G36*
X537659Y325615D02*
X536470Y325374D01*
X525758Y325374D01*
X524614Y325597D01*
X523602Y326267D01*
X423041Y426828D01*
X422389Y427795D01*
X422148Y428984D01*
X422148Y439696D01*
X422336Y440750D01*
X422973Y441782D01*
X423963Y442484D01*
X425147Y442744D01*
X426340Y442522D01*
X427351Y441852D01*
X538626Y330577D01*
X539238Y329700D01*
X539517Y328519D01*
X539314Y327323D01*
X538660Y326301D01*
X537659Y325615D01*
G37*
G36*
X412521Y329595D02*
X411332Y329354D01*
X409764Y329354D01*
X408620Y329577D01*
X407608Y330247D01*
X395609Y342246D01*
X394957Y343213D01*
X394716Y344402D01*
X394716Y345970D01*
X394904Y347024D01*
X395541Y348056D01*
X396531Y348758D01*
X397715Y349018D01*
X398908Y348796D01*
X399919Y348126D01*
X413488Y334557D01*
X414100Y333680D01*
X414379Y332499D01*
X414176Y331303D01*
X413522Y330281D01*
X412521Y329595D01*
G37*
G36*
X768059Y260588D02*
X766875Y260328D01*
X765682Y260550D01*
X764671Y261220D01*
X761369Y264522D01*
X760717Y265489D01*
X760476Y266678D01*
X760476Y275104D01*
X760664Y276158D01*
X761301Y277190D01*
X762291Y277892D01*
X763475Y278152D01*
X764668Y277930D01*
X765679Y277260D01*
X770718Y272221D01*
X771360Y271277D01*
X771611Y270090D01*
X771379Y268899D01*
X769874Y265266D01*
X769874Y263376D01*
X769686Y262322D01*
X769049Y261290D01*
X768059Y260588D01*
G37*
D10*
X787400Y488950D03*
X762000Y488950D03*
X736600Y488950D03*
X711200Y488950D03*
X685800Y488950D03*
X660400Y488950D03*
X635000Y488950D03*
X609600Y488950D03*
X584200Y488950D03*
X558800Y488950D03*
X533400Y488950D03*
X508000Y488950D03*
X482600Y488950D03*
X457200Y488950D03*
X431800Y488950D03*
X787400Y742950D03*
X762000Y742950D03*
X736600Y742950D03*
X711200Y742950D03*
X685800Y742950D03*
X660400Y742950D03*
X635000Y742950D03*
X609600Y742950D03*
X584200Y742950D03*
X558800Y742950D03*
X533400Y742950D03*
X508000Y742950D03*
X482600Y742950D03*
X457200Y742950D03*
X431800Y742950D03*
D11*
X439900Y819150D03*
D12*
X459900Y819150D03*
X479900Y819150D03*
X499900Y819150D03*
D13*
X133858Y219456D02*
X118618Y219456D01*
X183642Y219456D02*
X198882Y219456D01*
X133858Y174244D02*
X118618Y174244D01*
X183642Y174244D02*
X198882Y174244D01*
X336888Y318686D02*
X352128Y318686D01*
X401912Y318686D02*
X417152Y318686D01*
X352128Y273474D02*
X336888Y273474D01*
X401912Y273474D02*
X417152Y273474D01*
X518668Y314706D02*
X533908Y314706D01*
X583692Y314706D02*
X598932Y314706D01*
X533908Y269494D02*
X518668Y269494D01*
X583692Y269494D02*
X598932Y269494D01*
X335280Y149606D02*
X320040Y149606D01*
X385064Y149606D02*
X400304Y149606D01*
X335280Y104394D02*
X320040Y104394D01*
X385064Y104394D02*
X400304Y104394D01*
X531368Y149606D02*
X546608Y149606D01*
X596392Y149606D02*
X611632Y149606D01*
X546608Y104394D02*
X531368Y104394D01*
X596392Y104394D02*
X611632Y104394D01*
X715518Y308356D02*
X730758Y308356D01*
X780542Y308356D02*
X795782Y308356D01*
X730758Y263144D02*
X715518Y263144D01*
X780542Y263144D02*
X795782Y263144D01*
X660908Y219456D02*
X645668Y219456D01*
X710692Y219456D02*
X725932Y219456D01*
X660908Y174244D02*
X645668Y174244D01*
X710692Y174244D02*
X725932Y174244D01*
X791718Y219456D02*
X806958Y219456D01*
X856742Y219456D02*
X871982Y219456D01*
X806958Y174244D02*
X791718Y174244D01*
X856742Y174244D02*
X871982Y174244D01*
X737108Y136906D02*
X721868Y136906D01*
X786892Y136906D02*
X802132Y136906D01*
X737108Y91694D02*
X721868Y91694D01*
X786892Y91694D02*
X802132Y91694D01*
D14*
X70104Y340360D02*
X56896Y340360D01*
X56896Y360680D02*
X70104Y360680D01*
X70104Y381000D02*
X56896Y381000D01*
X56896Y401320D02*
X70104Y401320D01*
X70104Y421640D02*
X56896Y421640D01*
D15*
X64008Y420624D02*
X70866Y420624D01*
X102870Y388620D01*
X102870Y198882D01*
X125730Y176022D01*
X64008Y420624D02*
X63500Y421640D01*
X125730Y176022D02*
X126238Y174244D01*
X546354Y772668D02*
X500634Y818388D01*
X499900Y819150D01*
X763524Y473202D02*
X763524Y288036D01*
X763524Y473202D02*
X763524Y486918D01*
X763524Y288036D02*
X786384Y265176D01*
X763524Y486918D02*
X762000Y488950D01*
X786384Y265176D02*
X788162Y263144D01*
X592074Y267462D02*
X592074Y235458D01*
X653288Y174244D01*
X592074Y267462D02*
X591312Y269494D01*
X763524Y537210D02*
X763524Y742950D01*
X763524Y537210D02*
X804672Y496062D01*
X804672Y482346D01*
X795528Y473202D01*
X763524Y473202D01*
X763524Y742950D02*
X762000Y742950D01*
X258318Y173736D02*
X192024Y173736D01*
X258318Y173736D02*
X327660Y104394D01*
X192024Y173736D02*
X191262Y174244D01*
D16*
X546354Y772668D03*
D15*
X587502Y841248D02*
X685800Y742950D01*
X587502Y841248D02*
X425196Y841248D01*
X388620Y804672D01*
X388620Y340614D01*
X409194Y320040D01*
X409532Y318686D01*
X457200Y537210D02*
X468630Y537210D01*
X457200Y537210D02*
X416052Y496062D01*
X416052Y425196D01*
X525780Y315468D01*
X526288Y314706D01*
D16*
X468630Y537210D03*
D15*
X454914Y614934D02*
X582930Y742950D01*
X454914Y614934D02*
X445770Y614934D01*
X582930Y742950D02*
X584200Y742950D01*
D16*
X445770Y614934D03*
D15*
X557784Y742950D02*
X557784Y779526D01*
X505206Y832104D01*
X429768Y832104D01*
X397764Y800100D01*
X397764Y358902D01*
X537210Y219456D01*
X537210Y150876D01*
X557784Y742950D02*
X558800Y742950D01*
X537210Y150876D02*
X538988Y149606D01*
X610362Y450342D02*
X610362Y486918D01*
X610362Y450342D02*
X754380Y306324D01*
X754380Y262890D01*
X797814Y219456D01*
X610362Y486918D02*
X609600Y488950D01*
X797814Y219456D02*
X799338Y219456D01*
X560070Y374904D02*
X560070Y486918D01*
X560070Y374904D02*
X694944Y240030D01*
X694944Y169164D01*
X729234Y134874D01*
X560070Y486918D02*
X558800Y488950D01*
X729488Y136906D02*
X729234Y134874D01*
X432054Y445770D02*
X432054Y486918D01*
X432054Y445770D02*
X594360Y283464D01*
X605790Y283464D01*
X651510Y237744D01*
X651510Y219456D01*
X432054Y486918D02*
X431800Y488950D01*
X651510Y219456D02*
X653288Y219456D01*
X477774Y811530D02*
X477774Y818388D01*
X477774Y811530D02*
X416052Y749808D01*
X416052Y628650D01*
X419481Y625221D02*
X539496Y505206D01*
X419481Y625221D02*
X416052Y628650D01*
X539496Y505206D02*
X770382Y505206D01*
X786384Y489204D01*
X479900Y819150D02*
X477774Y818388D01*
X786384Y489204D02*
X787400Y488950D01*
X419481Y625221D02*
X418338Y624078D01*
D16*
X418338Y624078D03*
D15*
X438912Y786384D02*
X438912Y818388D01*
X438912Y786384D02*
X406908Y754380D01*
X406908Y614934D01*
X532638Y489204D01*
X438912Y818388D02*
X439900Y819150D01*
X532638Y489204D02*
X533400Y488950D01*
M02*
