G04 EAGLE Gerber RS-274X export*
G75*
%MOMM*%
%FSLAX34Y34*%
%LPD*%
%INSilkscreen Top*%
%IPPOS*%
%AMOC8*
5,1,8,0,0,1.08239X$1,22.5*%
G01*
G04 Define Apertures*
%ADD10C,0.127000*%
%ADD11C,0.200000*%
%ADD12C,0.152400*%
%ADD13C,0.050800*%
G36*
X601489Y612050D02*
X594469Y612050D01*
X594469Y630819D01*
X600677Y630819D01*
X601264Y630810D01*
X601835Y630782D01*
X602388Y630735D01*
X602925Y630670D01*
X603445Y630586D01*
X603947Y630483D01*
X604433Y630362D01*
X604901Y630221D01*
X605353Y630063D01*
X605787Y629885D01*
X606205Y629689D01*
X606605Y629474D01*
X606988Y629241D01*
X607355Y628988D01*
X607704Y628718D01*
X608037Y628428D01*
X608350Y628121D01*
X608644Y627799D01*
X608917Y627460D01*
X609170Y627106D01*
X609403Y626737D01*
X609615Y626351D01*
X609808Y625950D01*
X609980Y625532D01*
X610132Y625100D01*
X610263Y624651D01*
X610374Y624186D01*
X610466Y623706D01*
X610536Y623210D01*
X610587Y622699D01*
X610617Y622171D01*
X610627Y621628D01*
X610610Y620913D01*
X610557Y620221D01*
X610468Y619552D01*
X610344Y618905D01*
X610185Y618281D01*
X609991Y617680D01*
X609761Y617102D01*
X609495Y616546D01*
X609197Y616017D01*
X608870Y615521D01*
X608513Y615056D01*
X608126Y614623D01*
X607710Y614221D01*
X607265Y613852D01*
X606790Y613515D01*
X606285Y613209D01*
X605755Y612937D01*
X605206Y612702D01*
X604636Y612503D01*
X604047Y612340D01*
X603437Y612213D01*
X602808Y612122D01*
X602159Y612068D01*
X601489Y612050D01*
G37*
%LPC*%
G36*
X601196Y614088D02*
X601705Y614102D01*
X602197Y614145D01*
X602675Y614215D01*
X603136Y614315D01*
X603582Y614442D01*
X604012Y614598D01*
X604427Y614782D01*
X604826Y614994D01*
X605206Y615233D01*
X605563Y615497D01*
X605898Y615786D01*
X606210Y616100D01*
X606499Y616438D01*
X606766Y616802D01*
X607009Y617191D01*
X607231Y617605D01*
X607427Y618041D01*
X607598Y618496D01*
X607742Y618970D01*
X607860Y619463D01*
X607952Y619976D01*
X608017Y620507D01*
X608057Y621058D01*
X608070Y621628D01*
X608062Y622058D01*
X608040Y622474D01*
X608003Y622878D01*
X607950Y623269D01*
X607883Y623647D01*
X607801Y624012D01*
X607704Y624364D01*
X607592Y624703D01*
X607465Y625029D01*
X607323Y625343D01*
X607166Y625643D01*
X606995Y625930D01*
X606808Y626204D01*
X606606Y626466D01*
X606390Y626714D01*
X606158Y626949D01*
X605913Y627171D01*
X605654Y627379D01*
X605381Y627572D01*
X605096Y627751D01*
X604796Y627915D01*
X604484Y628066D01*
X604158Y628202D01*
X603819Y628323D01*
X603466Y628430D01*
X603100Y628524D01*
X602721Y628602D01*
X602328Y628667D01*
X601922Y628717D01*
X601503Y628752D01*
X601070Y628774D01*
X600623Y628781D01*
X597013Y628781D01*
X597013Y614088D01*
X601196Y614088D01*
G37*
%LPD*%
G36*
X539357Y612050D02*
X536813Y612050D01*
X536813Y630819D01*
X544712Y630819D01*
X545479Y630796D01*
X546202Y630727D01*
X546880Y630611D01*
X547513Y630450D01*
X548102Y630242D01*
X548646Y629987D01*
X549146Y629687D01*
X549601Y629341D01*
X550007Y628952D01*
X550359Y628525D01*
X550514Y628298D01*
X550656Y628061D01*
X550785Y627815D01*
X550900Y627559D01*
X551001Y627294D01*
X551089Y627019D01*
X551164Y626734D01*
X551224Y626441D01*
X551272Y626138D01*
X551306Y625825D01*
X551326Y625503D01*
X551333Y625171D01*
X551326Y624842D01*
X551306Y624522D01*
X551272Y624210D01*
X551224Y623907D01*
X551163Y623613D01*
X551088Y623327D01*
X551000Y623049D01*
X550898Y622780D01*
X550783Y622520D01*
X550654Y622268D01*
X550355Y621789D01*
X550002Y621345D01*
X549594Y620935D01*
X549140Y620567D01*
X548647Y620247D01*
X548115Y619977D01*
X547545Y619756D01*
X547245Y619664D01*
X546935Y619584D01*
X546615Y619517D01*
X546286Y619461D01*
X545947Y619418D01*
X545599Y619388D01*
X545240Y619369D01*
X544872Y619363D01*
X539357Y619363D01*
X539357Y612050D01*
G37*
%LPC*%
G36*
X544512Y621375D02*
X545029Y621389D01*
X545511Y621434D01*
X545961Y621507D01*
X546377Y621610D01*
X546760Y621743D01*
X547110Y621905D01*
X547426Y622096D01*
X547709Y622317D01*
X547959Y622567D01*
X548176Y622847D01*
X548359Y623156D01*
X548509Y623495D01*
X548625Y623863D01*
X548708Y624261D01*
X548758Y624688D01*
X548775Y625144D01*
X548758Y625585D01*
X548707Y625997D01*
X548621Y626380D01*
X548502Y626735D01*
X548348Y627062D01*
X548161Y627361D01*
X547939Y627630D01*
X547683Y627872D01*
X547393Y628085D01*
X547068Y628270D01*
X546710Y628426D01*
X546317Y628554D01*
X545891Y628653D01*
X545430Y628724D01*
X544935Y628767D01*
X544406Y628781D01*
X539357Y628781D01*
X539357Y621375D01*
X544512Y621375D01*
G37*
%LPD*%
G36*
X515224Y612050D02*
X500438Y612050D01*
X500438Y630819D01*
X514678Y630819D01*
X514678Y628741D01*
X502982Y628741D01*
X502982Y622720D01*
X513879Y622720D01*
X513879Y620669D01*
X502982Y620669D01*
X502982Y614128D01*
X515224Y614128D01*
X515224Y612050D01*
G37*
G36*
X619618Y611784D02*
X619225Y611791D01*
X618843Y611813D01*
X618473Y611851D01*
X618115Y611903D01*
X617769Y611970D01*
X617435Y612051D01*
X617113Y612148D01*
X616803Y612260D01*
X616504Y612386D01*
X616218Y612528D01*
X615943Y612684D01*
X615681Y612855D01*
X615430Y613041D01*
X615191Y613242D01*
X614964Y613458D01*
X614749Y613688D01*
X614547Y613934D01*
X614358Y614194D01*
X614181Y614468D01*
X614018Y614757D01*
X613868Y615060D01*
X613731Y615378D01*
X613607Y615710D01*
X613496Y616056D01*
X613398Y616417D01*
X613313Y616793D01*
X613241Y617183D01*
X613182Y617587D01*
X613136Y618006D01*
X613104Y618440D01*
X613084Y618888D01*
X613078Y619350D01*
X613084Y619790D01*
X613104Y620216D01*
X613136Y620630D01*
X613182Y621031D01*
X613241Y621419D01*
X613313Y621793D01*
X613398Y622155D01*
X613496Y622504D01*
X613607Y622839D01*
X613731Y623162D01*
X613868Y623472D01*
X614018Y623768D01*
X614181Y624052D01*
X614358Y624323D01*
X614547Y624580D01*
X614749Y624825D01*
X614964Y625055D01*
X615190Y625271D01*
X615427Y625472D01*
X615675Y625658D01*
X615934Y625829D01*
X616205Y625986D01*
X616486Y626127D01*
X616779Y626253D01*
X617083Y626365D01*
X617399Y626462D01*
X617725Y626544D01*
X618063Y626611D01*
X618411Y626663D01*
X618771Y626700D01*
X619143Y626722D01*
X619525Y626730D01*
X619916Y626722D01*
X620294Y626700D01*
X620661Y626662D01*
X621014Y626610D01*
X621356Y626543D01*
X621684Y626460D01*
X622001Y626363D01*
X622305Y626251D01*
X622597Y626124D01*
X622876Y625982D01*
X623143Y625825D01*
X623397Y625653D01*
X623639Y625466D01*
X623869Y625264D01*
X624086Y625047D01*
X624291Y624815D01*
X624483Y624568D01*
X624663Y624306D01*
X624830Y624029D01*
X624986Y623738D01*
X625128Y623431D01*
X625259Y623109D01*
X625376Y622773D01*
X625482Y622421D01*
X625575Y622055D01*
X625656Y621673D01*
X625724Y621277D01*
X625780Y620865D01*
X625823Y620439D01*
X625854Y619998D01*
X625873Y619541D01*
X625879Y619070D01*
X625879Y618750D01*
X615595Y618750D01*
X615611Y618149D01*
X615659Y617582D01*
X615740Y617051D01*
X615852Y616556D01*
X615996Y616096D01*
X616172Y615671D01*
X616381Y615281D01*
X616621Y614927D01*
X616892Y614612D01*
X617193Y614339D01*
X617523Y614107D01*
X617883Y613918D01*
X618273Y613771D01*
X618692Y613666D01*
X619140Y613603D01*
X619618Y613582D01*
X619998Y613592D01*
X620359Y613621D01*
X620700Y613670D01*
X621022Y613738D01*
X621324Y613826D01*
X621608Y613934D01*
X621871Y614061D01*
X622116Y614208D01*
X622341Y614370D01*
X622548Y614542D01*
X622735Y614724D01*
X622904Y614917D01*
X623053Y615121D01*
X623184Y615334D01*
X623295Y615559D01*
X623388Y615793D01*
X625493Y615194D01*
X625318Y614781D01*
X625118Y614394D01*
X624893Y614035D01*
X624641Y613702D01*
X624364Y613395D01*
X624061Y613116D01*
X623732Y612863D01*
X623378Y612636D01*
X622998Y612436D01*
X622592Y612263D01*
X622161Y612117D01*
X621704Y611997D01*
X621221Y611904D01*
X620712Y611837D01*
X620178Y611797D01*
X619618Y611784D01*
G37*
%LPC*%
G36*
X623401Y620589D02*
X623340Y621139D01*
X623254Y621651D01*
X623145Y622124D01*
X623012Y622559D01*
X622855Y622955D01*
X622675Y623312D01*
X622470Y623632D01*
X622242Y623912D01*
X621990Y624157D01*
X621710Y624370D01*
X621405Y624550D01*
X621074Y624697D01*
X620716Y624811D01*
X620332Y624893D01*
X619922Y624942D01*
X619485Y624958D01*
X619060Y624940D01*
X618658Y624885D01*
X618278Y624794D01*
X617921Y624667D01*
X617587Y624503D01*
X617276Y624302D01*
X616987Y624066D01*
X616721Y623792D01*
X616481Y623487D01*
X616270Y623155D01*
X616089Y622796D01*
X615937Y622409D01*
X615814Y621995D01*
X615721Y621553D01*
X615657Y621085D01*
X615622Y620589D01*
X623401Y620589D01*
G37*
%LPD*%
G36*
X525579Y611784D02*
X524744Y611802D01*
X523954Y611858D01*
X523209Y611951D01*
X522509Y612082D01*
X521855Y612249D01*
X521245Y612454D01*
X520680Y612696D01*
X520161Y612976D01*
X519686Y613292D01*
X519257Y613646D01*
X518872Y614038D01*
X518533Y614466D01*
X518239Y614932D01*
X517990Y615435D01*
X517785Y615975D01*
X517626Y616552D01*
X520091Y617045D01*
X520212Y616636D01*
X520364Y616256D01*
X520545Y615903D01*
X520757Y615578D01*
X520998Y615282D01*
X521270Y615013D01*
X521571Y614773D01*
X521902Y614561D01*
X522264Y614375D01*
X522657Y614214D01*
X523082Y614078D01*
X523538Y613967D01*
X524024Y613880D01*
X524542Y613818D01*
X525092Y613781D01*
X525672Y613768D01*
X526271Y613782D01*
X526834Y613821D01*
X527362Y613887D01*
X527855Y613980D01*
X528313Y614099D01*
X528736Y614244D01*
X529123Y614416D01*
X529475Y614614D01*
X529789Y614838D01*
X530061Y615087D01*
X530291Y615360D01*
X530479Y615658D01*
X530626Y615981D01*
X530730Y616329D01*
X530793Y616701D01*
X530814Y617099D01*
X530808Y617323D01*
X530788Y617537D01*
X530755Y617739D01*
X530709Y617931D01*
X530650Y618112D01*
X530578Y618283D01*
X530493Y618442D01*
X530394Y618591D01*
X530163Y618864D01*
X529890Y619113D01*
X529574Y619337D01*
X529216Y619536D01*
X528818Y619715D01*
X528383Y619879D01*
X527912Y620028D01*
X527404Y620162D01*
X525073Y620709D01*
X524027Y620955D01*
X523116Y621201D01*
X522339Y621448D01*
X521696Y621694D01*
X521150Y621948D01*
X520665Y622216D01*
X520241Y622497D01*
X519878Y622793D01*
X519564Y623109D01*
X519290Y623451D01*
X519055Y623819D01*
X518859Y624212D01*
X518704Y624633D01*
X518594Y625085D01*
X518528Y625566D01*
X518506Y626077D01*
X518513Y626374D01*
X518534Y626662D01*
X518570Y626942D01*
X518621Y627213D01*
X518686Y627476D01*
X518765Y627730D01*
X518859Y627975D01*
X518967Y628212D01*
X519089Y628440D01*
X519226Y628659D01*
X519378Y628870D01*
X519543Y629072D01*
X519918Y629450D01*
X520350Y629793D01*
X520837Y630099D01*
X521372Y630365D01*
X521958Y630589D01*
X522593Y630773D01*
X523278Y630915D01*
X524013Y631017D01*
X524798Y631079D01*
X525632Y631099D01*
X526408Y631084D01*
X527137Y631038D01*
X527818Y630961D01*
X528453Y630854D01*
X529041Y630716D01*
X529581Y630548D01*
X530075Y630349D01*
X530521Y630120D01*
X530928Y629854D01*
X531304Y629544D01*
X531647Y629192D01*
X531960Y628796D01*
X532240Y628357D01*
X532489Y627876D01*
X532706Y627351D01*
X532892Y626783D01*
X530388Y626343D01*
X530273Y626704D01*
X530135Y627038D01*
X529973Y627347D01*
X529788Y627630D01*
X529580Y627888D01*
X529349Y628120D01*
X529094Y628327D01*
X528816Y628508D01*
X528512Y628666D01*
X528181Y628802D01*
X527821Y628918D01*
X527434Y629013D01*
X527019Y629086D01*
X526576Y629139D01*
X526104Y629170D01*
X525606Y629181D01*
X525059Y629169D01*
X524547Y629134D01*
X524067Y629076D01*
X523621Y628994D01*
X523208Y628889D01*
X522828Y628761D01*
X522482Y628610D01*
X522169Y628435D01*
X521891Y628237D01*
X521650Y628016D01*
X521446Y627772D01*
X521280Y627506D01*
X521150Y627216D01*
X521057Y626904D01*
X521002Y626568D01*
X520983Y626210D01*
X520990Y625998D01*
X521012Y625796D01*
X521048Y625603D01*
X521098Y625419D01*
X521163Y625245D01*
X521242Y625080D01*
X521335Y624924D01*
X521443Y624778D01*
X521698Y624506D01*
X522004Y624255D01*
X522361Y624026D01*
X522768Y623819D01*
X523309Y623611D01*
X524064Y623381D01*
X525034Y623128D01*
X526218Y622853D01*
X527943Y622447D01*
X528784Y622221D01*
X529589Y621954D01*
X529975Y621805D01*
X530349Y621643D01*
X530711Y621468D01*
X531060Y621281D01*
X531392Y621077D01*
X531702Y620852D01*
X531988Y620605D01*
X532253Y620336D01*
X532492Y620043D01*
X532704Y619726D01*
X532888Y619384D01*
X533045Y619017D01*
X533171Y618621D01*
X533260Y618191D01*
X533314Y617728D01*
X533332Y617232D01*
X533324Y616912D01*
X533300Y616601D01*
X533260Y616299D01*
X533205Y616006D01*
X533133Y615723D01*
X533046Y615449D01*
X532943Y615183D01*
X532824Y614927D01*
X532689Y614680D01*
X532538Y614443D01*
X532372Y614214D01*
X532189Y613995D01*
X531991Y613785D01*
X531776Y613584D01*
X531546Y613392D01*
X531300Y613209D01*
X531040Y613036D01*
X530766Y612875D01*
X530480Y612725D01*
X530181Y612585D01*
X529543Y612340D01*
X528854Y612140D01*
X528113Y611984D01*
X527320Y611873D01*
X526475Y611806D01*
X525579Y611784D01*
G37*
G36*
X560369Y611784D02*
X559674Y611804D01*
X559015Y611864D01*
X558393Y611964D01*
X557806Y612105D01*
X557256Y612286D01*
X556741Y612507D01*
X556262Y612768D01*
X555820Y613069D01*
X555417Y613410D01*
X555057Y613789D01*
X554740Y614206D01*
X554466Y614663D01*
X554235Y615157D01*
X554048Y615690D01*
X553903Y616262D01*
X553802Y616872D01*
X556279Y617099D01*
X556351Y616695D01*
X556448Y616318D01*
X556569Y615967D01*
X556715Y615642D01*
X556885Y615342D01*
X557079Y615069D01*
X557298Y614822D01*
X557541Y614601D01*
X557809Y614406D01*
X558101Y614237D01*
X558418Y614094D01*
X558759Y613977D01*
X559125Y613885D01*
X559515Y613820D01*
X559930Y613781D01*
X560369Y613768D01*
X560809Y613782D01*
X561226Y613824D01*
X561618Y613894D01*
X561986Y613992D01*
X562329Y614117D01*
X562648Y614270D01*
X562942Y614452D01*
X563213Y614661D01*
X563455Y614898D01*
X563664Y615161D01*
X563842Y615452D01*
X563987Y615770D01*
X564100Y616115D01*
X564181Y616487D01*
X564229Y616886D01*
X564245Y617312D01*
X564227Y617684D01*
X564171Y618036D01*
X564079Y618366D01*
X563950Y618675D01*
X563785Y618964D01*
X563582Y619231D01*
X563343Y619478D01*
X563066Y619703D01*
X562755Y619904D01*
X562411Y620079D01*
X562035Y620226D01*
X561626Y620347D01*
X561184Y620441D01*
X560710Y620508D01*
X560203Y620549D01*
X559663Y620562D01*
X558304Y620562D01*
X558304Y622640D01*
X559609Y622640D01*
X560088Y622654D01*
X560540Y622694D01*
X560964Y622761D01*
X561359Y622855D01*
X561728Y622976D01*
X562068Y623123D01*
X562381Y623298D01*
X562667Y623499D01*
X562921Y623724D01*
X563142Y623970D01*
X563328Y624236D01*
X563481Y624523D01*
X563600Y624831D01*
X563684Y625159D01*
X563735Y625508D01*
X563752Y625877D01*
X563738Y626244D01*
X563697Y626590D01*
X563628Y626917D01*
X563531Y627224D01*
X563406Y627512D01*
X563254Y627779D01*
X563074Y628027D01*
X562866Y628255D01*
X562632Y628459D01*
X562370Y628637D01*
X562081Y628787D01*
X561766Y628909D01*
X561423Y629005D01*
X561054Y629073D01*
X560658Y629114D01*
X560236Y629127D01*
X559849Y629115D01*
X559481Y629077D01*
X559132Y629013D01*
X558802Y628924D01*
X558491Y628810D01*
X558199Y628670D01*
X557926Y628505D01*
X557671Y628315D01*
X557439Y628101D01*
X557233Y627867D01*
X557052Y627612D01*
X556897Y627336D01*
X556767Y627039D01*
X556663Y626721D01*
X556585Y626383D01*
X556532Y626024D01*
X554121Y626210D01*
X554209Y626770D01*
X554341Y627299D01*
X554515Y627796D01*
X554732Y628262D01*
X554993Y628695D01*
X555296Y629097D01*
X555643Y629468D01*
X556033Y629807D01*
X556459Y630110D01*
X556914Y630372D01*
X557399Y630594D01*
X557913Y630776D01*
X558456Y630917D01*
X559029Y631018D01*
X559631Y631079D01*
X560262Y631099D01*
X560949Y631078D01*
X561596Y631017D01*
X562203Y630914D01*
X562772Y630771D01*
X563300Y630586D01*
X563790Y630361D01*
X564240Y630094D01*
X564651Y629787D01*
X565018Y629443D01*
X565336Y629066D01*
X565605Y628658D01*
X565825Y628217D01*
X565997Y627743D01*
X566119Y627238D01*
X566162Y626973D01*
X566192Y626700D01*
X566211Y626419D01*
X566217Y626130D01*
X566201Y625691D01*
X566154Y625273D01*
X566075Y624876D01*
X565965Y624500D01*
X565824Y624145D01*
X565651Y623811D01*
X565447Y623498D01*
X565211Y623206D01*
X564945Y622936D01*
X564651Y622689D01*
X564328Y622464D01*
X563977Y622262D01*
X563597Y622083D01*
X563189Y621926D01*
X562752Y621792D01*
X562287Y621681D01*
X562287Y621628D01*
X562799Y621556D01*
X563281Y621455D01*
X563734Y621323D01*
X564159Y621162D01*
X564554Y620970D01*
X564920Y620749D01*
X565256Y620497D01*
X565564Y620216D01*
X565839Y619910D01*
X566077Y619585D01*
X566278Y619240D01*
X566443Y618877D01*
X566571Y618494D01*
X566663Y618093D01*
X566718Y617672D01*
X566736Y617232D01*
X566730Y616912D01*
X566710Y616601D01*
X566678Y616299D01*
X566633Y616006D01*
X566575Y615723D01*
X566504Y615449D01*
X566420Y615183D01*
X566323Y614927D01*
X566091Y614443D01*
X565807Y613995D01*
X565471Y613584D01*
X565084Y613209D01*
X564649Y612875D01*
X564170Y612585D01*
X563647Y612340D01*
X563080Y612140D01*
X562468Y611984D01*
X561812Y611873D01*
X561113Y611806D01*
X560369Y611784D01*
G37*
G36*
X686086Y612050D02*
X683448Y612050D01*
X675789Y630819D01*
X678466Y630819D01*
X683661Y617605D01*
X684780Y614288D01*
X685899Y617605D01*
X691068Y630819D01*
X693745Y630819D01*
X686086Y612050D01*
G37*
G36*
X644999Y612050D02*
X642601Y612050D01*
X642601Y631818D01*
X644999Y631818D01*
X644999Y619470D01*
X651326Y626463D01*
X654137Y626463D01*
X648289Y620269D01*
X654443Y612050D01*
X651632Y612050D01*
X646757Y618631D01*
X644999Y617179D01*
X644999Y612050D01*
G37*
G36*
X581750Y612050D02*
X569322Y612050D01*
X569322Y613742D01*
X569680Y614498D01*
X570076Y615209D01*
X570510Y615874D01*
X570981Y616493D01*
X571476Y617074D01*
X571985Y617628D01*
X572505Y618153D01*
X573039Y618651D01*
X574113Y619581D01*
X575177Y620442D01*
X576184Y621268D01*
X576649Y621681D01*
X577088Y622094D01*
X577494Y622512D01*
X577859Y622940D01*
X578183Y623378D01*
X578467Y623826D01*
X578590Y624056D01*
X578697Y624294D01*
X578788Y624539D01*
X578862Y624791D01*
X578919Y625052D01*
X578960Y625319D01*
X578985Y625594D01*
X578993Y625877D01*
X578979Y626253D01*
X578936Y626606D01*
X578866Y626939D01*
X578767Y627249D01*
X578639Y627538D01*
X578484Y627805D01*
X578300Y628051D01*
X578087Y628275D01*
X577850Y628475D01*
X577590Y628648D01*
X577309Y628794D01*
X577005Y628914D01*
X576679Y629008D01*
X576331Y629074D01*
X575961Y629114D01*
X575570Y629127D01*
X575195Y629114D01*
X574837Y629075D01*
X574497Y629010D01*
X574173Y628919D01*
X573865Y628802D01*
X573575Y628659D01*
X573302Y628490D01*
X573045Y628295D01*
X572810Y628076D01*
X572600Y627837D01*
X572416Y627576D01*
X572258Y627294D01*
X572125Y626991D01*
X572017Y626668D01*
X571936Y626323D01*
X571880Y625957D01*
X569429Y626183D01*
X569517Y626732D01*
X569648Y627252D01*
X569822Y627743D01*
X570040Y628205D01*
X570300Y628639D01*
X570604Y629043D01*
X570950Y629419D01*
X571340Y629767D01*
X571766Y630079D01*
X572221Y630350D01*
X572706Y630579D01*
X573220Y630766D01*
X573763Y630912D01*
X574336Y631016D01*
X574938Y631078D01*
X575570Y631099D01*
X576258Y631078D01*
X576906Y631015D01*
X577513Y630911D01*
X578079Y630764D01*
X578604Y630576D01*
X579088Y630346D01*
X579530Y630074D01*
X579932Y629760D01*
X580290Y629408D01*
X580599Y629020D01*
X580862Y628598D01*
X581076Y628140D01*
X581243Y627647D01*
X581362Y627119D01*
X581434Y626556D01*
X581451Y626261D01*
X581457Y625957D01*
X581450Y625684D01*
X581426Y625412D01*
X581387Y625140D01*
X581333Y624868D01*
X581262Y624597D01*
X581176Y624326D01*
X580958Y623786D01*
X580678Y623246D01*
X580337Y622707D01*
X579935Y622167D01*
X579473Y621628D01*
X578867Y621014D01*
X578037Y620252D01*
X576982Y619342D01*
X575703Y618284D01*
X574976Y617674D01*
X574327Y617094D01*
X573757Y616545D01*
X573265Y616026D01*
X572844Y615528D01*
X572486Y615039D01*
X572191Y614559D01*
X571960Y614088D01*
X581750Y614088D01*
X581750Y612050D01*
G37*
G36*
X707697Y612050D02*
X695934Y612050D01*
X695934Y614088D01*
X700717Y614088D01*
X700717Y628528D01*
X696480Y625504D01*
X696480Y627769D01*
X700916Y630819D01*
X703128Y630819D01*
X703128Y614088D01*
X707697Y614088D01*
X707697Y612050D01*
G37*
G36*
X635272Y612050D02*
X632435Y612050D01*
X627199Y626463D01*
X629757Y626463D01*
X632927Y617085D01*
X633244Y616030D01*
X633847Y613928D01*
X634313Y615487D01*
X634832Y617059D01*
X638109Y626463D01*
X640654Y626463D01*
X635272Y612050D01*
G37*
G36*
X665437Y611837D02*
X665088Y611850D01*
X664762Y611888D01*
X664459Y611952D01*
X664178Y612041D01*
X663919Y612156D01*
X663683Y612296D01*
X663470Y612462D01*
X663279Y612653D01*
X663110Y612869D01*
X662964Y613112D01*
X662840Y613379D01*
X662739Y613673D01*
X662660Y613991D01*
X662604Y614336D01*
X662571Y614705D01*
X662559Y615100D01*
X662559Y624718D01*
X660894Y624718D01*
X660894Y626463D01*
X662653Y626463D01*
X663359Y629687D01*
X664957Y629687D01*
X664957Y626463D01*
X667621Y626463D01*
X667621Y624718D01*
X664957Y624718D01*
X664957Y615620D01*
X664978Y615139D01*
X665005Y614928D01*
X665042Y614736D01*
X665090Y614563D01*
X665148Y614410D01*
X665217Y614276D01*
X665297Y614161D01*
X665389Y614063D01*
X665498Y613978D01*
X665622Y613906D01*
X665761Y613847D01*
X665916Y613801D01*
X666087Y613768D01*
X666274Y613748D01*
X666476Y613742D01*
X666742Y613753D01*
X667062Y613788D01*
X667435Y613847D01*
X667861Y613928D01*
X667861Y612157D01*
X667265Y612017D01*
X666662Y611917D01*
X666053Y611857D01*
X665437Y611837D01*
G37*
G36*
X658641Y612050D02*
X656244Y612050D01*
X656244Y626463D01*
X658641Y626463D01*
X658641Y612050D01*
G37*
G36*
X591010Y618231D02*
X584350Y618231D01*
X584350Y620362D01*
X591010Y620362D01*
X591010Y618231D01*
G37*
G36*
X658641Y629527D02*
X656244Y629527D01*
X656244Y631818D01*
X658641Y631818D01*
X658641Y629527D01*
G37*
G36*
X445469Y836650D02*
X437735Y836650D01*
X437735Y837990D01*
X440879Y837990D01*
X440879Y847484D01*
X438094Y845496D01*
X438094Y846985D01*
X441011Y848991D01*
X442465Y848991D01*
X442465Y837990D01*
X445469Y837990D01*
X445469Y836650D01*
G37*
G36*
X431403Y836475D02*
X431021Y836488D01*
X430659Y836525D01*
X430316Y836589D01*
X429994Y836677D01*
X429692Y836791D01*
X429409Y836931D01*
X429147Y837095D01*
X428904Y837285D01*
X428682Y837500D01*
X428479Y837741D01*
X428296Y838007D01*
X428133Y838298D01*
X427990Y838614D01*
X427867Y838956D01*
X427764Y839323D01*
X427680Y839715D01*
X429318Y839987D01*
X429364Y839740D01*
X429422Y839507D01*
X429492Y839288D01*
X429574Y839083D01*
X429669Y838892D01*
X429776Y838714D01*
X429896Y838551D01*
X430028Y838402D01*
X430170Y838268D01*
X430321Y838153D01*
X430481Y838055D01*
X430649Y837975D01*
X430827Y837912D01*
X431013Y837868D01*
X431208Y837841D01*
X431411Y837832D01*
X431633Y837842D01*
X431843Y837872D01*
X432040Y837920D01*
X432226Y837989D01*
X432399Y838077D01*
X432561Y838185D01*
X432710Y838312D01*
X432848Y838459D01*
X432971Y838624D01*
X433078Y838808D01*
X433168Y839010D01*
X433242Y839230D01*
X433299Y839469D01*
X433340Y839726D01*
X433365Y840000D01*
X433373Y840294D01*
X433373Y847624D01*
X431000Y847624D01*
X431000Y848991D01*
X435037Y848991D01*
X435037Y840329D01*
X435022Y839892D01*
X434977Y839479D01*
X434901Y839090D01*
X434794Y838725D01*
X434658Y838384D01*
X434491Y838066D01*
X434293Y837773D01*
X434065Y837504D01*
X433811Y837263D01*
X433534Y837054D01*
X433235Y836877D01*
X432914Y836732D01*
X432569Y836620D01*
X432203Y836539D01*
X431814Y836491D01*
X431403Y836475D01*
G37*
G36*
X134313Y246205D02*
X133764Y246217D01*
X133245Y246254D01*
X132755Y246315D01*
X132295Y246401D01*
X131865Y246511D01*
X131464Y246646D01*
X131092Y246805D01*
X130751Y246989D01*
X130439Y247197D01*
X130157Y247430D01*
X129904Y247687D01*
X129681Y247969D01*
X129487Y248275D01*
X129323Y248605D01*
X129189Y248961D01*
X129085Y249340D01*
X130705Y249664D01*
X130785Y249396D01*
X130884Y249145D01*
X131004Y248913D01*
X131143Y248700D01*
X131302Y248505D01*
X131480Y248329D01*
X131678Y248171D01*
X131896Y248031D01*
X132134Y247909D01*
X132393Y247803D01*
X132672Y247713D01*
X132971Y247640D01*
X133291Y247583D01*
X133632Y247542D01*
X133993Y247518D01*
X134375Y247510D01*
X134768Y247519D01*
X135139Y247545D01*
X135486Y247588D01*
X135810Y247649D01*
X136111Y247727D01*
X136389Y247823D01*
X136644Y247936D01*
X136875Y248066D01*
X137082Y248213D01*
X137260Y248377D01*
X137412Y248556D01*
X137535Y248752D01*
X137632Y248965D01*
X137700Y249193D01*
X137742Y249438D01*
X137756Y249699D01*
X137738Y249987D01*
X137687Y250247D01*
X137600Y250478D01*
X137480Y250680D01*
X137328Y250861D01*
X137148Y251024D01*
X136940Y251171D01*
X136704Y251302D01*
X136443Y251420D01*
X136157Y251528D01*
X135847Y251626D01*
X135513Y251714D01*
X133981Y252073D01*
X133293Y252235D01*
X132694Y252397D01*
X132183Y252559D01*
X131760Y252721D01*
X131401Y252888D01*
X131083Y253064D01*
X130804Y253249D01*
X130565Y253444D01*
X130359Y253652D01*
X130178Y253876D01*
X130024Y254118D01*
X129895Y254377D01*
X129793Y254654D01*
X129721Y254950D01*
X129677Y255267D01*
X129663Y255603D01*
X129682Y255988D01*
X129738Y256350D01*
X129833Y256689D01*
X129966Y257006D01*
X130136Y257300D01*
X130345Y257572D01*
X130591Y257820D01*
X130876Y258046D01*
X131195Y258248D01*
X131548Y258422D01*
X131933Y258569D01*
X132350Y258690D01*
X132801Y258784D01*
X133284Y258851D01*
X133800Y258891D01*
X134348Y258905D01*
X134858Y258895D01*
X135338Y258864D01*
X135786Y258814D01*
X136203Y258744D01*
X136589Y258653D01*
X136945Y258543D01*
X137269Y258412D01*
X137563Y258261D01*
X137830Y258086D01*
X138077Y257882D01*
X138303Y257651D01*
X138509Y257391D01*
X138693Y257102D01*
X138857Y256785D01*
X139000Y256440D01*
X139122Y256067D01*
X137475Y255778D01*
X137400Y256015D01*
X137309Y256235D01*
X137203Y256438D01*
X137081Y256624D01*
X136944Y256794D01*
X136792Y256946D01*
X136625Y257082D01*
X136442Y257201D01*
X136242Y257305D01*
X136024Y257395D01*
X135788Y257471D01*
X135533Y257533D01*
X135260Y257581D01*
X134969Y257616D01*
X134659Y257637D01*
X134331Y257643D01*
X133972Y257636D01*
X133635Y257613D01*
X133319Y257575D01*
X133026Y257521D01*
X132754Y257452D01*
X132505Y257368D01*
X132277Y257268D01*
X132071Y257153D01*
X131889Y257023D01*
X131730Y256878D01*
X131596Y256717D01*
X131487Y256542D01*
X131401Y256352D01*
X131340Y256146D01*
X131304Y255926D01*
X131292Y255690D01*
X131311Y255418D01*
X131367Y255170D01*
X131462Y254947D01*
X131594Y254749D01*
X131762Y254570D01*
X131963Y254405D01*
X132197Y254254D01*
X132465Y254118D01*
X132821Y253982D01*
X133317Y253830D01*
X133955Y253664D01*
X134734Y253483D01*
X135868Y253216D01*
X136421Y253067D01*
X136950Y252892D01*
X137450Y252687D01*
X137918Y252450D01*
X138136Y252316D01*
X138339Y252167D01*
X138528Y252005D01*
X138701Y251828D01*
X138859Y251636D01*
X138998Y251427D01*
X139119Y251202D01*
X139223Y250961D01*
X139305Y250700D01*
X139364Y250418D01*
X139399Y250113D01*
X139411Y249787D01*
X139390Y249372D01*
X139327Y248981D01*
X139223Y248615D01*
X139077Y248272D01*
X138889Y247953D01*
X138660Y247659D01*
X138388Y247388D01*
X138075Y247142D01*
X137724Y246922D01*
X137339Y246732D01*
X136920Y246571D01*
X136467Y246439D01*
X135980Y246337D01*
X135458Y246263D01*
X134903Y246220D01*
X134313Y246205D01*
G37*
G36*
X149339Y246380D02*
X141605Y246380D01*
X141605Y247720D01*
X144749Y247720D01*
X144749Y257214D01*
X141964Y255226D01*
X141964Y256715D01*
X144881Y258721D01*
X146335Y258721D01*
X146335Y247720D01*
X149339Y247720D01*
X149339Y246380D01*
G37*
G36*
X352583Y345435D02*
X352034Y345447D01*
X351515Y345484D01*
X351025Y345545D01*
X350565Y345631D01*
X350135Y345741D01*
X349734Y345876D01*
X349362Y346035D01*
X349021Y346219D01*
X348709Y346427D01*
X348427Y346660D01*
X348174Y346917D01*
X347951Y347199D01*
X347757Y347505D01*
X347593Y347835D01*
X347459Y348191D01*
X347355Y348570D01*
X348975Y348894D01*
X349055Y348626D01*
X349154Y348375D01*
X349274Y348143D01*
X349413Y347930D01*
X349572Y347735D01*
X349750Y347559D01*
X349948Y347401D01*
X350166Y347261D01*
X350404Y347139D01*
X350663Y347033D01*
X350942Y346943D01*
X351241Y346870D01*
X351561Y346813D01*
X351902Y346772D01*
X352263Y346748D01*
X352645Y346740D01*
X353038Y346749D01*
X353409Y346775D01*
X353756Y346818D01*
X354080Y346879D01*
X354381Y346957D01*
X354659Y347053D01*
X354914Y347166D01*
X355145Y347296D01*
X355352Y347443D01*
X355530Y347607D01*
X355682Y347786D01*
X355805Y347982D01*
X355902Y348195D01*
X355970Y348423D01*
X356012Y348668D01*
X356026Y348929D01*
X356008Y349217D01*
X355957Y349477D01*
X355870Y349708D01*
X355750Y349910D01*
X355598Y350091D01*
X355418Y350254D01*
X355210Y350401D01*
X354974Y350532D01*
X354713Y350650D01*
X354427Y350758D01*
X354117Y350856D01*
X353783Y350944D01*
X352251Y351303D01*
X351563Y351465D01*
X350964Y351627D01*
X350453Y351789D01*
X350030Y351951D01*
X349671Y352118D01*
X349353Y352294D01*
X349074Y352479D01*
X348835Y352674D01*
X348629Y352882D01*
X348448Y353106D01*
X348294Y353348D01*
X348165Y353607D01*
X348063Y353884D01*
X347991Y354180D01*
X347947Y354497D01*
X347933Y354833D01*
X347952Y355218D01*
X348008Y355580D01*
X348103Y355919D01*
X348236Y356236D01*
X348406Y356530D01*
X348615Y356802D01*
X348861Y357050D01*
X349146Y357276D01*
X349465Y357478D01*
X349818Y357652D01*
X350203Y357799D01*
X350620Y357920D01*
X351071Y358014D01*
X351554Y358081D01*
X352070Y358121D01*
X352618Y358135D01*
X353128Y358125D01*
X353608Y358094D01*
X354056Y358044D01*
X354473Y357974D01*
X354859Y357883D01*
X355215Y357773D01*
X355539Y357642D01*
X355833Y357491D01*
X356100Y357316D01*
X356347Y357112D01*
X356573Y356881D01*
X356779Y356621D01*
X356963Y356332D01*
X357127Y356015D01*
X357270Y355670D01*
X357392Y355297D01*
X355745Y355008D01*
X355670Y355245D01*
X355579Y355465D01*
X355473Y355668D01*
X355351Y355854D01*
X355214Y356024D01*
X355062Y356176D01*
X354895Y356312D01*
X354712Y356431D01*
X354512Y356535D01*
X354294Y356625D01*
X354058Y356701D01*
X353803Y356763D01*
X353530Y356811D01*
X353239Y356846D01*
X352929Y356867D01*
X352601Y356873D01*
X352242Y356866D01*
X351905Y356843D01*
X351589Y356805D01*
X351296Y356751D01*
X351024Y356682D01*
X350775Y356598D01*
X350547Y356498D01*
X350341Y356383D01*
X350159Y356253D01*
X350000Y356108D01*
X349866Y355947D01*
X349757Y355772D01*
X349671Y355582D01*
X349610Y355376D01*
X349574Y355156D01*
X349562Y354920D01*
X349581Y354648D01*
X349637Y354400D01*
X349732Y354177D01*
X349864Y353979D01*
X350032Y353800D01*
X350233Y353635D01*
X350467Y353484D01*
X350735Y353348D01*
X351091Y353212D01*
X351587Y353060D01*
X352225Y352894D01*
X353004Y352713D01*
X354138Y352446D01*
X354691Y352297D01*
X355220Y352122D01*
X355720Y351917D01*
X356188Y351680D01*
X356406Y351546D01*
X356609Y351397D01*
X356798Y351235D01*
X356971Y351058D01*
X357129Y350866D01*
X357268Y350657D01*
X357389Y350432D01*
X357493Y350191D01*
X357575Y349930D01*
X357634Y349648D01*
X357669Y349343D01*
X357681Y349017D01*
X357660Y348602D01*
X357597Y348211D01*
X357493Y347845D01*
X357347Y347502D01*
X357159Y347183D01*
X356930Y346889D01*
X356658Y346618D01*
X356345Y346372D01*
X355994Y346152D01*
X355609Y345962D01*
X355190Y345801D01*
X354737Y345669D01*
X354250Y345567D01*
X353728Y345493D01*
X353173Y345450D01*
X352583Y345435D01*
G37*
G36*
X367583Y345610D02*
X359411Y345610D01*
X359411Y346722D01*
X359647Y347220D01*
X359907Y347687D01*
X360192Y348124D01*
X360501Y348531D01*
X360827Y348914D01*
X361161Y349278D01*
X361504Y349623D01*
X361855Y349950D01*
X362561Y350562D01*
X363260Y351128D01*
X363923Y351671D01*
X364517Y352214D01*
X364784Y352489D01*
X365024Y352770D01*
X365237Y353058D01*
X365424Y353353D01*
X365575Y353660D01*
X365683Y353988D01*
X365748Y354335D01*
X365770Y354701D01*
X365760Y354948D01*
X365732Y355181D01*
X365686Y355399D01*
X365621Y355603D01*
X365537Y355793D01*
X365435Y355969D01*
X365314Y356131D01*
X365174Y356278D01*
X365018Y356409D01*
X364847Y356523D01*
X364662Y356619D01*
X364462Y356698D01*
X364248Y356760D01*
X364020Y356803D01*
X363776Y356830D01*
X363519Y356838D01*
X363272Y356830D01*
X363037Y356804D01*
X362813Y356761D01*
X362600Y356702D01*
X362398Y356625D01*
X362207Y356531D01*
X362028Y356419D01*
X361859Y356291D01*
X361704Y356147D01*
X361566Y355990D01*
X361445Y355818D01*
X361341Y355633D01*
X361254Y355434D01*
X361183Y355221D01*
X361129Y354994D01*
X361093Y354754D01*
X359481Y354903D01*
X359539Y355263D01*
X359625Y355605D01*
X359740Y355928D01*
X359883Y356232D01*
X360054Y356517D01*
X360254Y356783D01*
X360482Y357030D01*
X360738Y357259D01*
X361018Y357464D01*
X361317Y357642D01*
X361636Y357793D01*
X361974Y357916D01*
X362331Y358012D01*
X362708Y358080D01*
X363103Y358121D01*
X363519Y358135D01*
X363972Y358121D01*
X364398Y358080D01*
X364796Y358011D01*
X365169Y357915D01*
X365514Y357791D01*
X365832Y357640D01*
X366123Y357461D01*
X366387Y357254D01*
X366622Y357023D01*
X366826Y356768D01*
X366998Y356490D01*
X367139Y356189D01*
X367249Y355865D01*
X367327Y355518D01*
X367374Y355147D01*
X367390Y354754D01*
X367369Y354395D01*
X367308Y354038D01*
X367205Y353682D01*
X367061Y353326D01*
X366877Y352972D01*
X366653Y352617D01*
X366389Y352262D01*
X366085Y351907D01*
X365687Y351504D01*
X365141Y351003D01*
X364448Y350405D01*
X363606Y349709D01*
X363128Y349307D01*
X362702Y348926D01*
X362327Y348565D01*
X362003Y348224D01*
X361726Y347897D01*
X361491Y347575D01*
X361297Y347260D01*
X361145Y346950D01*
X367583Y346950D01*
X367583Y345610D01*
G37*
G36*
X534363Y341455D02*
X533814Y341467D01*
X533295Y341504D01*
X532805Y341565D01*
X532345Y341651D01*
X531915Y341761D01*
X531514Y341896D01*
X531142Y342055D01*
X530801Y342239D01*
X530489Y342447D01*
X530207Y342680D01*
X529954Y342937D01*
X529731Y343219D01*
X529537Y343525D01*
X529373Y343855D01*
X529239Y344211D01*
X529135Y344590D01*
X530755Y344914D01*
X530835Y344646D01*
X530934Y344395D01*
X531054Y344163D01*
X531193Y343950D01*
X531352Y343755D01*
X531530Y343579D01*
X531728Y343421D01*
X531946Y343281D01*
X532184Y343159D01*
X532443Y343053D01*
X532722Y342963D01*
X533021Y342890D01*
X533341Y342833D01*
X533682Y342792D01*
X534043Y342768D01*
X534425Y342760D01*
X534818Y342769D01*
X535189Y342795D01*
X535536Y342838D01*
X535860Y342899D01*
X536161Y342977D01*
X536439Y343073D01*
X536694Y343186D01*
X536925Y343316D01*
X537132Y343463D01*
X537310Y343627D01*
X537462Y343806D01*
X537585Y344002D01*
X537682Y344215D01*
X537750Y344443D01*
X537792Y344688D01*
X537806Y344949D01*
X537788Y345237D01*
X537737Y345497D01*
X537650Y345728D01*
X537530Y345930D01*
X537378Y346111D01*
X537198Y346274D01*
X536990Y346421D01*
X536754Y346552D01*
X536493Y346670D01*
X536207Y346778D01*
X535897Y346876D01*
X535563Y346964D01*
X534031Y347323D01*
X533343Y347485D01*
X532744Y347647D01*
X532233Y347809D01*
X531810Y347971D01*
X531451Y348138D01*
X531133Y348314D01*
X530854Y348499D01*
X530615Y348694D01*
X530409Y348902D01*
X530228Y349126D01*
X530074Y349368D01*
X529945Y349627D01*
X529843Y349904D01*
X529771Y350200D01*
X529727Y350517D01*
X529713Y350853D01*
X529732Y351238D01*
X529788Y351600D01*
X529883Y351939D01*
X530016Y352256D01*
X530186Y352550D01*
X530395Y352822D01*
X530641Y353070D01*
X530926Y353296D01*
X531245Y353498D01*
X531598Y353672D01*
X531983Y353819D01*
X532400Y353940D01*
X532851Y354034D01*
X533334Y354101D01*
X533850Y354141D01*
X534398Y354155D01*
X534908Y354145D01*
X535388Y354114D01*
X535836Y354064D01*
X536253Y353994D01*
X536639Y353903D01*
X536995Y353793D01*
X537319Y353662D01*
X537613Y353511D01*
X537880Y353336D01*
X538127Y353132D01*
X538353Y352901D01*
X538559Y352641D01*
X538743Y352352D01*
X538907Y352035D01*
X539050Y351690D01*
X539172Y351317D01*
X537525Y351028D01*
X537450Y351265D01*
X537359Y351485D01*
X537253Y351688D01*
X537131Y351874D01*
X536994Y352044D01*
X536842Y352196D01*
X536675Y352332D01*
X536492Y352451D01*
X536292Y352555D01*
X536074Y352645D01*
X535838Y352721D01*
X535583Y352783D01*
X535310Y352831D01*
X535019Y352866D01*
X534709Y352887D01*
X534381Y352893D01*
X534022Y352886D01*
X533685Y352863D01*
X533369Y352825D01*
X533076Y352771D01*
X532804Y352702D01*
X532555Y352618D01*
X532327Y352518D01*
X532121Y352403D01*
X531939Y352273D01*
X531780Y352128D01*
X531646Y351967D01*
X531537Y351792D01*
X531451Y351602D01*
X531390Y351396D01*
X531354Y351176D01*
X531342Y350940D01*
X531361Y350668D01*
X531417Y350420D01*
X531512Y350197D01*
X531644Y349999D01*
X531812Y349820D01*
X532013Y349655D01*
X532247Y349504D01*
X532515Y349368D01*
X532871Y349232D01*
X533367Y349080D01*
X534005Y348914D01*
X534784Y348733D01*
X535918Y348466D01*
X536471Y348317D01*
X537000Y348142D01*
X537500Y347937D01*
X537968Y347700D01*
X538186Y347566D01*
X538389Y347417D01*
X538578Y347255D01*
X538751Y347078D01*
X538909Y346886D01*
X539048Y346677D01*
X539169Y346452D01*
X539273Y346211D01*
X539355Y345950D01*
X539414Y345668D01*
X539449Y345363D01*
X539461Y345037D01*
X539440Y344622D01*
X539377Y344231D01*
X539273Y343865D01*
X539127Y343522D01*
X538939Y343203D01*
X538710Y342909D01*
X538438Y342638D01*
X538125Y342392D01*
X537774Y342172D01*
X537389Y341982D01*
X536970Y341821D01*
X536517Y341689D01*
X536030Y341587D01*
X535508Y341513D01*
X534953Y341470D01*
X534363Y341455D01*
G37*
G36*
X545290Y341455D02*
X544833Y341468D01*
X544400Y341508D01*
X543991Y341574D01*
X543605Y341666D01*
X543243Y341785D01*
X542905Y341930D01*
X542590Y342102D01*
X542299Y342300D01*
X542034Y342524D01*
X541797Y342773D01*
X541589Y343048D01*
X541409Y343348D01*
X541257Y343673D01*
X541134Y344024D01*
X541039Y344399D01*
X540972Y344801D01*
X542601Y344949D01*
X542648Y344684D01*
X542712Y344436D01*
X542792Y344205D01*
X542887Y343992D01*
X542999Y343795D01*
X543127Y343615D01*
X543271Y343453D01*
X543431Y343307D01*
X543607Y343179D01*
X543799Y343068D01*
X544007Y342974D01*
X544232Y342897D01*
X544472Y342837D01*
X544729Y342794D01*
X545001Y342768D01*
X545290Y342760D01*
X545580Y342769D01*
X545853Y342797D01*
X546111Y342842D01*
X546353Y342907D01*
X546579Y342989D01*
X546788Y343090D01*
X546982Y343209D01*
X547160Y343347D01*
X547319Y343502D01*
X547457Y343676D01*
X547573Y343867D01*
X547669Y344076D01*
X547743Y344303D01*
X547796Y344547D01*
X547828Y344809D01*
X547839Y345090D01*
X547827Y345335D01*
X547790Y345566D01*
X547730Y345783D01*
X547645Y345986D01*
X547536Y346176D01*
X547403Y346352D01*
X547245Y346514D01*
X547063Y346662D01*
X546859Y346794D01*
X546633Y346909D01*
X546385Y347006D01*
X546116Y347085D01*
X545826Y347147D01*
X545514Y347191D01*
X545181Y347218D01*
X544826Y347227D01*
X543932Y347227D01*
X543932Y348593D01*
X544791Y348593D01*
X545106Y348602D01*
X545402Y348628D01*
X545681Y348672D01*
X545941Y348734D01*
X546183Y348814D01*
X546407Y348911D01*
X546613Y349026D01*
X546801Y349158D01*
X546968Y349306D01*
X547113Y349468D01*
X547236Y349643D01*
X547336Y349831D01*
X547414Y350033D01*
X547470Y350249D01*
X547503Y350479D01*
X547515Y350721D01*
X547505Y350962D01*
X547478Y351190D01*
X547433Y351405D01*
X547369Y351607D01*
X547287Y351796D01*
X547187Y351972D01*
X547069Y352135D01*
X546932Y352285D01*
X546778Y352419D01*
X546606Y352536D01*
X546416Y352634D01*
X546208Y352715D01*
X545983Y352778D01*
X545741Y352823D01*
X545480Y352849D01*
X545202Y352858D01*
X544948Y352850D01*
X544706Y352825D01*
X544477Y352783D01*
X544260Y352725D01*
X544055Y352650D01*
X543863Y352558D01*
X543683Y352449D01*
X543516Y352324D01*
X543364Y352184D01*
X543228Y352030D01*
X543109Y351862D01*
X543007Y351680D01*
X542922Y351485D01*
X542854Y351276D01*
X542802Y351054D01*
X542767Y350818D01*
X541182Y350940D01*
X541240Y351309D01*
X541326Y351656D01*
X541441Y351983D01*
X541584Y352289D01*
X541755Y352574D01*
X541955Y352839D01*
X542183Y353082D01*
X542439Y353305D01*
X542719Y353504D01*
X543018Y353677D01*
X543337Y353823D01*
X543675Y353942D01*
X544032Y354035D01*
X544409Y354102D01*
X544805Y354141D01*
X545220Y354155D01*
X545671Y354141D01*
X546096Y354101D01*
X546496Y354033D01*
X546870Y353939D01*
X547218Y353818D01*
X547539Y353669D01*
X547836Y353494D01*
X548106Y353292D01*
X548347Y353066D01*
X548556Y352818D01*
X548733Y352550D01*
X548878Y352260D01*
X548990Y351948D01*
X549071Y351616D01*
X549119Y351263D01*
X549135Y350888D01*
X549125Y350599D01*
X549094Y350324D01*
X549042Y350063D01*
X548970Y349816D01*
X548877Y349583D01*
X548763Y349363D01*
X548629Y349157D01*
X548474Y348965D01*
X548299Y348788D01*
X548105Y348625D01*
X547893Y348477D01*
X547662Y348345D01*
X547413Y348227D01*
X547144Y348124D01*
X546857Y348036D01*
X546551Y347962D01*
X546551Y347927D01*
X546887Y347880D01*
X547205Y347814D01*
X547503Y347727D01*
X547782Y347621D01*
X548041Y347495D01*
X548282Y347349D01*
X548503Y347184D01*
X548706Y346999D01*
X548886Y346798D01*
X549043Y346584D01*
X549175Y346358D01*
X549284Y346119D01*
X549368Y345867D01*
X549428Y345603D01*
X549464Y345326D01*
X549476Y345037D01*
X549459Y344622D01*
X549409Y344231D01*
X549324Y343865D01*
X549205Y343522D01*
X549052Y343203D01*
X548866Y342909D01*
X548645Y342638D01*
X548390Y342392D01*
X548104Y342172D01*
X547789Y341982D01*
X547445Y341821D01*
X547072Y341689D01*
X546670Y341587D01*
X546239Y341513D01*
X545779Y341470D01*
X545290Y341455D01*
G37*
G36*
X349377Y176530D02*
X347888Y176530D01*
X347888Y179324D01*
X342072Y179324D01*
X342072Y180550D01*
X347722Y188871D01*
X349377Y188871D01*
X349377Y180568D01*
X351111Y180568D01*
X351111Y179324D01*
X349377Y179324D01*
X349377Y176530D01*
G37*
%LPC*%
G36*
X347888Y180568D02*
X347888Y187093D01*
X347643Y186629D01*
X347301Y186051D01*
X344139Y181391D01*
X343666Y180743D01*
X343526Y180568D01*
X347888Y180568D01*
G37*
%LPD*%
G36*
X335735Y176355D02*
X335186Y176367D01*
X334667Y176404D01*
X334177Y176465D01*
X333717Y176551D01*
X333287Y176661D01*
X332886Y176796D01*
X332514Y176955D01*
X332173Y177139D01*
X331861Y177347D01*
X331579Y177580D01*
X331326Y177837D01*
X331103Y178119D01*
X330909Y178425D01*
X330745Y178755D01*
X330611Y179111D01*
X330507Y179490D01*
X332127Y179814D01*
X332207Y179546D01*
X332306Y179295D01*
X332426Y179063D01*
X332565Y178850D01*
X332724Y178655D01*
X332902Y178479D01*
X333100Y178321D01*
X333318Y178181D01*
X333556Y178059D01*
X333815Y177953D01*
X334094Y177863D01*
X334393Y177790D01*
X334713Y177733D01*
X335054Y177692D01*
X335415Y177668D01*
X335797Y177660D01*
X336190Y177669D01*
X336561Y177695D01*
X336908Y177738D01*
X337232Y177799D01*
X337533Y177877D01*
X337811Y177973D01*
X338066Y178086D01*
X338297Y178216D01*
X338504Y178363D01*
X338682Y178527D01*
X338834Y178706D01*
X338957Y178902D01*
X339054Y179115D01*
X339122Y179343D01*
X339164Y179588D01*
X339178Y179849D01*
X339160Y180137D01*
X339109Y180397D01*
X339022Y180628D01*
X338902Y180830D01*
X338750Y181011D01*
X338570Y181174D01*
X338362Y181321D01*
X338126Y181452D01*
X337865Y181570D01*
X337579Y181678D01*
X337269Y181776D01*
X336935Y181864D01*
X335403Y182223D01*
X334715Y182385D01*
X334116Y182547D01*
X333605Y182709D01*
X333182Y182871D01*
X332823Y183038D01*
X332505Y183214D01*
X332226Y183399D01*
X331987Y183594D01*
X331781Y183802D01*
X331600Y184026D01*
X331446Y184268D01*
X331317Y184527D01*
X331215Y184804D01*
X331143Y185100D01*
X331099Y185417D01*
X331085Y185753D01*
X331104Y186138D01*
X331160Y186500D01*
X331255Y186839D01*
X331388Y187156D01*
X331558Y187450D01*
X331767Y187722D01*
X332013Y187970D01*
X332298Y188196D01*
X332617Y188398D01*
X332970Y188572D01*
X333355Y188719D01*
X333772Y188840D01*
X334223Y188934D01*
X334706Y189001D01*
X335222Y189041D01*
X335770Y189055D01*
X336280Y189045D01*
X336760Y189014D01*
X337208Y188964D01*
X337625Y188894D01*
X338011Y188803D01*
X338367Y188693D01*
X338691Y188562D01*
X338985Y188411D01*
X339252Y188236D01*
X339499Y188032D01*
X339725Y187801D01*
X339931Y187541D01*
X340115Y187252D01*
X340279Y186935D01*
X340422Y186590D01*
X340544Y186217D01*
X338897Y185928D01*
X338822Y186165D01*
X338731Y186385D01*
X338625Y186588D01*
X338503Y186774D01*
X338366Y186944D01*
X338214Y187096D01*
X338047Y187232D01*
X337864Y187351D01*
X337664Y187455D01*
X337446Y187545D01*
X337210Y187621D01*
X336955Y187683D01*
X336682Y187731D01*
X336391Y187766D01*
X336081Y187787D01*
X335753Y187793D01*
X335394Y187786D01*
X335057Y187763D01*
X334741Y187725D01*
X334448Y187671D01*
X334176Y187602D01*
X333927Y187518D01*
X333699Y187418D01*
X333493Y187303D01*
X333311Y187173D01*
X333152Y187028D01*
X333018Y186867D01*
X332909Y186692D01*
X332823Y186502D01*
X332762Y186296D01*
X332726Y186076D01*
X332714Y185840D01*
X332733Y185568D01*
X332789Y185320D01*
X332884Y185097D01*
X333016Y184899D01*
X333184Y184720D01*
X333385Y184555D01*
X333619Y184404D01*
X333887Y184268D01*
X334243Y184132D01*
X334739Y183980D01*
X335377Y183814D01*
X336156Y183633D01*
X337290Y183366D01*
X337843Y183217D01*
X338372Y183042D01*
X338872Y182837D01*
X339340Y182600D01*
X339558Y182466D01*
X339761Y182317D01*
X339950Y182155D01*
X340123Y181978D01*
X340281Y181786D01*
X340420Y181577D01*
X340541Y181352D01*
X340645Y181111D01*
X340727Y180850D01*
X340786Y180568D01*
X340821Y180263D01*
X340833Y179937D01*
X340812Y179522D01*
X340749Y179131D01*
X340645Y178765D01*
X340499Y178422D01*
X340311Y178103D01*
X340082Y177809D01*
X339810Y177538D01*
X339497Y177292D01*
X339146Y177072D01*
X338761Y176882D01*
X338342Y176721D01*
X337889Y176589D01*
X337402Y176487D01*
X336880Y176413D01*
X336325Y176370D01*
X335735Y176355D01*
G37*
G36*
X547063Y176355D02*
X546514Y176367D01*
X545995Y176404D01*
X545505Y176465D01*
X545045Y176551D01*
X544615Y176661D01*
X544214Y176796D01*
X543842Y176955D01*
X543501Y177139D01*
X543189Y177347D01*
X542907Y177580D01*
X542654Y177837D01*
X542431Y178119D01*
X542237Y178425D01*
X542073Y178755D01*
X541939Y179111D01*
X541835Y179490D01*
X543455Y179814D01*
X543535Y179546D01*
X543634Y179295D01*
X543754Y179063D01*
X543893Y178850D01*
X544052Y178655D01*
X544230Y178479D01*
X544428Y178321D01*
X544646Y178181D01*
X544884Y178059D01*
X545143Y177953D01*
X545422Y177863D01*
X545721Y177790D01*
X546041Y177733D01*
X546382Y177692D01*
X546743Y177668D01*
X547125Y177660D01*
X547518Y177669D01*
X547889Y177695D01*
X548236Y177738D01*
X548560Y177799D01*
X548861Y177877D01*
X549139Y177973D01*
X549394Y178086D01*
X549625Y178216D01*
X549832Y178363D01*
X550010Y178527D01*
X550162Y178706D01*
X550285Y178902D01*
X550382Y179115D01*
X550450Y179343D01*
X550492Y179588D01*
X550506Y179849D01*
X550488Y180137D01*
X550437Y180397D01*
X550350Y180628D01*
X550230Y180830D01*
X550078Y181011D01*
X549898Y181174D01*
X549690Y181321D01*
X549454Y181452D01*
X549193Y181570D01*
X548907Y181678D01*
X548597Y181776D01*
X548263Y181864D01*
X546731Y182223D01*
X546043Y182385D01*
X545444Y182547D01*
X544933Y182709D01*
X544510Y182871D01*
X544151Y183038D01*
X543833Y183214D01*
X543554Y183399D01*
X543315Y183594D01*
X543109Y183802D01*
X542928Y184026D01*
X542774Y184268D01*
X542645Y184527D01*
X542543Y184804D01*
X542471Y185100D01*
X542427Y185417D01*
X542413Y185753D01*
X542432Y186138D01*
X542488Y186500D01*
X542583Y186839D01*
X542716Y187156D01*
X542886Y187450D01*
X543095Y187722D01*
X543341Y187970D01*
X543626Y188196D01*
X543945Y188398D01*
X544298Y188572D01*
X544683Y188719D01*
X545100Y188840D01*
X545551Y188934D01*
X546034Y189001D01*
X546550Y189041D01*
X547098Y189055D01*
X547608Y189045D01*
X548088Y189014D01*
X548536Y188964D01*
X548953Y188894D01*
X549339Y188803D01*
X549695Y188693D01*
X550019Y188562D01*
X550313Y188411D01*
X550580Y188236D01*
X550827Y188032D01*
X551053Y187801D01*
X551259Y187541D01*
X551443Y187252D01*
X551607Y186935D01*
X551750Y186590D01*
X551872Y186217D01*
X550225Y185928D01*
X550150Y186165D01*
X550059Y186385D01*
X549953Y186588D01*
X549831Y186774D01*
X549694Y186944D01*
X549542Y187096D01*
X549375Y187232D01*
X549192Y187351D01*
X548992Y187455D01*
X548774Y187545D01*
X548538Y187621D01*
X548283Y187683D01*
X548010Y187731D01*
X547719Y187766D01*
X547409Y187787D01*
X547081Y187793D01*
X546722Y187786D01*
X546385Y187763D01*
X546069Y187725D01*
X545776Y187671D01*
X545504Y187602D01*
X545255Y187518D01*
X545027Y187418D01*
X544821Y187303D01*
X544639Y187173D01*
X544480Y187028D01*
X544346Y186867D01*
X544237Y186692D01*
X544151Y186502D01*
X544090Y186296D01*
X544054Y186076D01*
X544042Y185840D01*
X544061Y185568D01*
X544117Y185320D01*
X544212Y185097D01*
X544344Y184899D01*
X544512Y184720D01*
X544713Y184555D01*
X544947Y184404D01*
X545215Y184268D01*
X545571Y184132D01*
X546067Y183980D01*
X546705Y183814D01*
X547484Y183633D01*
X548618Y183366D01*
X549171Y183217D01*
X549700Y183042D01*
X550200Y182837D01*
X550668Y182600D01*
X550886Y182466D01*
X551089Y182317D01*
X551278Y182155D01*
X551451Y181978D01*
X551609Y181786D01*
X551748Y181577D01*
X551869Y181352D01*
X551973Y181111D01*
X552055Y180850D01*
X552114Y180568D01*
X552149Y180263D01*
X552161Y179937D01*
X552140Y179522D01*
X552077Y179131D01*
X551973Y178765D01*
X551827Y178422D01*
X551639Y178103D01*
X551410Y177809D01*
X551138Y177538D01*
X550825Y177292D01*
X550474Y177072D01*
X550089Y176882D01*
X549670Y176721D01*
X549217Y176589D01*
X548730Y176487D01*
X548208Y176413D01*
X547653Y176370D01*
X547063Y176355D01*
G37*
G36*
X557832Y176355D02*
X557411Y176367D01*
X557011Y176402D01*
X556632Y176461D01*
X556273Y176543D01*
X555935Y176649D01*
X555619Y176779D01*
X555322Y176932D01*
X555047Y177108D01*
X554794Y177307D01*
X554566Y177527D01*
X554362Y177768D01*
X554182Y178030D01*
X554027Y178313D01*
X553896Y178617D01*
X553789Y178943D01*
X553707Y179289D01*
X555301Y179473D01*
X555370Y179251D01*
X555450Y179044D01*
X555543Y178851D01*
X555649Y178672D01*
X555766Y178508D01*
X555896Y178357D01*
X556038Y178222D01*
X556192Y178100D01*
X556359Y177993D01*
X556537Y177900D01*
X556728Y177821D01*
X556932Y177757D01*
X557147Y177707D01*
X557375Y177671D01*
X557615Y177649D01*
X557867Y177642D01*
X558176Y177654D01*
X558468Y177690D01*
X558742Y177750D01*
X558999Y177834D01*
X559239Y177942D01*
X559462Y178073D01*
X559667Y178229D01*
X559855Y178409D01*
X560024Y178609D01*
X560170Y178828D01*
X560293Y179064D01*
X560394Y179319D01*
X560473Y179591D01*
X560529Y179881D01*
X560562Y180189D01*
X560574Y180515D01*
X560562Y180799D01*
X560528Y181070D01*
X560472Y181326D01*
X560393Y181568D01*
X560291Y181797D01*
X560167Y182011D01*
X560020Y182212D01*
X559851Y182398D01*
X559663Y182567D01*
X559458Y182712D01*
X559238Y182836D01*
X559003Y182937D01*
X558751Y183015D01*
X558484Y183072D01*
X558201Y183105D01*
X557902Y183116D01*
X557588Y183104D01*
X557285Y183066D01*
X556992Y183003D01*
X556711Y182915D01*
X556435Y182797D01*
X556159Y182643D01*
X555883Y182455D01*
X555608Y182232D01*
X554066Y182232D01*
X554478Y188871D01*
X561493Y188871D01*
X561493Y187531D01*
X555914Y187531D01*
X555678Y183616D01*
X555942Y183800D01*
X556221Y183961D01*
X556516Y184096D01*
X556827Y184207D01*
X557154Y184293D01*
X557496Y184355D01*
X557853Y184392D01*
X558226Y184404D01*
X558670Y184387D01*
X559091Y184337D01*
X559489Y184254D01*
X559863Y184137D01*
X560214Y183987D01*
X560543Y183803D01*
X560848Y183586D01*
X561130Y183335D01*
X561383Y183058D01*
X561603Y182761D01*
X561789Y182443D01*
X561941Y182105D01*
X562059Y181747D01*
X562144Y181368D01*
X562195Y180969D01*
X562211Y180550D01*
X562193Y180075D01*
X562139Y179626D01*
X562048Y179202D01*
X561921Y178805D01*
X561758Y178434D01*
X561559Y178088D01*
X561323Y177769D01*
X561051Y177476D01*
X560747Y177213D01*
X560415Y176985D01*
X560054Y176793D01*
X559666Y176635D01*
X559250Y176513D01*
X558805Y176425D01*
X558333Y176372D01*
X557832Y176355D01*
G37*
G36*
X742341Y335105D02*
X742085Y335111D01*
X741836Y335129D01*
X741360Y335202D01*
X740916Y335323D01*
X740502Y335492D01*
X740119Y335710D01*
X739766Y335977D01*
X739444Y336292D01*
X739153Y336655D01*
X738895Y337065D01*
X738670Y337518D01*
X738481Y338016D01*
X738326Y338558D01*
X738205Y339144D01*
X738119Y339774D01*
X738067Y340448D01*
X738050Y341166D01*
X738068Y341944D01*
X738121Y342675D01*
X738211Y343361D01*
X738336Y343999D01*
X738498Y344591D01*
X738695Y345137D01*
X738928Y345636D01*
X739197Y346088D01*
X739499Y346490D01*
X739831Y346839D01*
X740194Y347134D01*
X740587Y347376D01*
X741011Y347563D01*
X741234Y347637D01*
X741465Y347697D01*
X741703Y347744D01*
X741949Y347778D01*
X742203Y347798D01*
X742464Y347805D01*
X742805Y347795D01*
X743130Y347765D01*
X743439Y347716D01*
X743732Y347648D01*
X744008Y347559D01*
X744269Y347451D01*
X744513Y347324D01*
X744741Y347176D01*
X744953Y347009D01*
X745149Y346823D01*
X745329Y346617D01*
X745492Y346391D01*
X745640Y346145D01*
X745771Y345880D01*
X745886Y345595D01*
X745985Y345291D01*
X744478Y345020D01*
X744345Y345373D01*
X744177Y345679D01*
X743975Y345938D01*
X743738Y346149D01*
X743467Y346314D01*
X743161Y346432D01*
X742821Y346502D01*
X742446Y346526D01*
X742119Y346506D01*
X741810Y346447D01*
X741520Y346349D01*
X741250Y346212D01*
X740998Y346035D01*
X740766Y345819D01*
X740552Y345564D01*
X740358Y345269D01*
X740184Y344937D01*
X740034Y344570D01*
X739907Y344168D01*
X739802Y343731D01*
X739721Y343258D01*
X739664Y342751D01*
X739629Y342208D01*
X739617Y341630D01*
X739854Y342005D01*
X740134Y342332D01*
X740458Y342611D01*
X740826Y342843D01*
X741230Y343025D01*
X741663Y343155D01*
X741889Y343201D01*
X742123Y343233D01*
X742365Y343253D01*
X742613Y343259D01*
X743029Y343242D01*
X743423Y343192D01*
X743795Y343109D01*
X744144Y342992D01*
X744472Y342842D01*
X744778Y342658D01*
X745062Y342441D01*
X745324Y342190D01*
X745559Y341912D01*
X745762Y341610D01*
X745935Y341286D01*
X746076Y340938D01*
X746185Y340567D01*
X746264Y340174D01*
X746311Y339757D01*
X746326Y339318D01*
X746310Y338842D01*
X746260Y338393D01*
X746177Y337969D01*
X746062Y337570D01*
X745912Y337198D01*
X745730Y336851D01*
X745515Y336530D01*
X745267Y336235D01*
X744989Y335970D01*
X744686Y335740D01*
X744359Y335546D01*
X744005Y335387D01*
X743627Y335264D01*
X743224Y335175D01*
X742795Y335123D01*
X742341Y335105D01*
G37*
%LPC*%
G36*
X742289Y336375D02*
X742566Y336387D01*
X742827Y336423D01*
X743074Y336483D01*
X743305Y336566D01*
X743520Y336674D01*
X743721Y336806D01*
X743906Y336962D01*
X744076Y337141D01*
X744227Y337342D01*
X744359Y337560D01*
X744470Y337797D01*
X744562Y338051D01*
X744633Y338323D01*
X744683Y338613D01*
X744714Y338922D01*
X744724Y339248D01*
X744713Y339573D01*
X744683Y339879D01*
X744631Y340166D01*
X744559Y340434D01*
X744467Y340683D01*
X744354Y340913D01*
X744221Y341123D01*
X744067Y341315D01*
X743894Y341485D01*
X743706Y341633D01*
X743501Y341758D01*
X743281Y341860D01*
X743044Y341939D01*
X742791Y341996D01*
X742522Y342030D01*
X742236Y342042D01*
X741967Y342032D01*
X741711Y342001D01*
X741468Y341951D01*
X741239Y341881D01*
X741023Y341790D01*
X740820Y341679D01*
X740630Y341549D01*
X740454Y341398D01*
X740295Y341229D01*
X740157Y341046D01*
X740040Y340847D01*
X739945Y340633D01*
X739871Y340403D01*
X739817Y340159D01*
X739786Y339899D01*
X739775Y339624D01*
X739786Y339275D01*
X739819Y338943D01*
X739874Y338626D01*
X739951Y338326D01*
X740050Y338042D01*
X740172Y337773D01*
X740315Y337522D01*
X740480Y337286D01*
X740663Y337072D01*
X740858Y336887D01*
X741065Y336731D01*
X741285Y336603D01*
X741517Y336503D01*
X741762Y336432D01*
X742019Y336389D01*
X742289Y336375D01*
G37*
%LPD*%
G36*
X731213Y335105D02*
X730664Y335117D01*
X730145Y335154D01*
X729655Y335215D01*
X729195Y335301D01*
X728765Y335411D01*
X728364Y335546D01*
X727992Y335705D01*
X727651Y335889D01*
X727339Y336097D01*
X727057Y336330D01*
X726804Y336587D01*
X726581Y336869D01*
X726387Y337175D01*
X726223Y337505D01*
X726089Y337861D01*
X725985Y338240D01*
X727605Y338564D01*
X727685Y338296D01*
X727784Y338045D01*
X727904Y337813D01*
X728043Y337600D01*
X728202Y337405D01*
X728380Y337229D01*
X728578Y337071D01*
X728796Y336931D01*
X729034Y336809D01*
X729293Y336703D01*
X729572Y336613D01*
X729871Y336540D01*
X730191Y336483D01*
X730532Y336442D01*
X730893Y336418D01*
X731275Y336410D01*
X731668Y336419D01*
X732039Y336445D01*
X732386Y336488D01*
X732710Y336549D01*
X733011Y336627D01*
X733289Y336723D01*
X733544Y336836D01*
X733775Y336966D01*
X733982Y337113D01*
X734160Y337277D01*
X734312Y337456D01*
X734435Y337652D01*
X734532Y337865D01*
X734600Y338093D01*
X734642Y338338D01*
X734656Y338599D01*
X734638Y338887D01*
X734587Y339147D01*
X734500Y339378D01*
X734380Y339580D01*
X734228Y339761D01*
X734048Y339924D01*
X733840Y340071D01*
X733604Y340202D01*
X733343Y340320D01*
X733057Y340428D01*
X732747Y340526D01*
X732413Y340614D01*
X730881Y340973D01*
X730193Y341135D01*
X729594Y341297D01*
X729083Y341459D01*
X728660Y341621D01*
X728301Y341788D01*
X727983Y341964D01*
X727704Y342149D01*
X727465Y342344D01*
X727259Y342552D01*
X727078Y342776D01*
X726924Y343018D01*
X726795Y343277D01*
X726693Y343554D01*
X726621Y343850D01*
X726577Y344167D01*
X726563Y344503D01*
X726582Y344888D01*
X726638Y345250D01*
X726733Y345589D01*
X726866Y345906D01*
X727036Y346200D01*
X727245Y346472D01*
X727491Y346720D01*
X727776Y346946D01*
X728095Y347148D01*
X728448Y347322D01*
X728833Y347469D01*
X729250Y347590D01*
X729701Y347684D01*
X730184Y347751D01*
X730700Y347791D01*
X731248Y347805D01*
X731758Y347795D01*
X732238Y347764D01*
X732686Y347714D01*
X733103Y347644D01*
X733489Y347553D01*
X733845Y347443D01*
X734169Y347312D01*
X734463Y347161D01*
X734730Y346986D01*
X734977Y346782D01*
X735203Y346551D01*
X735409Y346291D01*
X735593Y346002D01*
X735757Y345685D01*
X735900Y345340D01*
X736022Y344967D01*
X734375Y344678D01*
X734300Y344915D01*
X734209Y345135D01*
X734103Y345338D01*
X733981Y345524D01*
X733844Y345694D01*
X733692Y345846D01*
X733525Y345982D01*
X733342Y346101D01*
X733142Y346205D01*
X732924Y346295D01*
X732688Y346371D01*
X732433Y346433D01*
X732160Y346481D01*
X731869Y346516D01*
X731559Y346537D01*
X731231Y346543D01*
X730872Y346536D01*
X730535Y346513D01*
X730219Y346475D01*
X729926Y346421D01*
X729654Y346352D01*
X729405Y346268D01*
X729177Y346168D01*
X728971Y346053D01*
X728789Y345923D01*
X728630Y345778D01*
X728496Y345617D01*
X728387Y345442D01*
X728301Y345252D01*
X728240Y345046D01*
X728204Y344826D01*
X728192Y344590D01*
X728211Y344318D01*
X728267Y344070D01*
X728362Y343847D01*
X728494Y343649D01*
X728662Y343470D01*
X728863Y343305D01*
X729097Y343154D01*
X729365Y343018D01*
X729721Y342882D01*
X730217Y342730D01*
X730855Y342564D01*
X731634Y342383D01*
X732768Y342116D01*
X733321Y341967D01*
X733850Y341792D01*
X734350Y341587D01*
X734818Y341350D01*
X735036Y341216D01*
X735239Y341067D01*
X735428Y340905D01*
X735601Y340728D01*
X735759Y340536D01*
X735898Y340327D01*
X736019Y340102D01*
X736123Y339861D01*
X736205Y339600D01*
X736264Y339318D01*
X736299Y339013D01*
X736311Y338687D01*
X736290Y338272D01*
X736227Y337881D01*
X736123Y337515D01*
X735977Y337172D01*
X735789Y336853D01*
X735560Y336559D01*
X735288Y336288D01*
X734975Y336042D01*
X734624Y335822D01*
X734239Y335632D01*
X733820Y335471D01*
X733367Y335339D01*
X732880Y335237D01*
X732358Y335163D01*
X731803Y335120D01*
X731213Y335105D01*
G37*
G36*
X661363Y246205D02*
X660814Y246217D01*
X660295Y246254D01*
X659805Y246315D01*
X659345Y246401D01*
X658915Y246511D01*
X658514Y246646D01*
X658142Y246805D01*
X657801Y246989D01*
X657489Y247197D01*
X657207Y247430D01*
X656954Y247687D01*
X656731Y247969D01*
X656537Y248275D01*
X656373Y248605D01*
X656239Y248961D01*
X656135Y249340D01*
X657755Y249664D01*
X657835Y249396D01*
X657934Y249145D01*
X658054Y248913D01*
X658193Y248700D01*
X658352Y248505D01*
X658530Y248329D01*
X658728Y248171D01*
X658946Y248031D01*
X659184Y247909D01*
X659443Y247803D01*
X659722Y247713D01*
X660021Y247640D01*
X660341Y247583D01*
X660682Y247542D01*
X661043Y247518D01*
X661425Y247510D01*
X661818Y247519D01*
X662189Y247545D01*
X662536Y247588D01*
X662860Y247649D01*
X663161Y247727D01*
X663439Y247823D01*
X663694Y247936D01*
X663925Y248066D01*
X664132Y248213D01*
X664310Y248377D01*
X664462Y248556D01*
X664585Y248752D01*
X664682Y248965D01*
X664750Y249193D01*
X664792Y249438D01*
X664806Y249699D01*
X664788Y249987D01*
X664737Y250247D01*
X664650Y250478D01*
X664530Y250680D01*
X664378Y250861D01*
X664198Y251024D01*
X663990Y251171D01*
X663754Y251302D01*
X663493Y251420D01*
X663207Y251528D01*
X662897Y251626D01*
X662563Y251714D01*
X661031Y252073D01*
X660343Y252235D01*
X659744Y252397D01*
X659233Y252559D01*
X658810Y252721D01*
X658451Y252888D01*
X658133Y253064D01*
X657854Y253249D01*
X657615Y253444D01*
X657409Y253652D01*
X657228Y253876D01*
X657074Y254118D01*
X656945Y254377D01*
X656843Y254654D01*
X656771Y254950D01*
X656727Y255267D01*
X656713Y255603D01*
X656732Y255988D01*
X656788Y256350D01*
X656883Y256689D01*
X657016Y257006D01*
X657186Y257300D01*
X657395Y257572D01*
X657641Y257820D01*
X657926Y258046D01*
X658245Y258248D01*
X658598Y258422D01*
X658983Y258569D01*
X659400Y258690D01*
X659851Y258784D01*
X660334Y258851D01*
X660850Y258891D01*
X661398Y258905D01*
X661908Y258895D01*
X662388Y258864D01*
X662836Y258814D01*
X663253Y258744D01*
X663639Y258653D01*
X663995Y258543D01*
X664319Y258412D01*
X664613Y258261D01*
X664880Y258086D01*
X665127Y257882D01*
X665353Y257651D01*
X665559Y257391D01*
X665743Y257102D01*
X665907Y256785D01*
X666050Y256440D01*
X666172Y256067D01*
X664525Y255778D01*
X664450Y256015D01*
X664359Y256235D01*
X664253Y256438D01*
X664131Y256624D01*
X663994Y256794D01*
X663842Y256946D01*
X663675Y257082D01*
X663492Y257201D01*
X663292Y257305D01*
X663074Y257395D01*
X662838Y257471D01*
X662583Y257533D01*
X662310Y257581D01*
X662019Y257616D01*
X661709Y257637D01*
X661381Y257643D01*
X661022Y257636D01*
X660685Y257613D01*
X660369Y257575D01*
X660076Y257521D01*
X659804Y257452D01*
X659555Y257368D01*
X659327Y257268D01*
X659121Y257153D01*
X658939Y257023D01*
X658780Y256878D01*
X658646Y256717D01*
X658537Y256542D01*
X658451Y256352D01*
X658390Y256146D01*
X658354Y255926D01*
X658342Y255690D01*
X658361Y255418D01*
X658417Y255170D01*
X658512Y254947D01*
X658644Y254749D01*
X658812Y254570D01*
X659013Y254405D01*
X659247Y254254D01*
X659515Y254118D01*
X659871Y253982D01*
X660367Y253830D01*
X661005Y253664D01*
X661784Y253483D01*
X662918Y253216D01*
X663471Y253067D01*
X664000Y252892D01*
X664500Y252687D01*
X664968Y252450D01*
X665186Y252316D01*
X665389Y252167D01*
X665578Y252005D01*
X665751Y251828D01*
X665909Y251636D01*
X666048Y251427D01*
X666169Y251202D01*
X666273Y250961D01*
X666355Y250700D01*
X666414Y250418D01*
X666449Y250113D01*
X666461Y249787D01*
X666440Y249372D01*
X666377Y248981D01*
X666273Y248615D01*
X666127Y248272D01*
X665939Y247953D01*
X665710Y247659D01*
X665438Y247388D01*
X665125Y247142D01*
X664774Y246922D01*
X664389Y246732D01*
X663970Y246571D01*
X663517Y246439D01*
X663030Y246337D01*
X662508Y246263D01*
X661953Y246220D01*
X661363Y246205D01*
G37*
G36*
X672132Y246380D02*
X670486Y246380D01*
X670501Y246975D01*
X670548Y247578D01*
X670627Y248189D01*
X670736Y248807D01*
X670877Y249434D01*
X671050Y250068D01*
X671253Y250710D01*
X671488Y251359D01*
X671760Y252025D01*
X672074Y252716D01*
X672430Y253432D01*
X672827Y254172D01*
X673267Y254937D01*
X673749Y255727D01*
X674273Y256541D01*
X674839Y257381D01*
X668208Y257381D01*
X668208Y258721D01*
X676363Y258721D01*
X676363Y257442D01*
X675486Y256075D01*
X674749Y254865D01*
X674151Y253811D01*
X673691Y252914D01*
X673326Y252098D01*
X673009Y251287D01*
X672741Y250482D01*
X672522Y249682D01*
X672351Y248878D01*
X672230Y248059D01*
X672157Y247227D01*
X672138Y246805D01*
X672132Y246380D01*
G37*
G36*
X818331Y246205D02*
X817850Y246220D01*
X817395Y246263D01*
X816968Y246337D01*
X816567Y246439D01*
X816194Y246571D01*
X815847Y246732D01*
X815528Y246922D01*
X815235Y247142D01*
X814973Y247389D01*
X814746Y247660D01*
X814554Y247956D01*
X814397Y248276D01*
X814275Y248621D01*
X814188Y248991D01*
X814136Y249386D01*
X814118Y249805D01*
X814129Y250101D01*
X814162Y250385D01*
X814216Y250657D01*
X814291Y250917D01*
X814389Y251165D01*
X814507Y251401D01*
X814648Y251625D01*
X814810Y251837D01*
X814989Y252032D01*
X815180Y252208D01*
X815383Y252363D01*
X815598Y252498D01*
X815826Y252613D01*
X816065Y252707D01*
X816316Y252781D01*
X816579Y252835D01*
X816579Y252870D01*
X816334Y252938D01*
X816102Y253023D01*
X815884Y253125D01*
X815678Y253245D01*
X815486Y253381D01*
X815308Y253535D01*
X815142Y253706D01*
X814990Y253895D01*
X814853Y254096D01*
X814735Y254306D01*
X814635Y254524D01*
X814553Y254751D01*
X814489Y254986D01*
X814444Y255230D01*
X814416Y255482D01*
X814407Y255743D01*
X814424Y256087D01*
X814473Y256415D01*
X814556Y256725D01*
X814671Y257019D01*
X814820Y257297D01*
X815001Y257558D01*
X815215Y257802D01*
X815463Y258029D01*
X815738Y258234D01*
X816036Y258412D01*
X816356Y258563D01*
X816699Y258686D01*
X817064Y258782D01*
X817452Y258850D01*
X817863Y258891D01*
X818296Y258905D01*
X818740Y258891D01*
X819159Y258851D01*
X819555Y258784D01*
X819926Y258690D01*
X820274Y258569D01*
X820598Y258422D01*
X820897Y258248D01*
X821173Y258046D01*
X821421Y257822D01*
X821635Y257579D01*
X821816Y257318D01*
X821965Y257037D01*
X822080Y256737D01*
X822163Y256419D01*
X822212Y256082D01*
X822229Y255725D01*
X822220Y255465D01*
X822192Y255212D01*
X822146Y254969D01*
X822082Y254733D01*
X821999Y254507D01*
X821899Y254288D01*
X821779Y254079D01*
X821642Y253877D01*
X821488Y253689D01*
X821322Y253520D01*
X821304Y253505D01*
X821141Y253369D01*
X820948Y253236D01*
X820741Y253121D01*
X820520Y253025D01*
X820286Y252947D01*
X820039Y252888D01*
X820039Y252853D01*
X820326Y252795D01*
X820597Y252718D01*
X820852Y252621D01*
X821090Y252506D01*
X821312Y252371D01*
X821517Y252216D01*
X821706Y252043D01*
X821845Y251887D01*
X821878Y251850D01*
X822032Y251641D01*
X822166Y251419D01*
X822279Y251185D01*
X822371Y250938D01*
X822443Y250678D01*
X822494Y250405D01*
X822525Y250120D01*
X822535Y249822D01*
X822518Y249407D01*
X822467Y249015D01*
X822382Y248647D01*
X822264Y248303D01*
X822111Y247981D01*
X821924Y247684D01*
X821704Y247410D01*
X821449Y247160D01*
X821163Y246936D01*
X820847Y246742D01*
X820502Y246578D01*
X820127Y246443D01*
X819722Y246339D01*
X819288Y246265D01*
X818824Y246220D01*
X818331Y246205D01*
G37*
%LPC*%
G36*
X818349Y247387D02*
X818660Y247397D01*
X818951Y247426D01*
X819222Y247474D01*
X819472Y247542D01*
X819701Y247628D01*
X819910Y247735D01*
X820099Y247860D01*
X820267Y248005D01*
X820415Y248171D01*
X820543Y248359D01*
X820651Y248571D01*
X820740Y248805D01*
X820809Y249062D01*
X820858Y249342D01*
X820888Y249645D01*
X820897Y249971D01*
X820887Y250249D01*
X820855Y250509D01*
X820801Y250752D01*
X820727Y250977D01*
X820631Y251185D01*
X820513Y251374D01*
X820374Y251546D01*
X820214Y251701D01*
X820035Y251837D01*
X819838Y251956D01*
X819624Y252056D01*
X819393Y252138D01*
X819145Y252201D01*
X818879Y252247D01*
X818596Y252274D01*
X818296Y252283D01*
X818004Y252273D01*
X817729Y252244D01*
X817470Y252195D01*
X817228Y252127D01*
X817001Y252039D01*
X816792Y251931D01*
X816599Y251804D01*
X816422Y251657D01*
X816264Y251493D01*
X816127Y251315D01*
X816011Y251121D01*
X815916Y250914D01*
X815842Y250691D01*
X815790Y250454D01*
X815758Y250202D01*
X815747Y249936D01*
X815758Y249627D01*
X815788Y249339D01*
X815839Y249070D01*
X815910Y248821D01*
X816001Y248592D01*
X816113Y248383D01*
X816245Y248194D01*
X816398Y248024D01*
X816570Y247875D01*
X816763Y247746D01*
X816977Y247636D01*
X817211Y247547D01*
X817465Y247477D01*
X817739Y247427D01*
X818034Y247397D01*
X818349Y247387D01*
G37*
G36*
X818314Y253466D02*
X818583Y253474D01*
X818837Y253498D01*
X819073Y253538D01*
X819293Y253594D01*
X819497Y253666D01*
X819684Y253754D01*
X819854Y253858D01*
X820008Y253978D01*
X820145Y254116D01*
X820263Y254274D01*
X820363Y254452D01*
X820445Y254649D01*
X820509Y254867D01*
X820554Y255104D01*
X820582Y255361D01*
X820591Y255638D01*
X820582Y255891D01*
X820555Y256128D01*
X820510Y256349D01*
X820447Y256554D01*
X820367Y256742D01*
X820268Y256913D01*
X820152Y257069D01*
X820017Y257208D01*
X819865Y257330D01*
X819694Y257437D01*
X819506Y257527D01*
X819300Y257600D01*
X819076Y257657D01*
X818834Y257698D01*
X818574Y257723D01*
X818296Y257731D01*
X818026Y257723D01*
X817773Y257698D01*
X817536Y257657D01*
X817316Y257600D01*
X817113Y257526D01*
X816926Y257435D01*
X816755Y257329D01*
X816601Y257206D01*
X816465Y257066D01*
X816346Y256911D01*
X816246Y256739D01*
X816164Y256551D01*
X816101Y256347D01*
X816055Y256127D01*
X816028Y255890D01*
X816019Y255638D01*
X816028Y255381D01*
X816056Y255139D01*
X816103Y254914D01*
X816169Y254704D01*
X816253Y254510D01*
X816356Y254331D01*
X816478Y254169D01*
X816619Y254022D01*
X816777Y253891D01*
X816950Y253779D01*
X817138Y253683D01*
X817342Y253605D01*
X817562Y253544D01*
X817797Y253500D01*
X818048Y253474D01*
X818314Y253466D01*
G37*
%LPD*%
G36*
X807413Y246205D02*
X806864Y246217D01*
X806345Y246254D01*
X805855Y246315D01*
X805395Y246401D01*
X804965Y246511D01*
X804564Y246646D01*
X804192Y246805D01*
X803851Y246989D01*
X803539Y247197D01*
X803257Y247430D01*
X803004Y247687D01*
X802781Y247969D01*
X802587Y248275D01*
X802423Y248605D01*
X802289Y248961D01*
X802185Y249340D01*
X803805Y249664D01*
X803885Y249396D01*
X803984Y249145D01*
X804104Y248913D01*
X804243Y248700D01*
X804402Y248505D01*
X804580Y248329D01*
X804778Y248171D01*
X804996Y248031D01*
X805234Y247909D01*
X805493Y247803D01*
X805772Y247713D01*
X806071Y247640D01*
X806391Y247583D01*
X806732Y247542D01*
X807093Y247518D01*
X807475Y247510D01*
X807868Y247519D01*
X808239Y247545D01*
X808586Y247588D01*
X808910Y247649D01*
X809211Y247727D01*
X809489Y247823D01*
X809744Y247936D01*
X809975Y248066D01*
X810182Y248213D01*
X810360Y248377D01*
X810512Y248556D01*
X810635Y248752D01*
X810732Y248965D01*
X810800Y249193D01*
X810842Y249438D01*
X810856Y249699D01*
X810838Y249987D01*
X810787Y250247D01*
X810700Y250478D01*
X810580Y250680D01*
X810428Y250861D01*
X810248Y251024D01*
X810040Y251171D01*
X809804Y251302D01*
X809543Y251420D01*
X809257Y251528D01*
X808947Y251626D01*
X808613Y251714D01*
X807081Y252073D01*
X806393Y252235D01*
X805794Y252397D01*
X805283Y252559D01*
X804860Y252721D01*
X804501Y252888D01*
X804183Y253064D01*
X803904Y253249D01*
X803665Y253444D01*
X803459Y253652D01*
X803278Y253876D01*
X803124Y254118D01*
X802995Y254377D01*
X802893Y254654D01*
X802821Y254950D01*
X802777Y255267D01*
X802763Y255603D01*
X802782Y255988D01*
X802838Y256350D01*
X802933Y256689D01*
X803066Y257006D01*
X803236Y257300D01*
X803445Y257572D01*
X803691Y257820D01*
X803976Y258046D01*
X804295Y258248D01*
X804648Y258422D01*
X805033Y258569D01*
X805450Y258690D01*
X805901Y258784D01*
X806384Y258851D01*
X806900Y258891D01*
X807448Y258905D01*
X807958Y258895D01*
X808438Y258864D01*
X808886Y258814D01*
X809303Y258744D01*
X809689Y258653D01*
X810045Y258543D01*
X810369Y258412D01*
X810663Y258261D01*
X810930Y258086D01*
X811177Y257882D01*
X811403Y257651D01*
X811609Y257391D01*
X811793Y257102D01*
X811957Y256785D01*
X812100Y256440D01*
X812222Y256067D01*
X810575Y255778D01*
X810500Y256015D01*
X810409Y256235D01*
X810303Y256438D01*
X810181Y256624D01*
X810044Y256794D01*
X809892Y256946D01*
X809725Y257082D01*
X809542Y257201D01*
X809342Y257305D01*
X809124Y257395D01*
X808888Y257471D01*
X808633Y257533D01*
X808360Y257581D01*
X808069Y257616D01*
X807759Y257637D01*
X807431Y257643D01*
X807072Y257636D01*
X806735Y257613D01*
X806419Y257575D01*
X806126Y257521D01*
X805854Y257452D01*
X805605Y257368D01*
X805377Y257268D01*
X805171Y257153D01*
X804989Y257023D01*
X804830Y256878D01*
X804696Y256717D01*
X804587Y256542D01*
X804501Y256352D01*
X804440Y256146D01*
X804404Y255926D01*
X804392Y255690D01*
X804411Y255418D01*
X804467Y255170D01*
X804562Y254947D01*
X804694Y254749D01*
X804862Y254570D01*
X805063Y254405D01*
X805297Y254254D01*
X805565Y254118D01*
X805921Y253982D01*
X806417Y253830D01*
X807055Y253664D01*
X807834Y253483D01*
X808968Y253216D01*
X809521Y253067D01*
X810050Y252892D01*
X810550Y252687D01*
X811018Y252450D01*
X811236Y252316D01*
X811439Y252167D01*
X811628Y252005D01*
X811801Y251828D01*
X811959Y251636D01*
X812098Y251427D01*
X812219Y251202D01*
X812323Y250961D01*
X812405Y250700D01*
X812464Y250418D01*
X812499Y250113D01*
X812511Y249787D01*
X812490Y249372D01*
X812427Y248981D01*
X812323Y248615D01*
X812177Y248272D01*
X811989Y247953D01*
X811760Y247659D01*
X811488Y247388D01*
X811175Y247142D01*
X810824Y246922D01*
X810439Y246732D01*
X810020Y246571D01*
X809567Y246439D01*
X809080Y246337D01*
X808558Y246263D01*
X808003Y246220D01*
X807413Y246205D01*
G37*
G36*
X748148Y163655D02*
X747796Y163664D01*
X747462Y163693D01*
X747145Y163740D01*
X746847Y163807D01*
X746566Y163893D01*
X746303Y163997D01*
X746058Y164121D01*
X745832Y164264D01*
X745622Y164427D01*
X745427Y164615D01*
X745248Y164825D01*
X745084Y165059D01*
X744936Y165317D01*
X744803Y165598D01*
X744685Y165902D01*
X744584Y166230D01*
X746090Y166466D01*
X746226Y166105D01*
X746398Y165792D01*
X746605Y165527D01*
X746848Y165310D01*
X747126Y165142D01*
X747440Y165021D01*
X747789Y164949D01*
X747978Y164931D01*
X748175Y164925D01*
X748504Y164945D01*
X748815Y165004D01*
X749107Y165102D01*
X749379Y165240D01*
X749632Y165417D01*
X749866Y165634D01*
X750081Y165890D01*
X750277Y166186D01*
X750452Y166518D01*
X750605Y166884D01*
X750735Y167283D01*
X750844Y167717D01*
X750930Y168183D01*
X750994Y168684D01*
X751036Y169218D01*
X751056Y169786D01*
X750961Y169594D01*
X750850Y169411D01*
X750723Y169238D01*
X750581Y169075D01*
X750423Y168922D01*
X750250Y168778D01*
X750061Y168644D01*
X749856Y168520D01*
X749641Y168408D01*
X749421Y168311D01*
X749196Y168229D01*
X748965Y168162D01*
X748729Y168110D01*
X748488Y168073D01*
X748242Y168050D01*
X747991Y168043D01*
X747585Y168061D01*
X747200Y168114D01*
X746836Y168203D01*
X746493Y168328D01*
X746171Y168488D01*
X745869Y168683D01*
X745588Y168915D01*
X745328Y169181D01*
X745094Y169478D01*
X744891Y169797D01*
X744720Y170140D01*
X744579Y170506D01*
X744470Y170896D01*
X744392Y171308D01*
X744345Y171744D01*
X744330Y172203D01*
X744347Y172674D01*
X744397Y173119D01*
X744482Y173539D01*
X744601Y173932D01*
X744754Y174299D01*
X744940Y174641D01*
X745161Y174957D01*
X745416Y175247D01*
X745700Y175506D01*
X746012Y175731D01*
X746350Y175922D01*
X746714Y176078D01*
X747105Y176199D01*
X747523Y176285D01*
X747967Y176337D01*
X748437Y176355D01*
X748691Y176349D01*
X748936Y176331D01*
X749404Y176259D01*
X749841Y176140D01*
X750246Y175974D01*
X750620Y175759D01*
X750963Y175497D01*
X751275Y175188D01*
X751555Y174831D01*
X751804Y174426D01*
X752019Y173973D01*
X752201Y173472D01*
X752350Y172924D01*
X752466Y172327D01*
X752549Y171683D01*
X752599Y170990D01*
X752615Y170250D01*
X752597Y169478D01*
X752543Y168752D01*
X752452Y168072D01*
X752325Y167439D01*
X752162Y166851D01*
X751962Y166309D01*
X751727Y165813D01*
X751455Y165363D01*
X751149Y164962D01*
X750813Y164616D01*
X750446Y164322D01*
X750048Y164082D01*
X749619Y163895D01*
X749393Y163822D01*
X749160Y163762D01*
X748918Y163715D01*
X748669Y163682D01*
X748413Y163662D01*
X748148Y163655D01*
G37*
%LPC*%
G36*
X748367Y169287D02*
X748703Y169306D01*
X749026Y169364D01*
X749338Y169461D01*
X749637Y169598D01*
X749915Y169769D01*
X750162Y169973D01*
X750377Y170209D01*
X750561Y170478D01*
X750709Y170772D01*
X750814Y171086D01*
X750877Y171420D01*
X750898Y171774D01*
X750888Y172137D01*
X750856Y172482D01*
X750802Y172809D01*
X750728Y173117D01*
X750632Y173408D01*
X750514Y173680D01*
X750375Y173934D01*
X750215Y174169D01*
X750037Y174382D01*
X749845Y174566D01*
X749638Y174722D01*
X749416Y174849D01*
X749180Y174948D01*
X748929Y175019D01*
X748664Y175062D01*
X748385Y175076D01*
X748108Y175064D01*
X747846Y175028D01*
X747599Y174967D01*
X747367Y174882D01*
X747150Y174773D01*
X746948Y174640D01*
X746761Y174483D01*
X746589Y174301D01*
X746435Y174099D01*
X746302Y173879D01*
X746189Y173643D01*
X746097Y173389D01*
X746025Y173118D01*
X745973Y172830D01*
X745943Y172525D01*
X745932Y172203D01*
X745943Y171875D01*
X745973Y171564D01*
X746025Y171271D01*
X746097Y170996D01*
X746189Y170738D01*
X746302Y170498D01*
X746435Y170275D01*
X746589Y170070D01*
X746761Y169887D01*
X746947Y169728D01*
X747147Y169593D01*
X747362Y169483D01*
X747592Y169397D01*
X747836Y169336D01*
X748094Y169299D01*
X748367Y169287D01*
G37*
%LPD*%
G36*
X737563Y163655D02*
X737014Y163667D01*
X736495Y163704D01*
X736005Y163765D01*
X735545Y163851D01*
X735115Y163961D01*
X734714Y164096D01*
X734342Y164255D01*
X734001Y164439D01*
X733689Y164647D01*
X733407Y164880D01*
X733154Y165137D01*
X732931Y165419D01*
X732737Y165725D01*
X732573Y166055D01*
X732439Y166411D01*
X732335Y166790D01*
X733955Y167114D01*
X734035Y166846D01*
X734134Y166595D01*
X734254Y166363D01*
X734393Y166150D01*
X734552Y165955D01*
X734730Y165779D01*
X734928Y165621D01*
X735146Y165481D01*
X735384Y165359D01*
X735643Y165253D01*
X735922Y165163D01*
X736221Y165090D01*
X736541Y165033D01*
X736882Y164992D01*
X737243Y164968D01*
X737625Y164960D01*
X738018Y164969D01*
X738389Y164995D01*
X738736Y165038D01*
X739060Y165099D01*
X739361Y165177D01*
X739639Y165273D01*
X739894Y165386D01*
X740125Y165516D01*
X740332Y165663D01*
X740510Y165827D01*
X740662Y166006D01*
X740785Y166202D01*
X740882Y166415D01*
X740950Y166643D01*
X740992Y166888D01*
X741006Y167149D01*
X740988Y167437D01*
X740937Y167697D01*
X740850Y167928D01*
X740730Y168130D01*
X740578Y168311D01*
X740398Y168474D01*
X740190Y168621D01*
X739954Y168752D01*
X739693Y168870D01*
X739407Y168978D01*
X739097Y169076D01*
X738763Y169164D01*
X737231Y169523D01*
X736543Y169685D01*
X735944Y169847D01*
X735433Y170009D01*
X735010Y170171D01*
X734651Y170338D01*
X734333Y170514D01*
X734054Y170699D01*
X733815Y170894D01*
X733609Y171102D01*
X733428Y171326D01*
X733274Y171568D01*
X733145Y171827D01*
X733043Y172104D01*
X732971Y172400D01*
X732927Y172717D01*
X732913Y173053D01*
X732932Y173438D01*
X732988Y173800D01*
X733083Y174139D01*
X733216Y174456D01*
X733386Y174750D01*
X733595Y175022D01*
X733841Y175270D01*
X734126Y175496D01*
X734445Y175698D01*
X734798Y175872D01*
X735183Y176019D01*
X735600Y176140D01*
X736051Y176234D01*
X736534Y176301D01*
X737050Y176341D01*
X737598Y176355D01*
X738108Y176345D01*
X738588Y176314D01*
X739036Y176264D01*
X739453Y176194D01*
X739839Y176103D01*
X740195Y175993D01*
X740519Y175862D01*
X740813Y175711D01*
X741080Y175536D01*
X741327Y175332D01*
X741553Y175101D01*
X741759Y174841D01*
X741943Y174552D01*
X742107Y174235D01*
X742250Y173890D01*
X742372Y173517D01*
X740725Y173228D01*
X740650Y173465D01*
X740559Y173685D01*
X740453Y173888D01*
X740331Y174074D01*
X740194Y174244D01*
X740042Y174396D01*
X739875Y174532D01*
X739692Y174651D01*
X739492Y174755D01*
X739274Y174845D01*
X739038Y174921D01*
X738783Y174983D01*
X738510Y175031D01*
X738219Y175066D01*
X737909Y175087D01*
X737581Y175093D01*
X737222Y175086D01*
X736885Y175063D01*
X736569Y175025D01*
X736276Y174971D01*
X736004Y174902D01*
X735755Y174818D01*
X735527Y174718D01*
X735321Y174603D01*
X735139Y174473D01*
X734980Y174328D01*
X734846Y174167D01*
X734737Y173992D01*
X734651Y173802D01*
X734590Y173596D01*
X734554Y173376D01*
X734542Y173140D01*
X734561Y172868D01*
X734617Y172620D01*
X734712Y172397D01*
X734844Y172199D01*
X735012Y172020D01*
X735213Y171855D01*
X735447Y171704D01*
X735715Y171568D01*
X736071Y171432D01*
X736567Y171280D01*
X737205Y171114D01*
X737984Y170933D01*
X739118Y170666D01*
X739671Y170517D01*
X740200Y170342D01*
X740700Y170137D01*
X741168Y169900D01*
X741386Y169766D01*
X741589Y169617D01*
X741778Y169455D01*
X741951Y169278D01*
X742109Y169086D01*
X742248Y168877D01*
X742369Y168652D01*
X742473Y168411D01*
X742555Y168150D01*
X742614Y167868D01*
X742649Y167563D01*
X742661Y167237D01*
X742640Y166822D01*
X742577Y166431D01*
X742473Y166065D01*
X742327Y165722D01*
X742139Y165403D01*
X741910Y165109D01*
X741638Y164838D01*
X741325Y164592D01*
X740974Y164372D01*
X740589Y164182D01*
X740170Y164021D01*
X739717Y163889D01*
X739230Y163787D01*
X738708Y163713D01*
X738153Y163670D01*
X737563Y163655D01*
G37*
G36*
X40640Y325523D02*
X34229Y330217D01*
X28299Y325882D01*
X28299Y327730D01*
X33143Y331163D01*
X28299Y334500D01*
X28299Y336348D01*
X34167Y332127D01*
X40640Y336708D01*
X40640Y334860D01*
X35245Y331155D01*
X40640Y327371D01*
X40640Y325523D01*
G37*
G36*
X40640Y338455D02*
X39300Y338455D01*
X39300Y341599D01*
X29806Y341599D01*
X31794Y338814D01*
X30305Y338814D01*
X28299Y341731D01*
X28299Y343185D01*
X39300Y343185D01*
X39300Y346189D01*
X40640Y346189D01*
X40640Y338455D01*
G37*
D10*
X429900Y829150D02*
X509900Y829150D01*
X509900Y809150D01*
X429900Y809150D01*
X429900Y829150D01*
D11*
X439180Y802960D02*
X439182Y803023D01*
X439188Y803085D01*
X439198Y803147D01*
X439211Y803209D01*
X439229Y803269D01*
X439250Y803328D01*
X439275Y803386D01*
X439304Y803442D01*
X439336Y803496D01*
X439371Y803548D01*
X439409Y803597D01*
X439451Y803645D01*
X439495Y803689D01*
X439543Y803731D01*
X439592Y803769D01*
X439644Y803804D01*
X439698Y803836D01*
X439754Y803865D01*
X439812Y803890D01*
X439871Y803911D01*
X439931Y803929D01*
X439993Y803942D01*
X440055Y803952D01*
X440117Y803958D01*
X440180Y803960D01*
X440243Y803958D01*
X440305Y803952D01*
X440367Y803942D01*
X440429Y803929D01*
X440489Y803911D01*
X440548Y803890D01*
X440606Y803865D01*
X440662Y803836D01*
X440716Y803804D01*
X440768Y803769D01*
X440817Y803731D01*
X440865Y803689D01*
X440909Y803645D01*
X440951Y803597D01*
X440989Y803548D01*
X441024Y803496D01*
X441056Y803442D01*
X441085Y803386D01*
X441110Y803328D01*
X441131Y803269D01*
X441149Y803209D01*
X441162Y803147D01*
X441172Y803085D01*
X441178Y803023D01*
X441180Y802960D01*
X441178Y802897D01*
X441172Y802835D01*
X441162Y802773D01*
X441149Y802711D01*
X441131Y802651D01*
X441110Y802592D01*
X441085Y802534D01*
X441056Y802478D01*
X441024Y802424D01*
X440989Y802372D01*
X440951Y802323D01*
X440909Y802275D01*
X440865Y802231D01*
X440817Y802189D01*
X440768Y802151D01*
X440716Y802116D01*
X440662Y802084D01*
X440606Y802055D01*
X440548Y802030D01*
X440489Y802009D01*
X440429Y801991D01*
X440367Y801978D01*
X440305Y801968D01*
X440243Y801962D01*
X440180Y801960D01*
X440117Y801962D01*
X440055Y801968D01*
X439993Y801978D01*
X439931Y801991D01*
X439871Y802009D01*
X439812Y802030D01*
X439754Y802055D01*
X439698Y802084D01*
X439644Y802116D01*
X439592Y802151D01*
X439543Y802189D01*
X439495Y802231D01*
X439451Y802275D01*
X439409Y802323D01*
X439371Y802372D01*
X439336Y802424D01*
X439304Y802478D01*
X439275Y802534D01*
X439250Y802592D01*
X439229Y802651D01*
X439211Y802711D01*
X439198Y802773D01*
X439188Y802835D01*
X439182Y802897D01*
X439180Y802960D01*
D12*
X140970Y196850D02*
X140975Y197286D01*
X140991Y197722D01*
X141018Y198158D01*
X141056Y198593D01*
X141104Y199026D01*
X141162Y199459D01*
X141232Y199890D01*
X141312Y200319D01*
X141402Y200746D01*
X141503Y201170D01*
X141614Y201592D01*
X141736Y202011D01*
X141867Y202427D01*
X142009Y202840D01*
X142161Y203249D01*
X142323Y203654D01*
X142495Y204055D01*
X142677Y204452D01*
X142868Y204844D01*
X143069Y205231D01*
X143280Y205614D01*
X143500Y205991D01*
X143729Y206362D01*
X143966Y206728D01*
X144213Y207088D01*
X144469Y207442D01*
X144733Y207789D01*
X145006Y208130D01*
X145287Y208463D01*
X145576Y208790D01*
X145873Y209110D01*
X146178Y209422D01*
X146490Y209727D01*
X146810Y210024D01*
X147137Y210313D01*
X147470Y210594D01*
X147811Y210867D01*
X148158Y211131D01*
X148512Y211387D01*
X148872Y211634D01*
X149238Y211871D01*
X149609Y212100D01*
X149986Y212320D01*
X150369Y212531D01*
X150756Y212732D01*
X151148Y212923D01*
X151545Y213105D01*
X151946Y213277D01*
X152351Y213439D01*
X152760Y213591D01*
X153173Y213733D01*
X153589Y213864D01*
X154008Y213986D01*
X154430Y214097D01*
X154854Y214198D01*
X155281Y214288D01*
X155710Y214368D01*
X156141Y214438D01*
X156574Y214496D01*
X157007Y214544D01*
X157442Y214582D01*
X157878Y214609D01*
X158314Y214625D01*
X158750Y214630D01*
X159186Y214625D01*
X159622Y214609D01*
X160058Y214582D01*
X160493Y214544D01*
X160926Y214496D01*
X161359Y214438D01*
X161790Y214368D01*
X162219Y214288D01*
X162646Y214198D01*
X163070Y214097D01*
X163492Y213986D01*
X163911Y213864D01*
X164327Y213733D01*
X164740Y213591D01*
X165149Y213439D01*
X165554Y213277D01*
X165955Y213105D01*
X166352Y212923D01*
X166744Y212732D01*
X167131Y212531D01*
X167514Y212320D01*
X167891Y212100D01*
X168262Y211871D01*
X168628Y211634D01*
X168988Y211387D01*
X169342Y211131D01*
X169689Y210867D01*
X170030Y210594D01*
X170363Y210313D01*
X170690Y210024D01*
X171010Y209727D01*
X171322Y209422D01*
X171627Y209110D01*
X171924Y208790D01*
X172213Y208463D01*
X172494Y208130D01*
X172767Y207789D01*
X173031Y207442D01*
X173287Y207088D01*
X173534Y206728D01*
X173771Y206362D01*
X174000Y205991D01*
X174220Y205614D01*
X174431Y205231D01*
X174632Y204844D01*
X174823Y204452D01*
X175005Y204055D01*
X175177Y203654D01*
X175339Y203249D01*
X175491Y202840D01*
X175633Y202427D01*
X175764Y202011D01*
X175886Y201592D01*
X175997Y201170D01*
X176098Y200746D01*
X176188Y200319D01*
X176268Y199890D01*
X176338Y199459D01*
X176396Y199026D01*
X176444Y198593D01*
X176482Y198158D01*
X176509Y197722D01*
X176525Y197286D01*
X176530Y196850D01*
X176525Y196414D01*
X176509Y195978D01*
X176482Y195542D01*
X176444Y195107D01*
X176396Y194674D01*
X176338Y194241D01*
X176268Y193810D01*
X176188Y193381D01*
X176098Y192954D01*
X175997Y192530D01*
X175886Y192108D01*
X175764Y191689D01*
X175633Y191273D01*
X175491Y190860D01*
X175339Y190451D01*
X175177Y190046D01*
X175005Y189645D01*
X174823Y189248D01*
X174632Y188856D01*
X174431Y188469D01*
X174220Y188086D01*
X174000Y187709D01*
X173771Y187338D01*
X173534Y186972D01*
X173287Y186612D01*
X173031Y186258D01*
X172767Y185911D01*
X172494Y185570D01*
X172213Y185237D01*
X171924Y184910D01*
X171627Y184590D01*
X171322Y184278D01*
X171010Y183973D01*
X170690Y183676D01*
X170363Y183387D01*
X170030Y183106D01*
X169689Y182833D01*
X169342Y182569D01*
X168988Y182313D01*
X168628Y182066D01*
X168262Y181829D01*
X167891Y181600D01*
X167514Y181380D01*
X167131Y181169D01*
X166744Y180968D01*
X166352Y180777D01*
X165955Y180595D01*
X165554Y180423D01*
X165149Y180261D01*
X164740Y180109D01*
X164327Y179967D01*
X163911Y179836D01*
X163492Y179714D01*
X163070Y179603D01*
X162646Y179502D01*
X162219Y179412D01*
X161790Y179332D01*
X161359Y179262D01*
X160926Y179204D01*
X160493Y179156D01*
X160058Y179118D01*
X159622Y179091D01*
X159186Y179075D01*
X158750Y179070D01*
X158314Y179075D01*
X157878Y179091D01*
X157442Y179118D01*
X157007Y179156D01*
X156574Y179204D01*
X156141Y179262D01*
X155710Y179332D01*
X155281Y179412D01*
X154854Y179502D01*
X154430Y179603D01*
X154008Y179714D01*
X153589Y179836D01*
X153173Y179967D01*
X152760Y180109D01*
X152351Y180261D01*
X151946Y180423D01*
X151545Y180595D01*
X151148Y180777D01*
X150756Y180968D01*
X150369Y181169D01*
X149986Y181380D01*
X149609Y181600D01*
X149238Y181829D01*
X148872Y182066D01*
X148512Y182313D01*
X148158Y182569D01*
X147811Y182833D01*
X147470Y183106D01*
X147137Y183387D01*
X146810Y183676D01*
X146490Y183973D01*
X146178Y184278D01*
X145873Y184590D01*
X145576Y184910D01*
X145287Y185237D01*
X145006Y185570D01*
X144733Y185911D01*
X144469Y186258D01*
X144213Y186612D01*
X143966Y186972D01*
X143729Y187338D01*
X143500Y187709D01*
X143280Y188086D01*
X143069Y188469D01*
X142868Y188856D01*
X142677Y189248D01*
X142495Y189645D01*
X142323Y190046D01*
X142161Y190451D01*
X142009Y190860D01*
X141867Y191273D01*
X141736Y191689D01*
X141614Y192108D01*
X141503Y192530D01*
X141402Y192954D01*
X141312Y193381D01*
X141232Y193810D01*
X141162Y194241D01*
X141104Y194674D01*
X141056Y195107D01*
X141018Y195542D01*
X140991Y195978D01*
X140975Y196414D01*
X140970Y196850D01*
X156210Y196850D02*
X156212Y196950D01*
X156218Y197051D01*
X156228Y197150D01*
X156242Y197250D01*
X156259Y197349D01*
X156281Y197447D01*
X156307Y197544D01*
X156336Y197640D01*
X156369Y197734D01*
X156406Y197828D01*
X156446Y197920D01*
X156490Y198010D01*
X156538Y198098D01*
X156589Y198185D01*
X156643Y198269D01*
X156701Y198351D01*
X156762Y198431D01*
X156826Y198508D01*
X156893Y198583D01*
X156963Y198655D01*
X157036Y198724D01*
X157111Y198790D01*
X157189Y198854D01*
X157269Y198914D01*
X157352Y198971D01*
X157437Y199024D01*
X157524Y199074D01*
X157613Y199121D01*
X157703Y199164D01*
X157795Y199204D01*
X157889Y199240D01*
X157984Y199272D01*
X158080Y199300D01*
X158178Y199325D01*
X158276Y199345D01*
X158375Y199362D01*
X158475Y199375D01*
X158574Y199384D01*
X158675Y199389D01*
X158775Y199390D01*
X158875Y199387D01*
X158976Y199380D01*
X159075Y199369D01*
X159175Y199354D01*
X159273Y199336D01*
X159371Y199313D01*
X159468Y199286D01*
X159563Y199256D01*
X159658Y199222D01*
X159751Y199184D01*
X159842Y199143D01*
X159932Y199098D01*
X160020Y199050D01*
X160106Y198998D01*
X160190Y198943D01*
X160271Y198884D01*
X160350Y198822D01*
X160427Y198758D01*
X160501Y198690D01*
X160572Y198619D01*
X160641Y198546D01*
X160706Y198470D01*
X160769Y198391D01*
X160828Y198310D01*
X160884Y198227D01*
X160937Y198142D01*
X160986Y198054D01*
X161032Y197965D01*
X161074Y197874D01*
X161113Y197781D01*
X161148Y197687D01*
X161179Y197592D01*
X161207Y197495D01*
X161230Y197398D01*
X161250Y197299D01*
X161266Y197200D01*
X161278Y197101D01*
X161286Y197000D01*
X161290Y196900D01*
X161290Y196800D01*
X161286Y196700D01*
X161278Y196599D01*
X161266Y196500D01*
X161250Y196401D01*
X161230Y196302D01*
X161207Y196205D01*
X161179Y196108D01*
X161148Y196013D01*
X161113Y195919D01*
X161074Y195826D01*
X161032Y195735D01*
X160986Y195646D01*
X160937Y195558D01*
X160884Y195473D01*
X160828Y195390D01*
X160769Y195309D01*
X160706Y195230D01*
X160641Y195154D01*
X160572Y195081D01*
X160501Y195010D01*
X160427Y194942D01*
X160350Y194878D01*
X160271Y194816D01*
X160190Y194757D01*
X160106Y194702D01*
X160020Y194650D01*
X159932Y194602D01*
X159842Y194557D01*
X159751Y194516D01*
X159658Y194478D01*
X159563Y194444D01*
X159468Y194414D01*
X159371Y194387D01*
X159273Y194364D01*
X159175Y194346D01*
X159075Y194331D01*
X158976Y194320D01*
X158875Y194313D01*
X158775Y194310D01*
X158675Y194311D01*
X158574Y194316D01*
X158475Y194325D01*
X158375Y194338D01*
X158276Y194355D01*
X158178Y194375D01*
X158080Y194400D01*
X157984Y194428D01*
X157889Y194460D01*
X157795Y194496D01*
X157703Y194536D01*
X157613Y194579D01*
X157524Y194626D01*
X157437Y194676D01*
X157352Y194729D01*
X157269Y194786D01*
X157189Y194846D01*
X157111Y194910D01*
X157036Y194976D01*
X156963Y195045D01*
X156893Y195117D01*
X156826Y195192D01*
X156762Y195269D01*
X156701Y195349D01*
X156643Y195431D01*
X156589Y195515D01*
X156538Y195602D01*
X156490Y195690D01*
X156446Y195780D01*
X156406Y195872D01*
X156369Y195966D01*
X156336Y196060D01*
X156307Y196156D01*
X156281Y196253D01*
X156259Y196351D01*
X156242Y196450D01*
X156228Y196550D01*
X156218Y196649D01*
X156212Y196750D01*
X156210Y196850D01*
X189230Y189230D02*
X191770Y189230D01*
X191770Y204470D01*
X189230Y204470D01*
X128270Y204470D02*
X125730Y204470D01*
X125730Y189230D01*
X128270Y189230D01*
D13*
X146050Y224790D02*
X146050Y227330D01*
X146050Y224790D02*
X171450Y224790D01*
X171450Y227330D01*
X170180Y168910D02*
X146050Y168910D01*
X170180Y168910D02*
X170180Y166370D01*
X146050Y166370D02*
X146050Y168910D01*
D12*
X146050Y166370D02*
X137160Y166370D01*
X171450Y227330D02*
X180340Y227330D01*
X171450Y227330D02*
X146050Y227330D01*
X137160Y227330D01*
X146050Y166370D02*
X170180Y166370D01*
X180340Y166370D01*
X189230Y186690D02*
X189230Y189230D01*
X189230Y204470D02*
X189230Y207010D01*
X128270Y189230D02*
X128270Y186690D01*
X128270Y204470D02*
X128270Y207010D01*
X359240Y296080D02*
X359245Y296516D01*
X359261Y296952D01*
X359288Y297388D01*
X359326Y297823D01*
X359374Y298256D01*
X359432Y298689D01*
X359502Y299120D01*
X359582Y299549D01*
X359672Y299976D01*
X359773Y300400D01*
X359884Y300822D01*
X360006Y301241D01*
X360137Y301657D01*
X360279Y302070D01*
X360431Y302479D01*
X360593Y302884D01*
X360765Y303285D01*
X360947Y303682D01*
X361138Y304074D01*
X361339Y304461D01*
X361550Y304844D01*
X361770Y305221D01*
X361999Y305592D01*
X362236Y305958D01*
X362483Y306318D01*
X362739Y306672D01*
X363003Y307019D01*
X363276Y307360D01*
X363557Y307693D01*
X363846Y308020D01*
X364143Y308340D01*
X364448Y308652D01*
X364760Y308957D01*
X365080Y309254D01*
X365407Y309543D01*
X365740Y309824D01*
X366081Y310097D01*
X366428Y310361D01*
X366782Y310617D01*
X367142Y310864D01*
X367508Y311101D01*
X367879Y311330D01*
X368256Y311550D01*
X368639Y311761D01*
X369026Y311962D01*
X369418Y312153D01*
X369815Y312335D01*
X370216Y312507D01*
X370621Y312669D01*
X371030Y312821D01*
X371443Y312963D01*
X371859Y313094D01*
X372278Y313216D01*
X372700Y313327D01*
X373124Y313428D01*
X373551Y313518D01*
X373980Y313598D01*
X374411Y313668D01*
X374844Y313726D01*
X375277Y313774D01*
X375712Y313812D01*
X376148Y313839D01*
X376584Y313855D01*
X377020Y313860D01*
X377456Y313855D01*
X377892Y313839D01*
X378328Y313812D01*
X378763Y313774D01*
X379196Y313726D01*
X379629Y313668D01*
X380060Y313598D01*
X380489Y313518D01*
X380916Y313428D01*
X381340Y313327D01*
X381762Y313216D01*
X382181Y313094D01*
X382597Y312963D01*
X383010Y312821D01*
X383419Y312669D01*
X383824Y312507D01*
X384225Y312335D01*
X384622Y312153D01*
X385014Y311962D01*
X385401Y311761D01*
X385784Y311550D01*
X386161Y311330D01*
X386532Y311101D01*
X386898Y310864D01*
X387258Y310617D01*
X387612Y310361D01*
X387959Y310097D01*
X388300Y309824D01*
X388633Y309543D01*
X388960Y309254D01*
X389280Y308957D01*
X389592Y308652D01*
X389897Y308340D01*
X390194Y308020D01*
X390483Y307693D01*
X390764Y307360D01*
X391037Y307019D01*
X391301Y306672D01*
X391557Y306318D01*
X391804Y305958D01*
X392041Y305592D01*
X392270Y305221D01*
X392490Y304844D01*
X392701Y304461D01*
X392902Y304074D01*
X393093Y303682D01*
X393275Y303285D01*
X393447Y302884D01*
X393609Y302479D01*
X393761Y302070D01*
X393903Y301657D01*
X394034Y301241D01*
X394156Y300822D01*
X394267Y300400D01*
X394368Y299976D01*
X394458Y299549D01*
X394538Y299120D01*
X394608Y298689D01*
X394666Y298256D01*
X394714Y297823D01*
X394752Y297388D01*
X394779Y296952D01*
X394795Y296516D01*
X394800Y296080D01*
X394795Y295644D01*
X394779Y295208D01*
X394752Y294772D01*
X394714Y294337D01*
X394666Y293904D01*
X394608Y293471D01*
X394538Y293040D01*
X394458Y292611D01*
X394368Y292184D01*
X394267Y291760D01*
X394156Y291338D01*
X394034Y290919D01*
X393903Y290503D01*
X393761Y290090D01*
X393609Y289681D01*
X393447Y289276D01*
X393275Y288875D01*
X393093Y288478D01*
X392902Y288086D01*
X392701Y287699D01*
X392490Y287316D01*
X392270Y286939D01*
X392041Y286568D01*
X391804Y286202D01*
X391557Y285842D01*
X391301Y285488D01*
X391037Y285141D01*
X390764Y284800D01*
X390483Y284467D01*
X390194Y284140D01*
X389897Y283820D01*
X389592Y283508D01*
X389280Y283203D01*
X388960Y282906D01*
X388633Y282617D01*
X388300Y282336D01*
X387959Y282063D01*
X387612Y281799D01*
X387258Y281543D01*
X386898Y281296D01*
X386532Y281059D01*
X386161Y280830D01*
X385784Y280610D01*
X385401Y280399D01*
X385014Y280198D01*
X384622Y280007D01*
X384225Y279825D01*
X383824Y279653D01*
X383419Y279491D01*
X383010Y279339D01*
X382597Y279197D01*
X382181Y279066D01*
X381762Y278944D01*
X381340Y278833D01*
X380916Y278732D01*
X380489Y278642D01*
X380060Y278562D01*
X379629Y278492D01*
X379196Y278434D01*
X378763Y278386D01*
X378328Y278348D01*
X377892Y278321D01*
X377456Y278305D01*
X377020Y278300D01*
X376584Y278305D01*
X376148Y278321D01*
X375712Y278348D01*
X375277Y278386D01*
X374844Y278434D01*
X374411Y278492D01*
X373980Y278562D01*
X373551Y278642D01*
X373124Y278732D01*
X372700Y278833D01*
X372278Y278944D01*
X371859Y279066D01*
X371443Y279197D01*
X371030Y279339D01*
X370621Y279491D01*
X370216Y279653D01*
X369815Y279825D01*
X369418Y280007D01*
X369026Y280198D01*
X368639Y280399D01*
X368256Y280610D01*
X367879Y280830D01*
X367508Y281059D01*
X367142Y281296D01*
X366782Y281543D01*
X366428Y281799D01*
X366081Y282063D01*
X365740Y282336D01*
X365407Y282617D01*
X365080Y282906D01*
X364760Y283203D01*
X364448Y283508D01*
X364143Y283820D01*
X363846Y284140D01*
X363557Y284467D01*
X363276Y284800D01*
X363003Y285141D01*
X362739Y285488D01*
X362483Y285842D01*
X362236Y286202D01*
X361999Y286568D01*
X361770Y286939D01*
X361550Y287316D01*
X361339Y287699D01*
X361138Y288086D01*
X360947Y288478D01*
X360765Y288875D01*
X360593Y289276D01*
X360431Y289681D01*
X360279Y290090D01*
X360137Y290503D01*
X360006Y290919D01*
X359884Y291338D01*
X359773Y291760D01*
X359672Y292184D01*
X359582Y292611D01*
X359502Y293040D01*
X359432Y293471D01*
X359374Y293904D01*
X359326Y294337D01*
X359288Y294772D01*
X359261Y295208D01*
X359245Y295644D01*
X359240Y296080D01*
X374480Y296080D02*
X374482Y296180D01*
X374488Y296281D01*
X374498Y296380D01*
X374512Y296480D01*
X374529Y296579D01*
X374551Y296677D01*
X374577Y296774D01*
X374606Y296870D01*
X374639Y296964D01*
X374676Y297058D01*
X374716Y297150D01*
X374760Y297240D01*
X374808Y297328D01*
X374859Y297415D01*
X374913Y297499D01*
X374971Y297581D01*
X375032Y297661D01*
X375096Y297738D01*
X375163Y297813D01*
X375233Y297885D01*
X375306Y297954D01*
X375381Y298020D01*
X375459Y298084D01*
X375539Y298144D01*
X375622Y298201D01*
X375707Y298254D01*
X375794Y298304D01*
X375883Y298351D01*
X375973Y298394D01*
X376065Y298434D01*
X376159Y298470D01*
X376254Y298502D01*
X376350Y298530D01*
X376448Y298555D01*
X376546Y298575D01*
X376645Y298592D01*
X376745Y298605D01*
X376844Y298614D01*
X376945Y298619D01*
X377045Y298620D01*
X377145Y298617D01*
X377246Y298610D01*
X377345Y298599D01*
X377445Y298584D01*
X377543Y298566D01*
X377641Y298543D01*
X377738Y298516D01*
X377833Y298486D01*
X377928Y298452D01*
X378021Y298414D01*
X378112Y298373D01*
X378202Y298328D01*
X378290Y298280D01*
X378376Y298228D01*
X378460Y298173D01*
X378541Y298114D01*
X378620Y298052D01*
X378697Y297988D01*
X378771Y297920D01*
X378842Y297849D01*
X378911Y297776D01*
X378976Y297700D01*
X379039Y297621D01*
X379098Y297540D01*
X379154Y297457D01*
X379207Y297372D01*
X379256Y297284D01*
X379302Y297195D01*
X379344Y297104D01*
X379383Y297011D01*
X379418Y296917D01*
X379449Y296822D01*
X379477Y296725D01*
X379500Y296628D01*
X379520Y296529D01*
X379536Y296430D01*
X379548Y296331D01*
X379556Y296230D01*
X379560Y296130D01*
X379560Y296030D01*
X379556Y295930D01*
X379548Y295829D01*
X379536Y295730D01*
X379520Y295631D01*
X379500Y295532D01*
X379477Y295435D01*
X379449Y295338D01*
X379418Y295243D01*
X379383Y295149D01*
X379344Y295056D01*
X379302Y294965D01*
X379256Y294876D01*
X379207Y294788D01*
X379154Y294703D01*
X379098Y294620D01*
X379039Y294539D01*
X378976Y294460D01*
X378911Y294384D01*
X378842Y294311D01*
X378771Y294240D01*
X378697Y294172D01*
X378620Y294108D01*
X378541Y294046D01*
X378460Y293987D01*
X378376Y293932D01*
X378290Y293880D01*
X378202Y293832D01*
X378112Y293787D01*
X378021Y293746D01*
X377928Y293708D01*
X377833Y293674D01*
X377738Y293644D01*
X377641Y293617D01*
X377543Y293594D01*
X377445Y293576D01*
X377345Y293561D01*
X377246Y293550D01*
X377145Y293543D01*
X377045Y293540D01*
X376945Y293541D01*
X376844Y293546D01*
X376745Y293555D01*
X376645Y293568D01*
X376546Y293585D01*
X376448Y293605D01*
X376350Y293630D01*
X376254Y293658D01*
X376159Y293690D01*
X376065Y293726D01*
X375973Y293766D01*
X375883Y293809D01*
X375794Y293856D01*
X375707Y293906D01*
X375622Y293959D01*
X375539Y294016D01*
X375459Y294076D01*
X375381Y294140D01*
X375306Y294206D01*
X375233Y294275D01*
X375163Y294347D01*
X375096Y294422D01*
X375032Y294499D01*
X374971Y294579D01*
X374913Y294661D01*
X374859Y294745D01*
X374808Y294832D01*
X374760Y294920D01*
X374716Y295010D01*
X374676Y295102D01*
X374639Y295196D01*
X374606Y295290D01*
X374577Y295386D01*
X374551Y295483D01*
X374529Y295581D01*
X374512Y295680D01*
X374498Y295780D01*
X374488Y295879D01*
X374482Y295980D01*
X374480Y296080D01*
X407500Y288460D02*
X410040Y288460D01*
X410040Y303700D01*
X407500Y303700D01*
X346540Y303700D02*
X344000Y303700D01*
X344000Y288460D01*
X346540Y288460D01*
D13*
X364320Y324020D02*
X364320Y326560D01*
X364320Y324020D02*
X389720Y324020D01*
X389720Y326560D01*
X388450Y268140D02*
X364320Y268140D01*
X388450Y268140D02*
X388450Y265600D01*
X364320Y265600D02*
X364320Y268140D01*
D12*
X364320Y265600D02*
X355430Y265600D01*
X389720Y326560D02*
X398610Y326560D01*
X389720Y326560D02*
X364320Y326560D01*
X355430Y326560D01*
X364320Y265600D02*
X388450Y265600D01*
X398610Y265600D01*
X407500Y285920D02*
X407500Y288460D01*
X407500Y303700D02*
X407500Y306240D01*
X346540Y288460D02*
X346540Y285920D01*
X346540Y303700D02*
X346540Y306240D01*
X541020Y292100D02*
X541025Y292536D01*
X541041Y292972D01*
X541068Y293408D01*
X541106Y293843D01*
X541154Y294276D01*
X541212Y294709D01*
X541282Y295140D01*
X541362Y295569D01*
X541452Y295996D01*
X541553Y296420D01*
X541664Y296842D01*
X541786Y297261D01*
X541917Y297677D01*
X542059Y298090D01*
X542211Y298499D01*
X542373Y298904D01*
X542545Y299305D01*
X542727Y299702D01*
X542918Y300094D01*
X543119Y300481D01*
X543330Y300864D01*
X543550Y301241D01*
X543779Y301612D01*
X544016Y301978D01*
X544263Y302338D01*
X544519Y302692D01*
X544783Y303039D01*
X545056Y303380D01*
X545337Y303713D01*
X545626Y304040D01*
X545923Y304360D01*
X546228Y304672D01*
X546540Y304977D01*
X546860Y305274D01*
X547187Y305563D01*
X547520Y305844D01*
X547861Y306117D01*
X548208Y306381D01*
X548562Y306637D01*
X548922Y306884D01*
X549288Y307121D01*
X549659Y307350D01*
X550036Y307570D01*
X550419Y307781D01*
X550806Y307982D01*
X551198Y308173D01*
X551595Y308355D01*
X551996Y308527D01*
X552401Y308689D01*
X552810Y308841D01*
X553223Y308983D01*
X553639Y309114D01*
X554058Y309236D01*
X554480Y309347D01*
X554904Y309448D01*
X555331Y309538D01*
X555760Y309618D01*
X556191Y309688D01*
X556624Y309746D01*
X557057Y309794D01*
X557492Y309832D01*
X557928Y309859D01*
X558364Y309875D01*
X558800Y309880D01*
X559236Y309875D01*
X559672Y309859D01*
X560108Y309832D01*
X560543Y309794D01*
X560976Y309746D01*
X561409Y309688D01*
X561840Y309618D01*
X562269Y309538D01*
X562696Y309448D01*
X563120Y309347D01*
X563542Y309236D01*
X563961Y309114D01*
X564377Y308983D01*
X564790Y308841D01*
X565199Y308689D01*
X565604Y308527D01*
X566005Y308355D01*
X566402Y308173D01*
X566794Y307982D01*
X567181Y307781D01*
X567564Y307570D01*
X567941Y307350D01*
X568312Y307121D01*
X568678Y306884D01*
X569038Y306637D01*
X569392Y306381D01*
X569739Y306117D01*
X570080Y305844D01*
X570413Y305563D01*
X570740Y305274D01*
X571060Y304977D01*
X571372Y304672D01*
X571677Y304360D01*
X571974Y304040D01*
X572263Y303713D01*
X572544Y303380D01*
X572817Y303039D01*
X573081Y302692D01*
X573337Y302338D01*
X573584Y301978D01*
X573821Y301612D01*
X574050Y301241D01*
X574270Y300864D01*
X574481Y300481D01*
X574682Y300094D01*
X574873Y299702D01*
X575055Y299305D01*
X575227Y298904D01*
X575389Y298499D01*
X575541Y298090D01*
X575683Y297677D01*
X575814Y297261D01*
X575936Y296842D01*
X576047Y296420D01*
X576148Y295996D01*
X576238Y295569D01*
X576318Y295140D01*
X576388Y294709D01*
X576446Y294276D01*
X576494Y293843D01*
X576532Y293408D01*
X576559Y292972D01*
X576575Y292536D01*
X576580Y292100D01*
X576575Y291664D01*
X576559Y291228D01*
X576532Y290792D01*
X576494Y290357D01*
X576446Y289924D01*
X576388Y289491D01*
X576318Y289060D01*
X576238Y288631D01*
X576148Y288204D01*
X576047Y287780D01*
X575936Y287358D01*
X575814Y286939D01*
X575683Y286523D01*
X575541Y286110D01*
X575389Y285701D01*
X575227Y285296D01*
X575055Y284895D01*
X574873Y284498D01*
X574682Y284106D01*
X574481Y283719D01*
X574270Y283336D01*
X574050Y282959D01*
X573821Y282588D01*
X573584Y282222D01*
X573337Y281862D01*
X573081Y281508D01*
X572817Y281161D01*
X572544Y280820D01*
X572263Y280487D01*
X571974Y280160D01*
X571677Y279840D01*
X571372Y279528D01*
X571060Y279223D01*
X570740Y278926D01*
X570413Y278637D01*
X570080Y278356D01*
X569739Y278083D01*
X569392Y277819D01*
X569038Y277563D01*
X568678Y277316D01*
X568312Y277079D01*
X567941Y276850D01*
X567564Y276630D01*
X567181Y276419D01*
X566794Y276218D01*
X566402Y276027D01*
X566005Y275845D01*
X565604Y275673D01*
X565199Y275511D01*
X564790Y275359D01*
X564377Y275217D01*
X563961Y275086D01*
X563542Y274964D01*
X563120Y274853D01*
X562696Y274752D01*
X562269Y274662D01*
X561840Y274582D01*
X561409Y274512D01*
X560976Y274454D01*
X560543Y274406D01*
X560108Y274368D01*
X559672Y274341D01*
X559236Y274325D01*
X558800Y274320D01*
X558364Y274325D01*
X557928Y274341D01*
X557492Y274368D01*
X557057Y274406D01*
X556624Y274454D01*
X556191Y274512D01*
X555760Y274582D01*
X555331Y274662D01*
X554904Y274752D01*
X554480Y274853D01*
X554058Y274964D01*
X553639Y275086D01*
X553223Y275217D01*
X552810Y275359D01*
X552401Y275511D01*
X551996Y275673D01*
X551595Y275845D01*
X551198Y276027D01*
X550806Y276218D01*
X550419Y276419D01*
X550036Y276630D01*
X549659Y276850D01*
X549288Y277079D01*
X548922Y277316D01*
X548562Y277563D01*
X548208Y277819D01*
X547861Y278083D01*
X547520Y278356D01*
X547187Y278637D01*
X546860Y278926D01*
X546540Y279223D01*
X546228Y279528D01*
X545923Y279840D01*
X545626Y280160D01*
X545337Y280487D01*
X545056Y280820D01*
X544783Y281161D01*
X544519Y281508D01*
X544263Y281862D01*
X544016Y282222D01*
X543779Y282588D01*
X543550Y282959D01*
X543330Y283336D01*
X543119Y283719D01*
X542918Y284106D01*
X542727Y284498D01*
X542545Y284895D01*
X542373Y285296D01*
X542211Y285701D01*
X542059Y286110D01*
X541917Y286523D01*
X541786Y286939D01*
X541664Y287358D01*
X541553Y287780D01*
X541452Y288204D01*
X541362Y288631D01*
X541282Y289060D01*
X541212Y289491D01*
X541154Y289924D01*
X541106Y290357D01*
X541068Y290792D01*
X541041Y291228D01*
X541025Y291664D01*
X541020Y292100D01*
X556260Y292100D02*
X556262Y292200D01*
X556268Y292301D01*
X556278Y292400D01*
X556292Y292500D01*
X556309Y292599D01*
X556331Y292697D01*
X556357Y292794D01*
X556386Y292890D01*
X556419Y292984D01*
X556456Y293078D01*
X556496Y293170D01*
X556540Y293260D01*
X556588Y293348D01*
X556639Y293435D01*
X556693Y293519D01*
X556751Y293601D01*
X556812Y293681D01*
X556876Y293758D01*
X556943Y293833D01*
X557013Y293905D01*
X557086Y293974D01*
X557161Y294040D01*
X557239Y294104D01*
X557319Y294164D01*
X557402Y294221D01*
X557487Y294274D01*
X557574Y294324D01*
X557663Y294371D01*
X557753Y294414D01*
X557845Y294454D01*
X557939Y294490D01*
X558034Y294522D01*
X558130Y294550D01*
X558228Y294575D01*
X558326Y294595D01*
X558425Y294612D01*
X558525Y294625D01*
X558624Y294634D01*
X558725Y294639D01*
X558825Y294640D01*
X558925Y294637D01*
X559026Y294630D01*
X559125Y294619D01*
X559225Y294604D01*
X559323Y294586D01*
X559421Y294563D01*
X559518Y294536D01*
X559613Y294506D01*
X559708Y294472D01*
X559801Y294434D01*
X559892Y294393D01*
X559982Y294348D01*
X560070Y294300D01*
X560156Y294248D01*
X560240Y294193D01*
X560321Y294134D01*
X560400Y294072D01*
X560477Y294008D01*
X560551Y293940D01*
X560622Y293869D01*
X560691Y293796D01*
X560756Y293720D01*
X560819Y293641D01*
X560878Y293560D01*
X560934Y293477D01*
X560987Y293392D01*
X561036Y293304D01*
X561082Y293215D01*
X561124Y293124D01*
X561163Y293031D01*
X561198Y292937D01*
X561229Y292842D01*
X561257Y292745D01*
X561280Y292648D01*
X561300Y292549D01*
X561316Y292450D01*
X561328Y292351D01*
X561336Y292250D01*
X561340Y292150D01*
X561340Y292050D01*
X561336Y291950D01*
X561328Y291849D01*
X561316Y291750D01*
X561300Y291651D01*
X561280Y291552D01*
X561257Y291455D01*
X561229Y291358D01*
X561198Y291263D01*
X561163Y291169D01*
X561124Y291076D01*
X561082Y290985D01*
X561036Y290896D01*
X560987Y290808D01*
X560934Y290723D01*
X560878Y290640D01*
X560819Y290559D01*
X560756Y290480D01*
X560691Y290404D01*
X560622Y290331D01*
X560551Y290260D01*
X560477Y290192D01*
X560400Y290128D01*
X560321Y290066D01*
X560240Y290007D01*
X560156Y289952D01*
X560070Y289900D01*
X559982Y289852D01*
X559892Y289807D01*
X559801Y289766D01*
X559708Y289728D01*
X559613Y289694D01*
X559518Y289664D01*
X559421Y289637D01*
X559323Y289614D01*
X559225Y289596D01*
X559125Y289581D01*
X559026Y289570D01*
X558925Y289563D01*
X558825Y289560D01*
X558725Y289561D01*
X558624Y289566D01*
X558525Y289575D01*
X558425Y289588D01*
X558326Y289605D01*
X558228Y289625D01*
X558130Y289650D01*
X558034Y289678D01*
X557939Y289710D01*
X557845Y289746D01*
X557753Y289786D01*
X557663Y289829D01*
X557574Y289876D01*
X557487Y289926D01*
X557402Y289979D01*
X557319Y290036D01*
X557239Y290096D01*
X557161Y290160D01*
X557086Y290226D01*
X557013Y290295D01*
X556943Y290367D01*
X556876Y290442D01*
X556812Y290519D01*
X556751Y290599D01*
X556693Y290681D01*
X556639Y290765D01*
X556588Y290852D01*
X556540Y290940D01*
X556496Y291030D01*
X556456Y291122D01*
X556419Y291216D01*
X556386Y291310D01*
X556357Y291406D01*
X556331Y291503D01*
X556309Y291601D01*
X556292Y291700D01*
X556278Y291800D01*
X556268Y291899D01*
X556262Y292000D01*
X556260Y292100D01*
X589280Y284480D02*
X591820Y284480D01*
X591820Y299720D01*
X589280Y299720D01*
X528320Y299720D02*
X525780Y299720D01*
X525780Y284480D01*
X528320Y284480D01*
D13*
X546100Y320040D02*
X546100Y322580D01*
X546100Y320040D02*
X571500Y320040D01*
X571500Y322580D01*
X570230Y264160D02*
X546100Y264160D01*
X570230Y264160D02*
X570230Y261620D01*
X546100Y261620D02*
X546100Y264160D01*
D12*
X546100Y261620D02*
X537210Y261620D01*
X571500Y322580D02*
X580390Y322580D01*
X571500Y322580D02*
X546100Y322580D01*
X537210Y322580D01*
X546100Y261620D02*
X570230Y261620D01*
X580390Y261620D01*
X589280Y281940D02*
X589280Y284480D01*
X589280Y299720D02*
X589280Y302260D01*
X528320Y284480D02*
X528320Y281940D01*
X528320Y299720D02*
X528320Y302260D01*
X342392Y127000D02*
X342397Y127436D01*
X342413Y127872D01*
X342440Y128308D01*
X342478Y128743D01*
X342526Y129176D01*
X342584Y129609D01*
X342654Y130040D01*
X342734Y130469D01*
X342824Y130896D01*
X342925Y131320D01*
X343036Y131742D01*
X343158Y132161D01*
X343289Y132577D01*
X343431Y132990D01*
X343583Y133399D01*
X343745Y133804D01*
X343917Y134205D01*
X344099Y134602D01*
X344290Y134994D01*
X344491Y135381D01*
X344702Y135764D01*
X344922Y136141D01*
X345151Y136512D01*
X345388Y136878D01*
X345635Y137238D01*
X345891Y137592D01*
X346155Y137939D01*
X346428Y138280D01*
X346709Y138613D01*
X346998Y138940D01*
X347295Y139260D01*
X347600Y139572D01*
X347912Y139877D01*
X348232Y140174D01*
X348559Y140463D01*
X348892Y140744D01*
X349233Y141017D01*
X349580Y141281D01*
X349934Y141537D01*
X350294Y141784D01*
X350660Y142021D01*
X351031Y142250D01*
X351408Y142470D01*
X351791Y142681D01*
X352178Y142882D01*
X352570Y143073D01*
X352967Y143255D01*
X353368Y143427D01*
X353773Y143589D01*
X354182Y143741D01*
X354595Y143883D01*
X355011Y144014D01*
X355430Y144136D01*
X355852Y144247D01*
X356276Y144348D01*
X356703Y144438D01*
X357132Y144518D01*
X357563Y144588D01*
X357996Y144646D01*
X358429Y144694D01*
X358864Y144732D01*
X359300Y144759D01*
X359736Y144775D01*
X360172Y144780D01*
X360608Y144775D01*
X361044Y144759D01*
X361480Y144732D01*
X361915Y144694D01*
X362348Y144646D01*
X362781Y144588D01*
X363212Y144518D01*
X363641Y144438D01*
X364068Y144348D01*
X364492Y144247D01*
X364914Y144136D01*
X365333Y144014D01*
X365749Y143883D01*
X366162Y143741D01*
X366571Y143589D01*
X366976Y143427D01*
X367377Y143255D01*
X367774Y143073D01*
X368166Y142882D01*
X368553Y142681D01*
X368936Y142470D01*
X369313Y142250D01*
X369684Y142021D01*
X370050Y141784D01*
X370410Y141537D01*
X370764Y141281D01*
X371111Y141017D01*
X371452Y140744D01*
X371785Y140463D01*
X372112Y140174D01*
X372432Y139877D01*
X372744Y139572D01*
X373049Y139260D01*
X373346Y138940D01*
X373635Y138613D01*
X373916Y138280D01*
X374189Y137939D01*
X374453Y137592D01*
X374709Y137238D01*
X374956Y136878D01*
X375193Y136512D01*
X375422Y136141D01*
X375642Y135764D01*
X375853Y135381D01*
X376054Y134994D01*
X376245Y134602D01*
X376427Y134205D01*
X376599Y133804D01*
X376761Y133399D01*
X376913Y132990D01*
X377055Y132577D01*
X377186Y132161D01*
X377308Y131742D01*
X377419Y131320D01*
X377520Y130896D01*
X377610Y130469D01*
X377690Y130040D01*
X377760Y129609D01*
X377818Y129176D01*
X377866Y128743D01*
X377904Y128308D01*
X377931Y127872D01*
X377947Y127436D01*
X377952Y127000D01*
X377947Y126564D01*
X377931Y126128D01*
X377904Y125692D01*
X377866Y125257D01*
X377818Y124824D01*
X377760Y124391D01*
X377690Y123960D01*
X377610Y123531D01*
X377520Y123104D01*
X377419Y122680D01*
X377308Y122258D01*
X377186Y121839D01*
X377055Y121423D01*
X376913Y121010D01*
X376761Y120601D01*
X376599Y120196D01*
X376427Y119795D01*
X376245Y119398D01*
X376054Y119006D01*
X375853Y118619D01*
X375642Y118236D01*
X375422Y117859D01*
X375193Y117488D01*
X374956Y117122D01*
X374709Y116762D01*
X374453Y116408D01*
X374189Y116061D01*
X373916Y115720D01*
X373635Y115387D01*
X373346Y115060D01*
X373049Y114740D01*
X372744Y114428D01*
X372432Y114123D01*
X372112Y113826D01*
X371785Y113537D01*
X371452Y113256D01*
X371111Y112983D01*
X370764Y112719D01*
X370410Y112463D01*
X370050Y112216D01*
X369684Y111979D01*
X369313Y111750D01*
X368936Y111530D01*
X368553Y111319D01*
X368166Y111118D01*
X367774Y110927D01*
X367377Y110745D01*
X366976Y110573D01*
X366571Y110411D01*
X366162Y110259D01*
X365749Y110117D01*
X365333Y109986D01*
X364914Y109864D01*
X364492Y109753D01*
X364068Y109652D01*
X363641Y109562D01*
X363212Y109482D01*
X362781Y109412D01*
X362348Y109354D01*
X361915Y109306D01*
X361480Y109268D01*
X361044Y109241D01*
X360608Y109225D01*
X360172Y109220D01*
X359736Y109225D01*
X359300Y109241D01*
X358864Y109268D01*
X358429Y109306D01*
X357996Y109354D01*
X357563Y109412D01*
X357132Y109482D01*
X356703Y109562D01*
X356276Y109652D01*
X355852Y109753D01*
X355430Y109864D01*
X355011Y109986D01*
X354595Y110117D01*
X354182Y110259D01*
X353773Y110411D01*
X353368Y110573D01*
X352967Y110745D01*
X352570Y110927D01*
X352178Y111118D01*
X351791Y111319D01*
X351408Y111530D01*
X351031Y111750D01*
X350660Y111979D01*
X350294Y112216D01*
X349934Y112463D01*
X349580Y112719D01*
X349233Y112983D01*
X348892Y113256D01*
X348559Y113537D01*
X348232Y113826D01*
X347912Y114123D01*
X347600Y114428D01*
X347295Y114740D01*
X346998Y115060D01*
X346709Y115387D01*
X346428Y115720D01*
X346155Y116061D01*
X345891Y116408D01*
X345635Y116762D01*
X345388Y117122D01*
X345151Y117488D01*
X344922Y117859D01*
X344702Y118236D01*
X344491Y118619D01*
X344290Y119006D01*
X344099Y119398D01*
X343917Y119795D01*
X343745Y120196D01*
X343583Y120601D01*
X343431Y121010D01*
X343289Y121423D01*
X343158Y121839D01*
X343036Y122258D01*
X342925Y122680D01*
X342824Y123104D01*
X342734Y123531D01*
X342654Y123960D01*
X342584Y124391D01*
X342526Y124824D01*
X342478Y125257D01*
X342440Y125692D01*
X342413Y126128D01*
X342397Y126564D01*
X342392Y127000D01*
X357632Y127000D02*
X357634Y127100D01*
X357640Y127201D01*
X357650Y127300D01*
X357664Y127400D01*
X357681Y127499D01*
X357703Y127597D01*
X357729Y127694D01*
X357758Y127790D01*
X357791Y127884D01*
X357828Y127978D01*
X357868Y128070D01*
X357912Y128160D01*
X357960Y128248D01*
X358011Y128335D01*
X358065Y128419D01*
X358123Y128501D01*
X358184Y128581D01*
X358248Y128658D01*
X358315Y128733D01*
X358385Y128805D01*
X358458Y128874D01*
X358533Y128940D01*
X358611Y129004D01*
X358691Y129064D01*
X358774Y129121D01*
X358859Y129174D01*
X358946Y129224D01*
X359035Y129271D01*
X359125Y129314D01*
X359217Y129354D01*
X359311Y129390D01*
X359406Y129422D01*
X359502Y129450D01*
X359600Y129475D01*
X359698Y129495D01*
X359797Y129512D01*
X359897Y129525D01*
X359996Y129534D01*
X360097Y129539D01*
X360197Y129540D01*
X360297Y129537D01*
X360398Y129530D01*
X360497Y129519D01*
X360597Y129504D01*
X360695Y129486D01*
X360793Y129463D01*
X360890Y129436D01*
X360985Y129406D01*
X361080Y129372D01*
X361173Y129334D01*
X361264Y129293D01*
X361354Y129248D01*
X361442Y129200D01*
X361528Y129148D01*
X361612Y129093D01*
X361693Y129034D01*
X361772Y128972D01*
X361849Y128908D01*
X361923Y128840D01*
X361994Y128769D01*
X362063Y128696D01*
X362128Y128620D01*
X362191Y128541D01*
X362250Y128460D01*
X362306Y128377D01*
X362359Y128292D01*
X362408Y128204D01*
X362454Y128115D01*
X362496Y128024D01*
X362535Y127931D01*
X362570Y127837D01*
X362601Y127742D01*
X362629Y127645D01*
X362652Y127548D01*
X362672Y127449D01*
X362688Y127350D01*
X362700Y127251D01*
X362708Y127150D01*
X362712Y127050D01*
X362712Y126950D01*
X362708Y126850D01*
X362700Y126749D01*
X362688Y126650D01*
X362672Y126551D01*
X362652Y126452D01*
X362629Y126355D01*
X362601Y126258D01*
X362570Y126163D01*
X362535Y126069D01*
X362496Y125976D01*
X362454Y125885D01*
X362408Y125796D01*
X362359Y125708D01*
X362306Y125623D01*
X362250Y125540D01*
X362191Y125459D01*
X362128Y125380D01*
X362063Y125304D01*
X361994Y125231D01*
X361923Y125160D01*
X361849Y125092D01*
X361772Y125028D01*
X361693Y124966D01*
X361612Y124907D01*
X361528Y124852D01*
X361442Y124800D01*
X361354Y124752D01*
X361264Y124707D01*
X361173Y124666D01*
X361080Y124628D01*
X360985Y124594D01*
X360890Y124564D01*
X360793Y124537D01*
X360695Y124514D01*
X360597Y124496D01*
X360497Y124481D01*
X360398Y124470D01*
X360297Y124463D01*
X360197Y124460D01*
X360097Y124461D01*
X359996Y124466D01*
X359897Y124475D01*
X359797Y124488D01*
X359698Y124505D01*
X359600Y124525D01*
X359502Y124550D01*
X359406Y124578D01*
X359311Y124610D01*
X359217Y124646D01*
X359125Y124686D01*
X359035Y124729D01*
X358946Y124776D01*
X358859Y124826D01*
X358774Y124879D01*
X358691Y124936D01*
X358611Y124996D01*
X358533Y125060D01*
X358458Y125126D01*
X358385Y125195D01*
X358315Y125267D01*
X358248Y125342D01*
X358184Y125419D01*
X358123Y125499D01*
X358065Y125581D01*
X358011Y125665D01*
X357960Y125752D01*
X357912Y125840D01*
X357868Y125930D01*
X357828Y126022D01*
X357791Y126116D01*
X357758Y126210D01*
X357729Y126306D01*
X357703Y126403D01*
X357681Y126501D01*
X357664Y126600D01*
X357650Y126700D01*
X357640Y126799D01*
X357634Y126900D01*
X357632Y127000D01*
X390652Y119380D02*
X393192Y119380D01*
X393192Y134620D01*
X390652Y134620D01*
X329692Y134620D02*
X327152Y134620D01*
X327152Y119380D01*
X329692Y119380D01*
D13*
X347472Y154940D02*
X347472Y157480D01*
X347472Y154940D02*
X372872Y154940D01*
X372872Y157480D01*
X371602Y99060D02*
X347472Y99060D01*
X371602Y99060D02*
X371602Y96520D01*
X347472Y96520D02*
X347472Y99060D01*
D12*
X347472Y96520D02*
X338582Y96520D01*
X372872Y157480D02*
X381762Y157480D01*
X372872Y157480D02*
X347472Y157480D01*
X338582Y157480D01*
X347472Y96520D02*
X371602Y96520D01*
X381762Y96520D01*
X390652Y116840D02*
X390652Y119380D01*
X390652Y134620D02*
X390652Y137160D01*
X329692Y119380D02*
X329692Y116840D01*
X329692Y134620D02*
X329692Y137160D01*
X553720Y127000D02*
X553725Y127436D01*
X553741Y127872D01*
X553768Y128308D01*
X553806Y128743D01*
X553854Y129176D01*
X553912Y129609D01*
X553982Y130040D01*
X554062Y130469D01*
X554152Y130896D01*
X554253Y131320D01*
X554364Y131742D01*
X554486Y132161D01*
X554617Y132577D01*
X554759Y132990D01*
X554911Y133399D01*
X555073Y133804D01*
X555245Y134205D01*
X555427Y134602D01*
X555618Y134994D01*
X555819Y135381D01*
X556030Y135764D01*
X556250Y136141D01*
X556479Y136512D01*
X556716Y136878D01*
X556963Y137238D01*
X557219Y137592D01*
X557483Y137939D01*
X557756Y138280D01*
X558037Y138613D01*
X558326Y138940D01*
X558623Y139260D01*
X558928Y139572D01*
X559240Y139877D01*
X559560Y140174D01*
X559887Y140463D01*
X560220Y140744D01*
X560561Y141017D01*
X560908Y141281D01*
X561262Y141537D01*
X561622Y141784D01*
X561988Y142021D01*
X562359Y142250D01*
X562736Y142470D01*
X563119Y142681D01*
X563506Y142882D01*
X563898Y143073D01*
X564295Y143255D01*
X564696Y143427D01*
X565101Y143589D01*
X565510Y143741D01*
X565923Y143883D01*
X566339Y144014D01*
X566758Y144136D01*
X567180Y144247D01*
X567604Y144348D01*
X568031Y144438D01*
X568460Y144518D01*
X568891Y144588D01*
X569324Y144646D01*
X569757Y144694D01*
X570192Y144732D01*
X570628Y144759D01*
X571064Y144775D01*
X571500Y144780D01*
X571936Y144775D01*
X572372Y144759D01*
X572808Y144732D01*
X573243Y144694D01*
X573676Y144646D01*
X574109Y144588D01*
X574540Y144518D01*
X574969Y144438D01*
X575396Y144348D01*
X575820Y144247D01*
X576242Y144136D01*
X576661Y144014D01*
X577077Y143883D01*
X577490Y143741D01*
X577899Y143589D01*
X578304Y143427D01*
X578705Y143255D01*
X579102Y143073D01*
X579494Y142882D01*
X579881Y142681D01*
X580264Y142470D01*
X580641Y142250D01*
X581012Y142021D01*
X581378Y141784D01*
X581738Y141537D01*
X582092Y141281D01*
X582439Y141017D01*
X582780Y140744D01*
X583113Y140463D01*
X583440Y140174D01*
X583760Y139877D01*
X584072Y139572D01*
X584377Y139260D01*
X584674Y138940D01*
X584963Y138613D01*
X585244Y138280D01*
X585517Y137939D01*
X585781Y137592D01*
X586037Y137238D01*
X586284Y136878D01*
X586521Y136512D01*
X586750Y136141D01*
X586970Y135764D01*
X587181Y135381D01*
X587382Y134994D01*
X587573Y134602D01*
X587755Y134205D01*
X587927Y133804D01*
X588089Y133399D01*
X588241Y132990D01*
X588383Y132577D01*
X588514Y132161D01*
X588636Y131742D01*
X588747Y131320D01*
X588848Y130896D01*
X588938Y130469D01*
X589018Y130040D01*
X589088Y129609D01*
X589146Y129176D01*
X589194Y128743D01*
X589232Y128308D01*
X589259Y127872D01*
X589275Y127436D01*
X589280Y127000D01*
X589275Y126564D01*
X589259Y126128D01*
X589232Y125692D01*
X589194Y125257D01*
X589146Y124824D01*
X589088Y124391D01*
X589018Y123960D01*
X588938Y123531D01*
X588848Y123104D01*
X588747Y122680D01*
X588636Y122258D01*
X588514Y121839D01*
X588383Y121423D01*
X588241Y121010D01*
X588089Y120601D01*
X587927Y120196D01*
X587755Y119795D01*
X587573Y119398D01*
X587382Y119006D01*
X587181Y118619D01*
X586970Y118236D01*
X586750Y117859D01*
X586521Y117488D01*
X586284Y117122D01*
X586037Y116762D01*
X585781Y116408D01*
X585517Y116061D01*
X585244Y115720D01*
X584963Y115387D01*
X584674Y115060D01*
X584377Y114740D01*
X584072Y114428D01*
X583760Y114123D01*
X583440Y113826D01*
X583113Y113537D01*
X582780Y113256D01*
X582439Y112983D01*
X582092Y112719D01*
X581738Y112463D01*
X581378Y112216D01*
X581012Y111979D01*
X580641Y111750D01*
X580264Y111530D01*
X579881Y111319D01*
X579494Y111118D01*
X579102Y110927D01*
X578705Y110745D01*
X578304Y110573D01*
X577899Y110411D01*
X577490Y110259D01*
X577077Y110117D01*
X576661Y109986D01*
X576242Y109864D01*
X575820Y109753D01*
X575396Y109652D01*
X574969Y109562D01*
X574540Y109482D01*
X574109Y109412D01*
X573676Y109354D01*
X573243Y109306D01*
X572808Y109268D01*
X572372Y109241D01*
X571936Y109225D01*
X571500Y109220D01*
X571064Y109225D01*
X570628Y109241D01*
X570192Y109268D01*
X569757Y109306D01*
X569324Y109354D01*
X568891Y109412D01*
X568460Y109482D01*
X568031Y109562D01*
X567604Y109652D01*
X567180Y109753D01*
X566758Y109864D01*
X566339Y109986D01*
X565923Y110117D01*
X565510Y110259D01*
X565101Y110411D01*
X564696Y110573D01*
X564295Y110745D01*
X563898Y110927D01*
X563506Y111118D01*
X563119Y111319D01*
X562736Y111530D01*
X562359Y111750D01*
X561988Y111979D01*
X561622Y112216D01*
X561262Y112463D01*
X560908Y112719D01*
X560561Y112983D01*
X560220Y113256D01*
X559887Y113537D01*
X559560Y113826D01*
X559240Y114123D01*
X558928Y114428D01*
X558623Y114740D01*
X558326Y115060D01*
X558037Y115387D01*
X557756Y115720D01*
X557483Y116061D01*
X557219Y116408D01*
X556963Y116762D01*
X556716Y117122D01*
X556479Y117488D01*
X556250Y117859D01*
X556030Y118236D01*
X555819Y118619D01*
X555618Y119006D01*
X555427Y119398D01*
X555245Y119795D01*
X555073Y120196D01*
X554911Y120601D01*
X554759Y121010D01*
X554617Y121423D01*
X554486Y121839D01*
X554364Y122258D01*
X554253Y122680D01*
X554152Y123104D01*
X554062Y123531D01*
X553982Y123960D01*
X553912Y124391D01*
X553854Y124824D01*
X553806Y125257D01*
X553768Y125692D01*
X553741Y126128D01*
X553725Y126564D01*
X553720Y127000D01*
X568960Y127000D02*
X568962Y127100D01*
X568968Y127201D01*
X568978Y127300D01*
X568992Y127400D01*
X569009Y127499D01*
X569031Y127597D01*
X569057Y127694D01*
X569086Y127790D01*
X569119Y127884D01*
X569156Y127978D01*
X569196Y128070D01*
X569240Y128160D01*
X569288Y128248D01*
X569339Y128335D01*
X569393Y128419D01*
X569451Y128501D01*
X569512Y128581D01*
X569576Y128658D01*
X569643Y128733D01*
X569713Y128805D01*
X569786Y128874D01*
X569861Y128940D01*
X569939Y129004D01*
X570019Y129064D01*
X570102Y129121D01*
X570187Y129174D01*
X570274Y129224D01*
X570363Y129271D01*
X570453Y129314D01*
X570545Y129354D01*
X570639Y129390D01*
X570734Y129422D01*
X570830Y129450D01*
X570928Y129475D01*
X571026Y129495D01*
X571125Y129512D01*
X571225Y129525D01*
X571324Y129534D01*
X571425Y129539D01*
X571525Y129540D01*
X571625Y129537D01*
X571726Y129530D01*
X571825Y129519D01*
X571925Y129504D01*
X572023Y129486D01*
X572121Y129463D01*
X572218Y129436D01*
X572313Y129406D01*
X572408Y129372D01*
X572501Y129334D01*
X572592Y129293D01*
X572682Y129248D01*
X572770Y129200D01*
X572856Y129148D01*
X572940Y129093D01*
X573021Y129034D01*
X573100Y128972D01*
X573177Y128908D01*
X573251Y128840D01*
X573322Y128769D01*
X573391Y128696D01*
X573456Y128620D01*
X573519Y128541D01*
X573578Y128460D01*
X573634Y128377D01*
X573687Y128292D01*
X573736Y128204D01*
X573782Y128115D01*
X573824Y128024D01*
X573863Y127931D01*
X573898Y127837D01*
X573929Y127742D01*
X573957Y127645D01*
X573980Y127548D01*
X574000Y127449D01*
X574016Y127350D01*
X574028Y127251D01*
X574036Y127150D01*
X574040Y127050D01*
X574040Y126950D01*
X574036Y126850D01*
X574028Y126749D01*
X574016Y126650D01*
X574000Y126551D01*
X573980Y126452D01*
X573957Y126355D01*
X573929Y126258D01*
X573898Y126163D01*
X573863Y126069D01*
X573824Y125976D01*
X573782Y125885D01*
X573736Y125796D01*
X573687Y125708D01*
X573634Y125623D01*
X573578Y125540D01*
X573519Y125459D01*
X573456Y125380D01*
X573391Y125304D01*
X573322Y125231D01*
X573251Y125160D01*
X573177Y125092D01*
X573100Y125028D01*
X573021Y124966D01*
X572940Y124907D01*
X572856Y124852D01*
X572770Y124800D01*
X572682Y124752D01*
X572592Y124707D01*
X572501Y124666D01*
X572408Y124628D01*
X572313Y124594D01*
X572218Y124564D01*
X572121Y124537D01*
X572023Y124514D01*
X571925Y124496D01*
X571825Y124481D01*
X571726Y124470D01*
X571625Y124463D01*
X571525Y124460D01*
X571425Y124461D01*
X571324Y124466D01*
X571225Y124475D01*
X571125Y124488D01*
X571026Y124505D01*
X570928Y124525D01*
X570830Y124550D01*
X570734Y124578D01*
X570639Y124610D01*
X570545Y124646D01*
X570453Y124686D01*
X570363Y124729D01*
X570274Y124776D01*
X570187Y124826D01*
X570102Y124879D01*
X570019Y124936D01*
X569939Y124996D01*
X569861Y125060D01*
X569786Y125126D01*
X569713Y125195D01*
X569643Y125267D01*
X569576Y125342D01*
X569512Y125419D01*
X569451Y125499D01*
X569393Y125581D01*
X569339Y125665D01*
X569288Y125752D01*
X569240Y125840D01*
X569196Y125930D01*
X569156Y126022D01*
X569119Y126116D01*
X569086Y126210D01*
X569057Y126306D01*
X569031Y126403D01*
X569009Y126501D01*
X568992Y126600D01*
X568978Y126700D01*
X568968Y126799D01*
X568962Y126900D01*
X568960Y127000D01*
X601980Y119380D02*
X604520Y119380D01*
X604520Y134620D01*
X601980Y134620D01*
X541020Y134620D02*
X538480Y134620D01*
X538480Y119380D01*
X541020Y119380D01*
D13*
X558800Y154940D02*
X558800Y157480D01*
X558800Y154940D02*
X584200Y154940D01*
X584200Y157480D01*
X582930Y99060D02*
X558800Y99060D01*
X582930Y99060D02*
X582930Y96520D01*
X558800Y96520D02*
X558800Y99060D01*
D12*
X558800Y96520D02*
X549910Y96520D01*
X584200Y157480D02*
X593090Y157480D01*
X584200Y157480D02*
X558800Y157480D01*
X549910Y157480D01*
X558800Y96520D02*
X582930Y96520D01*
X593090Y96520D01*
X601980Y116840D02*
X601980Y119380D01*
X601980Y134620D02*
X601980Y137160D01*
X541020Y119380D02*
X541020Y116840D01*
X541020Y134620D02*
X541020Y137160D01*
X737870Y285750D02*
X737875Y286186D01*
X737891Y286622D01*
X737918Y287058D01*
X737956Y287493D01*
X738004Y287926D01*
X738062Y288359D01*
X738132Y288790D01*
X738212Y289219D01*
X738302Y289646D01*
X738403Y290070D01*
X738514Y290492D01*
X738636Y290911D01*
X738767Y291327D01*
X738909Y291740D01*
X739061Y292149D01*
X739223Y292554D01*
X739395Y292955D01*
X739577Y293352D01*
X739768Y293744D01*
X739969Y294131D01*
X740180Y294514D01*
X740400Y294891D01*
X740629Y295262D01*
X740866Y295628D01*
X741113Y295988D01*
X741369Y296342D01*
X741633Y296689D01*
X741906Y297030D01*
X742187Y297363D01*
X742476Y297690D01*
X742773Y298010D01*
X743078Y298322D01*
X743390Y298627D01*
X743710Y298924D01*
X744037Y299213D01*
X744370Y299494D01*
X744711Y299767D01*
X745058Y300031D01*
X745412Y300287D01*
X745772Y300534D01*
X746138Y300771D01*
X746509Y301000D01*
X746886Y301220D01*
X747269Y301431D01*
X747656Y301632D01*
X748048Y301823D01*
X748445Y302005D01*
X748846Y302177D01*
X749251Y302339D01*
X749660Y302491D01*
X750073Y302633D01*
X750489Y302764D01*
X750908Y302886D01*
X751330Y302997D01*
X751754Y303098D01*
X752181Y303188D01*
X752610Y303268D01*
X753041Y303338D01*
X753474Y303396D01*
X753907Y303444D01*
X754342Y303482D01*
X754778Y303509D01*
X755214Y303525D01*
X755650Y303530D01*
X756086Y303525D01*
X756522Y303509D01*
X756958Y303482D01*
X757393Y303444D01*
X757826Y303396D01*
X758259Y303338D01*
X758690Y303268D01*
X759119Y303188D01*
X759546Y303098D01*
X759970Y302997D01*
X760392Y302886D01*
X760811Y302764D01*
X761227Y302633D01*
X761640Y302491D01*
X762049Y302339D01*
X762454Y302177D01*
X762855Y302005D01*
X763252Y301823D01*
X763644Y301632D01*
X764031Y301431D01*
X764414Y301220D01*
X764791Y301000D01*
X765162Y300771D01*
X765528Y300534D01*
X765888Y300287D01*
X766242Y300031D01*
X766589Y299767D01*
X766930Y299494D01*
X767263Y299213D01*
X767590Y298924D01*
X767910Y298627D01*
X768222Y298322D01*
X768527Y298010D01*
X768824Y297690D01*
X769113Y297363D01*
X769394Y297030D01*
X769667Y296689D01*
X769931Y296342D01*
X770187Y295988D01*
X770434Y295628D01*
X770671Y295262D01*
X770900Y294891D01*
X771120Y294514D01*
X771331Y294131D01*
X771532Y293744D01*
X771723Y293352D01*
X771905Y292955D01*
X772077Y292554D01*
X772239Y292149D01*
X772391Y291740D01*
X772533Y291327D01*
X772664Y290911D01*
X772786Y290492D01*
X772897Y290070D01*
X772998Y289646D01*
X773088Y289219D01*
X773168Y288790D01*
X773238Y288359D01*
X773296Y287926D01*
X773344Y287493D01*
X773382Y287058D01*
X773409Y286622D01*
X773425Y286186D01*
X773430Y285750D01*
X773425Y285314D01*
X773409Y284878D01*
X773382Y284442D01*
X773344Y284007D01*
X773296Y283574D01*
X773238Y283141D01*
X773168Y282710D01*
X773088Y282281D01*
X772998Y281854D01*
X772897Y281430D01*
X772786Y281008D01*
X772664Y280589D01*
X772533Y280173D01*
X772391Y279760D01*
X772239Y279351D01*
X772077Y278946D01*
X771905Y278545D01*
X771723Y278148D01*
X771532Y277756D01*
X771331Y277369D01*
X771120Y276986D01*
X770900Y276609D01*
X770671Y276238D01*
X770434Y275872D01*
X770187Y275512D01*
X769931Y275158D01*
X769667Y274811D01*
X769394Y274470D01*
X769113Y274137D01*
X768824Y273810D01*
X768527Y273490D01*
X768222Y273178D01*
X767910Y272873D01*
X767590Y272576D01*
X767263Y272287D01*
X766930Y272006D01*
X766589Y271733D01*
X766242Y271469D01*
X765888Y271213D01*
X765528Y270966D01*
X765162Y270729D01*
X764791Y270500D01*
X764414Y270280D01*
X764031Y270069D01*
X763644Y269868D01*
X763252Y269677D01*
X762855Y269495D01*
X762454Y269323D01*
X762049Y269161D01*
X761640Y269009D01*
X761227Y268867D01*
X760811Y268736D01*
X760392Y268614D01*
X759970Y268503D01*
X759546Y268402D01*
X759119Y268312D01*
X758690Y268232D01*
X758259Y268162D01*
X757826Y268104D01*
X757393Y268056D01*
X756958Y268018D01*
X756522Y267991D01*
X756086Y267975D01*
X755650Y267970D01*
X755214Y267975D01*
X754778Y267991D01*
X754342Y268018D01*
X753907Y268056D01*
X753474Y268104D01*
X753041Y268162D01*
X752610Y268232D01*
X752181Y268312D01*
X751754Y268402D01*
X751330Y268503D01*
X750908Y268614D01*
X750489Y268736D01*
X750073Y268867D01*
X749660Y269009D01*
X749251Y269161D01*
X748846Y269323D01*
X748445Y269495D01*
X748048Y269677D01*
X747656Y269868D01*
X747269Y270069D01*
X746886Y270280D01*
X746509Y270500D01*
X746138Y270729D01*
X745772Y270966D01*
X745412Y271213D01*
X745058Y271469D01*
X744711Y271733D01*
X744370Y272006D01*
X744037Y272287D01*
X743710Y272576D01*
X743390Y272873D01*
X743078Y273178D01*
X742773Y273490D01*
X742476Y273810D01*
X742187Y274137D01*
X741906Y274470D01*
X741633Y274811D01*
X741369Y275158D01*
X741113Y275512D01*
X740866Y275872D01*
X740629Y276238D01*
X740400Y276609D01*
X740180Y276986D01*
X739969Y277369D01*
X739768Y277756D01*
X739577Y278148D01*
X739395Y278545D01*
X739223Y278946D01*
X739061Y279351D01*
X738909Y279760D01*
X738767Y280173D01*
X738636Y280589D01*
X738514Y281008D01*
X738403Y281430D01*
X738302Y281854D01*
X738212Y282281D01*
X738132Y282710D01*
X738062Y283141D01*
X738004Y283574D01*
X737956Y284007D01*
X737918Y284442D01*
X737891Y284878D01*
X737875Y285314D01*
X737870Y285750D01*
X753110Y285750D02*
X753112Y285850D01*
X753118Y285951D01*
X753128Y286050D01*
X753142Y286150D01*
X753159Y286249D01*
X753181Y286347D01*
X753207Y286444D01*
X753236Y286540D01*
X753269Y286634D01*
X753306Y286728D01*
X753346Y286820D01*
X753390Y286910D01*
X753438Y286998D01*
X753489Y287085D01*
X753543Y287169D01*
X753601Y287251D01*
X753662Y287331D01*
X753726Y287408D01*
X753793Y287483D01*
X753863Y287555D01*
X753936Y287624D01*
X754011Y287690D01*
X754089Y287754D01*
X754169Y287814D01*
X754252Y287871D01*
X754337Y287924D01*
X754424Y287974D01*
X754513Y288021D01*
X754603Y288064D01*
X754695Y288104D01*
X754789Y288140D01*
X754884Y288172D01*
X754980Y288200D01*
X755078Y288225D01*
X755176Y288245D01*
X755275Y288262D01*
X755375Y288275D01*
X755474Y288284D01*
X755575Y288289D01*
X755675Y288290D01*
X755775Y288287D01*
X755876Y288280D01*
X755975Y288269D01*
X756075Y288254D01*
X756173Y288236D01*
X756271Y288213D01*
X756368Y288186D01*
X756463Y288156D01*
X756558Y288122D01*
X756651Y288084D01*
X756742Y288043D01*
X756832Y287998D01*
X756920Y287950D01*
X757006Y287898D01*
X757090Y287843D01*
X757171Y287784D01*
X757250Y287722D01*
X757327Y287658D01*
X757401Y287590D01*
X757472Y287519D01*
X757541Y287446D01*
X757606Y287370D01*
X757669Y287291D01*
X757728Y287210D01*
X757784Y287127D01*
X757837Y287042D01*
X757886Y286954D01*
X757932Y286865D01*
X757974Y286774D01*
X758013Y286681D01*
X758048Y286587D01*
X758079Y286492D01*
X758107Y286395D01*
X758130Y286298D01*
X758150Y286199D01*
X758166Y286100D01*
X758178Y286001D01*
X758186Y285900D01*
X758190Y285800D01*
X758190Y285700D01*
X758186Y285600D01*
X758178Y285499D01*
X758166Y285400D01*
X758150Y285301D01*
X758130Y285202D01*
X758107Y285105D01*
X758079Y285008D01*
X758048Y284913D01*
X758013Y284819D01*
X757974Y284726D01*
X757932Y284635D01*
X757886Y284546D01*
X757837Y284458D01*
X757784Y284373D01*
X757728Y284290D01*
X757669Y284209D01*
X757606Y284130D01*
X757541Y284054D01*
X757472Y283981D01*
X757401Y283910D01*
X757327Y283842D01*
X757250Y283778D01*
X757171Y283716D01*
X757090Y283657D01*
X757006Y283602D01*
X756920Y283550D01*
X756832Y283502D01*
X756742Y283457D01*
X756651Y283416D01*
X756558Y283378D01*
X756463Y283344D01*
X756368Y283314D01*
X756271Y283287D01*
X756173Y283264D01*
X756075Y283246D01*
X755975Y283231D01*
X755876Y283220D01*
X755775Y283213D01*
X755675Y283210D01*
X755575Y283211D01*
X755474Y283216D01*
X755375Y283225D01*
X755275Y283238D01*
X755176Y283255D01*
X755078Y283275D01*
X754980Y283300D01*
X754884Y283328D01*
X754789Y283360D01*
X754695Y283396D01*
X754603Y283436D01*
X754513Y283479D01*
X754424Y283526D01*
X754337Y283576D01*
X754252Y283629D01*
X754169Y283686D01*
X754089Y283746D01*
X754011Y283810D01*
X753936Y283876D01*
X753863Y283945D01*
X753793Y284017D01*
X753726Y284092D01*
X753662Y284169D01*
X753601Y284249D01*
X753543Y284331D01*
X753489Y284415D01*
X753438Y284502D01*
X753390Y284590D01*
X753346Y284680D01*
X753306Y284772D01*
X753269Y284866D01*
X753236Y284960D01*
X753207Y285056D01*
X753181Y285153D01*
X753159Y285251D01*
X753142Y285350D01*
X753128Y285450D01*
X753118Y285549D01*
X753112Y285650D01*
X753110Y285750D01*
X786130Y278130D02*
X788670Y278130D01*
X788670Y293370D01*
X786130Y293370D01*
X725170Y293370D02*
X722630Y293370D01*
X722630Y278130D01*
X725170Y278130D01*
D13*
X742950Y313690D02*
X742950Y316230D01*
X742950Y313690D02*
X768350Y313690D01*
X768350Y316230D01*
X767080Y257810D02*
X742950Y257810D01*
X767080Y257810D02*
X767080Y255270D01*
X742950Y255270D02*
X742950Y257810D01*
D12*
X742950Y255270D02*
X734060Y255270D01*
X768350Y316230D02*
X777240Y316230D01*
X768350Y316230D02*
X742950Y316230D01*
X734060Y316230D01*
X742950Y255270D02*
X767080Y255270D01*
X777240Y255270D01*
X786130Y275590D02*
X786130Y278130D01*
X786130Y293370D02*
X786130Y295910D01*
X725170Y278130D02*
X725170Y275590D01*
X725170Y293370D02*
X725170Y295910D01*
X668020Y196850D02*
X668025Y197286D01*
X668041Y197722D01*
X668068Y198158D01*
X668106Y198593D01*
X668154Y199026D01*
X668212Y199459D01*
X668282Y199890D01*
X668362Y200319D01*
X668452Y200746D01*
X668553Y201170D01*
X668664Y201592D01*
X668786Y202011D01*
X668917Y202427D01*
X669059Y202840D01*
X669211Y203249D01*
X669373Y203654D01*
X669545Y204055D01*
X669727Y204452D01*
X669918Y204844D01*
X670119Y205231D01*
X670330Y205614D01*
X670550Y205991D01*
X670779Y206362D01*
X671016Y206728D01*
X671263Y207088D01*
X671519Y207442D01*
X671783Y207789D01*
X672056Y208130D01*
X672337Y208463D01*
X672626Y208790D01*
X672923Y209110D01*
X673228Y209422D01*
X673540Y209727D01*
X673860Y210024D01*
X674187Y210313D01*
X674520Y210594D01*
X674861Y210867D01*
X675208Y211131D01*
X675562Y211387D01*
X675922Y211634D01*
X676288Y211871D01*
X676659Y212100D01*
X677036Y212320D01*
X677419Y212531D01*
X677806Y212732D01*
X678198Y212923D01*
X678595Y213105D01*
X678996Y213277D01*
X679401Y213439D01*
X679810Y213591D01*
X680223Y213733D01*
X680639Y213864D01*
X681058Y213986D01*
X681480Y214097D01*
X681904Y214198D01*
X682331Y214288D01*
X682760Y214368D01*
X683191Y214438D01*
X683624Y214496D01*
X684057Y214544D01*
X684492Y214582D01*
X684928Y214609D01*
X685364Y214625D01*
X685800Y214630D01*
X686236Y214625D01*
X686672Y214609D01*
X687108Y214582D01*
X687543Y214544D01*
X687976Y214496D01*
X688409Y214438D01*
X688840Y214368D01*
X689269Y214288D01*
X689696Y214198D01*
X690120Y214097D01*
X690542Y213986D01*
X690961Y213864D01*
X691377Y213733D01*
X691790Y213591D01*
X692199Y213439D01*
X692604Y213277D01*
X693005Y213105D01*
X693402Y212923D01*
X693794Y212732D01*
X694181Y212531D01*
X694564Y212320D01*
X694941Y212100D01*
X695312Y211871D01*
X695678Y211634D01*
X696038Y211387D01*
X696392Y211131D01*
X696739Y210867D01*
X697080Y210594D01*
X697413Y210313D01*
X697740Y210024D01*
X698060Y209727D01*
X698372Y209422D01*
X698677Y209110D01*
X698974Y208790D01*
X699263Y208463D01*
X699544Y208130D01*
X699817Y207789D01*
X700081Y207442D01*
X700337Y207088D01*
X700584Y206728D01*
X700821Y206362D01*
X701050Y205991D01*
X701270Y205614D01*
X701481Y205231D01*
X701682Y204844D01*
X701873Y204452D01*
X702055Y204055D01*
X702227Y203654D01*
X702389Y203249D01*
X702541Y202840D01*
X702683Y202427D01*
X702814Y202011D01*
X702936Y201592D01*
X703047Y201170D01*
X703148Y200746D01*
X703238Y200319D01*
X703318Y199890D01*
X703388Y199459D01*
X703446Y199026D01*
X703494Y198593D01*
X703532Y198158D01*
X703559Y197722D01*
X703575Y197286D01*
X703580Y196850D01*
X703575Y196414D01*
X703559Y195978D01*
X703532Y195542D01*
X703494Y195107D01*
X703446Y194674D01*
X703388Y194241D01*
X703318Y193810D01*
X703238Y193381D01*
X703148Y192954D01*
X703047Y192530D01*
X702936Y192108D01*
X702814Y191689D01*
X702683Y191273D01*
X702541Y190860D01*
X702389Y190451D01*
X702227Y190046D01*
X702055Y189645D01*
X701873Y189248D01*
X701682Y188856D01*
X701481Y188469D01*
X701270Y188086D01*
X701050Y187709D01*
X700821Y187338D01*
X700584Y186972D01*
X700337Y186612D01*
X700081Y186258D01*
X699817Y185911D01*
X699544Y185570D01*
X699263Y185237D01*
X698974Y184910D01*
X698677Y184590D01*
X698372Y184278D01*
X698060Y183973D01*
X697740Y183676D01*
X697413Y183387D01*
X697080Y183106D01*
X696739Y182833D01*
X696392Y182569D01*
X696038Y182313D01*
X695678Y182066D01*
X695312Y181829D01*
X694941Y181600D01*
X694564Y181380D01*
X694181Y181169D01*
X693794Y180968D01*
X693402Y180777D01*
X693005Y180595D01*
X692604Y180423D01*
X692199Y180261D01*
X691790Y180109D01*
X691377Y179967D01*
X690961Y179836D01*
X690542Y179714D01*
X690120Y179603D01*
X689696Y179502D01*
X689269Y179412D01*
X688840Y179332D01*
X688409Y179262D01*
X687976Y179204D01*
X687543Y179156D01*
X687108Y179118D01*
X686672Y179091D01*
X686236Y179075D01*
X685800Y179070D01*
X685364Y179075D01*
X684928Y179091D01*
X684492Y179118D01*
X684057Y179156D01*
X683624Y179204D01*
X683191Y179262D01*
X682760Y179332D01*
X682331Y179412D01*
X681904Y179502D01*
X681480Y179603D01*
X681058Y179714D01*
X680639Y179836D01*
X680223Y179967D01*
X679810Y180109D01*
X679401Y180261D01*
X678996Y180423D01*
X678595Y180595D01*
X678198Y180777D01*
X677806Y180968D01*
X677419Y181169D01*
X677036Y181380D01*
X676659Y181600D01*
X676288Y181829D01*
X675922Y182066D01*
X675562Y182313D01*
X675208Y182569D01*
X674861Y182833D01*
X674520Y183106D01*
X674187Y183387D01*
X673860Y183676D01*
X673540Y183973D01*
X673228Y184278D01*
X672923Y184590D01*
X672626Y184910D01*
X672337Y185237D01*
X672056Y185570D01*
X671783Y185911D01*
X671519Y186258D01*
X671263Y186612D01*
X671016Y186972D01*
X670779Y187338D01*
X670550Y187709D01*
X670330Y188086D01*
X670119Y188469D01*
X669918Y188856D01*
X669727Y189248D01*
X669545Y189645D01*
X669373Y190046D01*
X669211Y190451D01*
X669059Y190860D01*
X668917Y191273D01*
X668786Y191689D01*
X668664Y192108D01*
X668553Y192530D01*
X668452Y192954D01*
X668362Y193381D01*
X668282Y193810D01*
X668212Y194241D01*
X668154Y194674D01*
X668106Y195107D01*
X668068Y195542D01*
X668041Y195978D01*
X668025Y196414D01*
X668020Y196850D01*
X683260Y196850D02*
X683262Y196950D01*
X683268Y197051D01*
X683278Y197150D01*
X683292Y197250D01*
X683309Y197349D01*
X683331Y197447D01*
X683357Y197544D01*
X683386Y197640D01*
X683419Y197734D01*
X683456Y197828D01*
X683496Y197920D01*
X683540Y198010D01*
X683588Y198098D01*
X683639Y198185D01*
X683693Y198269D01*
X683751Y198351D01*
X683812Y198431D01*
X683876Y198508D01*
X683943Y198583D01*
X684013Y198655D01*
X684086Y198724D01*
X684161Y198790D01*
X684239Y198854D01*
X684319Y198914D01*
X684402Y198971D01*
X684487Y199024D01*
X684574Y199074D01*
X684663Y199121D01*
X684753Y199164D01*
X684845Y199204D01*
X684939Y199240D01*
X685034Y199272D01*
X685130Y199300D01*
X685228Y199325D01*
X685326Y199345D01*
X685425Y199362D01*
X685525Y199375D01*
X685624Y199384D01*
X685725Y199389D01*
X685825Y199390D01*
X685925Y199387D01*
X686026Y199380D01*
X686125Y199369D01*
X686225Y199354D01*
X686323Y199336D01*
X686421Y199313D01*
X686518Y199286D01*
X686613Y199256D01*
X686708Y199222D01*
X686801Y199184D01*
X686892Y199143D01*
X686982Y199098D01*
X687070Y199050D01*
X687156Y198998D01*
X687240Y198943D01*
X687321Y198884D01*
X687400Y198822D01*
X687477Y198758D01*
X687551Y198690D01*
X687622Y198619D01*
X687691Y198546D01*
X687756Y198470D01*
X687819Y198391D01*
X687878Y198310D01*
X687934Y198227D01*
X687987Y198142D01*
X688036Y198054D01*
X688082Y197965D01*
X688124Y197874D01*
X688163Y197781D01*
X688198Y197687D01*
X688229Y197592D01*
X688257Y197495D01*
X688280Y197398D01*
X688300Y197299D01*
X688316Y197200D01*
X688328Y197101D01*
X688336Y197000D01*
X688340Y196900D01*
X688340Y196800D01*
X688336Y196700D01*
X688328Y196599D01*
X688316Y196500D01*
X688300Y196401D01*
X688280Y196302D01*
X688257Y196205D01*
X688229Y196108D01*
X688198Y196013D01*
X688163Y195919D01*
X688124Y195826D01*
X688082Y195735D01*
X688036Y195646D01*
X687987Y195558D01*
X687934Y195473D01*
X687878Y195390D01*
X687819Y195309D01*
X687756Y195230D01*
X687691Y195154D01*
X687622Y195081D01*
X687551Y195010D01*
X687477Y194942D01*
X687400Y194878D01*
X687321Y194816D01*
X687240Y194757D01*
X687156Y194702D01*
X687070Y194650D01*
X686982Y194602D01*
X686892Y194557D01*
X686801Y194516D01*
X686708Y194478D01*
X686613Y194444D01*
X686518Y194414D01*
X686421Y194387D01*
X686323Y194364D01*
X686225Y194346D01*
X686125Y194331D01*
X686026Y194320D01*
X685925Y194313D01*
X685825Y194310D01*
X685725Y194311D01*
X685624Y194316D01*
X685525Y194325D01*
X685425Y194338D01*
X685326Y194355D01*
X685228Y194375D01*
X685130Y194400D01*
X685034Y194428D01*
X684939Y194460D01*
X684845Y194496D01*
X684753Y194536D01*
X684663Y194579D01*
X684574Y194626D01*
X684487Y194676D01*
X684402Y194729D01*
X684319Y194786D01*
X684239Y194846D01*
X684161Y194910D01*
X684086Y194976D01*
X684013Y195045D01*
X683943Y195117D01*
X683876Y195192D01*
X683812Y195269D01*
X683751Y195349D01*
X683693Y195431D01*
X683639Y195515D01*
X683588Y195602D01*
X683540Y195690D01*
X683496Y195780D01*
X683456Y195872D01*
X683419Y195966D01*
X683386Y196060D01*
X683357Y196156D01*
X683331Y196253D01*
X683309Y196351D01*
X683292Y196450D01*
X683278Y196550D01*
X683268Y196649D01*
X683262Y196750D01*
X683260Y196850D01*
X716280Y189230D02*
X718820Y189230D01*
X718820Y204470D01*
X716280Y204470D01*
X655320Y204470D02*
X652780Y204470D01*
X652780Y189230D01*
X655320Y189230D01*
D13*
X673100Y224790D02*
X673100Y227330D01*
X673100Y224790D02*
X698500Y224790D01*
X698500Y227330D01*
X697230Y168910D02*
X673100Y168910D01*
X697230Y168910D02*
X697230Y166370D01*
X673100Y166370D02*
X673100Y168910D01*
D12*
X673100Y166370D02*
X664210Y166370D01*
X698500Y227330D02*
X707390Y227330D01*
X698500Y227330D02*
X673100Y227330D01*
X664210Y227330D01*
X673100Y166370D02*
X697230Y166370D01*
X707390Y166370D01*
X716280Y186690D02*
X716280Y189230D01*
X716280Y204470D02*
X716280Y207010D01*
X655320Y189230D02*
X655320Y186690D01*
X655320Y204470D02*
X655320Y207010D01*
X814070Y196850D02*
X814075Y197286D01*
X814091Y197722D01*
X814118Y198158D01*
X814156Y198593D01*
X814204Y199026D01*
X814262Y199459D01*
X814332Y199890D01*
X814412Y200319D01*
X814502Y200746D01*
X814603Y201170D01*
X814714Y201592D01*
X814836Y202011D01*
X814967Y202427D01*
X815109Y202840D01*
X815261Y203249D01*
X815423Y203654D01*
X815595Y204055D01*
X815777Y204452D01*
X815968Y204844D01*
X816169Y205231D01*
X816380Y205614D01*
X816600Y205991D01*
X816829Y206362D01*
X817066Y206728D01*
X817313Y207088D01*
X817569Y207442D01*
X817833Y207789D01*
X818106Y208130D01*
X818387Y208463D01*
X818676Y208790D01*
X818973Y209110D01*
X819278Y209422D01*
X819590Y209727D01*
X819910Y210024D01*
X820237Y210313D01*
X820570Y210594D01*
X820911Y210867D01*
X821258Y211131D01*
X821612Y211387D01*
X821972Y211634D01*
X822338Y211871D01*
X822709Y212100D01*
X823086Y212320D01*
X823469Y212531D01*
X823856Y212732D01*
X824248Y212923D01*
X824645Y213105D01*
X825046Y213277D01*
X825451Y213439D01*
X825860Y213591D01*
X826273Y213733D01*
X826689Y213864D01*
X827108Y213986D01*
X827530Y214097D01*
X827954Y214198D01*
X828381Y214288D01*
X828810Y214368D01*
X829241Y214438D01*
X829674Y214496D01*
X830107Y214544D01*
X830542Y214582D01*
X830978Y214609D01*
X831414Y214625D01*
X831850Y214630D01*
X832286Y214625D01*
X832722Y214609D01*
X833158Y214582D01*
X833593Y214544D01*
X834026Y214496D01*
X834459Y214438D01*
X834890Y214368D01*
X835319Y214288D01*
X835746Y214198D01*
X836170Y214097D01*
X836592Y213986D01*
X837011Y213864D01*
X837427Y213733D01*
X837840Y213591D01*
X838249Y213439D01*
X838654Y213277D01*
X839055Y213105D01*
X839452Y212923D01*
X839844Y212732D01*
X840231Y212531D01*
X840614Y212320D01*
X840991Y212100D01*
X841362Y211871D01*
X841728Y211634D01*
X842088Y211387D01*
X842442Y211131D01*
X842789Y210867D01*
X843130Y210594D01*
X843463Y210313D01*
X843790Y210024D01*
X844110Y209727D01*
X844422Y209422D01*
X844727Y209110D01*
X845024Y208790D01*
X845313Y208463D01*
X845594Y208130D01*
X845867Y207789D01*
X846131Y207442D01*
X846387Y207088D01*
X846634Y206728D01*
X846871Y206362D01*
X847100Y205991D01*
X847320Y205614D01*
X847531Y205231D01*
X847732Y204844D01*
X847923Y204452D01*
X848105Y204055D01*
X848277Y203654D01*
X848439Y203249D01*
X848591Y202840D01*
X848733Y202427D01*
X848864Y202011D01*
X848986Y201592D01*
X849097Y201170D01*
X849198Y200746D01*
X849288Y200319D01*
X849368Y199890D01*
X849438Y199459D01*
X849496Y199026D01*
X849544Y198593D01*
X849582Y198158D01*
X849609Y197722D01*
X849625Y197286D01*
X849630Y196850D01*
X849625Y196414D01*
X849609Y195978D01*
X849582Y195542D01*
X849544Y195107D01*
X849496Y194674D01*
X849438Y194241D01*
X849368Y193810D01*
X849288Y193381D01*
X849198Y192954D01*
X849097Y192530D01*
X848986Y192108D01*
X848864Y191689D01*
X848733Y191273D01*
X848591Y190860D01*
X848439Y190451D01*
X848277Y190046D01*
X848105Y189645D01*
X847923Y189248D01*
X847732Y188856D01*
X847531Y188469D01*
X847320Y188086D01*
X847100Y187709D01*
X846871Y187338D01*
X846634Y186972D01*
X846387Y186612D01*
X846131Y186258D01*
X845867Y185911D01*
X845594Y185570D01*
X845313Y185237D01*
X845024Y184910D01*
X844727Y184590D01*
X844422Y184278D01*
X844110Y183973D01*
X843790Y183676D01*
X843463Y183387D01*
X843130Y183106D01*
X842789Y182833D01*
X842442Y182569D01*
X842088Y182313D01*
X841728Y182066D01*
X841362Y181829D01*
X840991Y181600D01*
X840614Y181380D01*
X840231Y181169D01*
X839844Y180968D01*
X839452Y180777D01*
X839055Y180595D01*
X838654Y180423D01*
X838249Y180261D01*
X837840Y180109D01*
X837427Y179967D01*
X837011Y179836D01*
X836592Y179714D01*
X836170Y179603D01*
X835746Y179502D01*
X835319Y179412D01*
X834890Y179332D01*
X834459Y179262D01*
X834026Y179204D01*
X833593Y179156D01*
X833158Y179118D01*
X832722Y179091D01*
X832286Y179075D01*
X831850Y179070D01*
X831414Y179075D01*
X830978Y179091D01*
X830542Y179118D01*
X830107Y179156D01*
X829674Y179204D01*
X829241Y179262D01*
X828810Y179332D01*
X828381Y179412D01*
X827954Y179502D01*
X827530Y179603D01*
X827108Y179714D01*
X826689Y179836D01*
X826273Y179967D01*
X825860Y180109D01*
X825451Y180261D01*
X825046Y180423D01*
X824645Y180595D01*
X824248Y180777D01*
X823856Y180968D01*
X823469Y181169D01*
X823086Y181380D01*
X822709Y181600D01*
X822338Y181829D01*
X821972Y182066D01*
X821612Y182313D01*
X821258Y182569D01*
X820911Y182833D01*
X820570Y183106D01*
X820237Y183387D01*
X819910Y183676D01*
X819590Y183973D01*
X819278Y184278D01*
X818973Y184590D01*
X818676Y184910D01*
X818387Y185237D01*
X818106Y185570D01*
X817833Y185911D01*
X817569Y186258D01*
X817313Y186612D01*
X817066Y186972D01*
X816829Y187338D01*
X816600Y187709D01*
X816380Y188086D01*
X816169Y188469D01*
X815968Y188856D01*
X815777Y189248D01*
X815595Y189645D01*
X815423Y190046D01*
X815261Y190451D01*
X815109Y190860D01*
X814967Y191273D01*
X814836Y191689D01*
X814714Y192108D01*
X814603Y192530D01*
X814502Y192954D01*
X814412Y193381D01*
X814332Y193810D01*
X814262Y194241D01*
X814204Y194674D01*
X814156Y195107D01*
X814118Y195542D01*
X814091Y195978D01*
X814075Y196414D01*
X814070Y196850D01*
X829310Y196850D02*
X829312Y196950D01*
X829318Y197051D01*
X829328Y197150D01*
X829342Y197250D01*
X829359Y197349D01*
X829381Y197447D01*
X829407Y197544D01*
X829436Y197640D01*
X829469Y197734D01*
X829506Y197828D01*
X829546Y197920D01*
X829590Y198010D01*
X829638Y198098D01*
X829689Y198185D01*
X829743Y198269D01*
X829801Y198351D01*
X829862Y198431D01*
X829926Y198508D01*
X829993Y198583D01*
X830063Y198655D01*
X830136Y198724D01*
X830211Y198790D01*
X830289Y198854D01*
X830369Y198914D01*
X830452Y198971D01*
X830537Y199024D01*
X830624Y199074D01*
X830713Y199121D01*
X830803Y199164D01*
X830895Y199204D01*
X830989Y199240D01*
X831084Y199272D01*
X831180Y199300D01*
X831278Y199325D01*
X831376Y199345D01*
X831475Y199362D01*
X831575Y199375D01*
X831674Y199384D01*
X831775Y199389D01*
X831875Y199390D01*
X831975Y199387D01*
X832076Y199380D01*
X832175Y199369D01*
X832275Y199354D01*
X832373Y199336D01*
X832471Y199313D01*
X832568Y199286D01*
X832663Y199256D01*
X832758Y199222D01*
X832851Y199184D01*
X832942Y199143D01*
X833032Y199098D01*
X833120Y199050D01*
X833206Y198998D01*
X833290Y198943D01*
X833371Y198884D01*
X833450Y198822D01*
X833527Y198758D01*
X833601Y198690D01*
X833672Y198619D01*
X833741Y198546D01*
X833806Y198470D01*
X833869Y198391D01*
X833928Y198310D01*
X833984Y198227D01*
X834037Y198142D01*
X834086Y198054D01*
X834132Y197965D01*
X834174Y197874D01*
X834213Y197781D01*
X834248Y197687D01*
X834279Y197592D01*
X834307Y197495D01*
X834330Y197398D01*
X834350Y197299D01*
X834366Y197200D01*
X834378Y197101D01*
X834386Y197000D01*
X834390Y196900D01*
X834390Y196800D01*
X834386Y196700D01*
X834378Y196599D01*
X834366Y196500D01*
X834350Y196401D01*
X834330Y196302D01*
X834307Y196205D01*
X834279Y196108D01*
X834248Y196013D01*
X834213Y195919D01*
X834174Y195826D01*
X834132Y195735D01*
X834086Y195646D01*
X834037Y195558D01*
X833984Y195473D01*
X833928Y195390D01*
X833869Y195309D01*
X833806Y195230D01*
X833741Y195154D01*
X833672Y195081D01*
X833601Y195010D01*
X833527Y194942D01*
X833450Y194878D01*
X833371Y194816D01*
X833290Y194757D01*
X833206Y194702D01*
X833120Y194650D01*
X833032Y194602D01*
X832942Y194557D01*
X832851Y194516D01*
X832758Y194478D01*
X832663Y194444D01*
X832568Y194414D01*
X832471Y194387D01*
X832373Y194364D01*
X832275Y194346D01*
X832175Y194331D01*
X832076Y194320D01*
X831975Y194313D01*
X831875Y194310D01*
X831775Y194311D01*
X831674Y194316D01*
X831575Y194325D01*
X831475Y194338D01*
X831376Y194355D01*
X831278Y194375D01*
X831180Y194400D01*
X831084Y194428D01*
X830989Y194460D01*
X830895Y194496D01*
X830803Y194536D01*
X830713Y194579D01*
X830624Y194626D01*
X830537Y194676D01*
X830452Y194729D01*
X830369Y194786D01*
X830289Y194846D01*
X830211Y194910D01*
X830136Y194976D01*
X830063Y195045D01*
X829993Y195117D01*
X829926Y195192D01*
X829862Y195269D01*
X829801Y195349D01*
X829743Y195431D01*
X829689Y195515D01*
X829638Y195602D01*
X829590Y195690D01*
X829546Y195780D01*
X829506Y195872D01*
X829469Y195966D01*
X829436Y196060D01*
X829407Y196156D01*
X829381Y196253D01*
X829359Y196351D01*
X829342Y196450D01*
X829328Y196550D01*
X829318Y196649D01*
X829312Y196750D01*
X829310Y196850D01*
X862330Y189230D02*
X864870Y189230D01*
X864870Y204470D01*
X862330Y204470D01*
X801370Y204470D02*
X798830Y204470D01*
X798830Y189230D01*
X801370Y189230D01*
D13*
X819150Y224790D02*
X819150Y227330D01*
X819150Y224790D02*
X844550Y224790D01*
X844550Y227330D01*
X843280Y168910D02*
X819150Y168910D01*
X843280Y168910D02*
X843280Y166370D01*
X819150Y166370D02*
X819150Y168910D01*
D12*
X819150Y166370D02*
X810260Y166370D01*
X844550Y227330D02*
X853440Y227330D01*
X844550Y227330D02*
X819150Y227330D01*
X810260Y227330D01*
X819150Y166370D02*
X843280Y166370D01*
X853440Y166370D01*
X862330Y186690D02*
X862330Y189230D01*
X862330Y204470D02*
X862330Y207010D01*
X801370Y189230D02*
X801370Y186690D01*
X801370Y204470D02*
X801370Y207010D01*
X744220Y114300D02*
X744225Y114736D01*
X744241Y115172D01*
X744268Y115608D01*
X744306Y116043D01*
X744354Y116476D01*
X744412Y116909D01*
X744482Y117340D01*
X744562Y117769D01*
X744652Y118196D01*
X744753Y118620D01*
X744864Y119042D01*
X744986Y119461D01*
X745117Y119877D01*
X745259Y120290D01*
X745411Y120699D01*
X745573Y121104D01*
X745745Y121505D01*
X745927Y121902D01*
X746118Y122294D01*
X746319Y122681D01*
X746530Y123064D01*
X746750Y123441D01*
X746979Y123812D01*
X747216Y124178D01*
X747463Y124538D01*
X747719Y124892D01*
X747983Y125239D01*
X748256Y125580D01*
X748537Y125913D01*
X748826Y126240D01*
X749123Y126560D01*
X749428Y126872D01*
X749740Y127177D01*
X750060Y127474D01*
X750387Y127763D01*
X750720Y128044D01*
X751061Y128317D01*
X751408Y128581D01*
X751762Y128837D01*
X752122Y129084D01*
X752488Y129321D01*
X752859Y129550D01*
X753236Y129770D01*
X753619Y129981D01*
X754006Y130182D01*
X754398Y130373D01*
X754795Y130555D01*
X755196Y130727D01*
X755601Y130889D01*
X756010Y131041D01*
X756423Y131183D01*
X756839Y131314D01*
X757258Y131436D01*
X757680Y131547D01*
X758104Y131648D01*
X758531Y131738D01*
X758960Y131818D01*
X759391Y131888D01*
X759824Y131946D01*
X760257Y131994D01*
X760692Y132032D01*
X761128Y132059D01*
X761564Y132075D01*
X762000Y132080D01*
X762436Y132075D01*
X762872Y132059D01*
X763308Y132032D01*
X763743Y131994D01*
X764176Y131946D01*
X764609Y131888D01*
X765040Y131818D01*
X765469Y131738D01*
X765896Y131648D01*
X766320Y131547D01*
X766742Y131436D01*
X767161Y131314D01*
X767577Y131183D01*
X767990Y131041D01*
X768399Y130889D01*
X768804Y130727D01*
X769205Y130555D01*
X769602Y130373D01*
X769994Y130182D01*
X770381Y129981D01*
X770764Y129770D01*
X771141Y129550D01*
X771512Y129321D01*
X771878Y129084D01*
X772238Y128837D01*
X772592Y128581D01*
X772939Y128317D01*
X773280Y128044D01*
X773613Y127763D01*
X773940Y127474D01*
X774260Y127177D01*
X774572Y126872D01*
X774877Y126560D01*
X775174Y126240D01*
X775463Y125913D01*
X775744Y125580D01*
X776017Y125239D01*
X776281Y124892D01*
X776537Y124538D01*
X776784Y124178D01*
X777021Y123812D01*
X777250Y123441D01*
X777470Y123064D01*
X777681Y122681D01*
X777882Y122294D01*
X778073Y121902D01*
X778255Y121505D01*
X778427Y121104D01*
X778589Y120699D01*
X778741Y120290D01*
X778883Y119877D01*
X779014Y119461D01*
X779136Y119042D01*
X779247Y118620D01*
X779348Y118196D01*
X779438Y117769D01*
X779518Y117340D01*
X779588Y116909D01*
X779646Y116476D01*
X779694Y116043D01*
X779732Y115608D01*
X779759Y115172D01*
X779775Y114736D01*
X779780Y114300D01*
X779775Y113864D01*
X779759Y113428D01*
X779732Y112992D01*
X779694Y112557D01*
X779646Y112124D01*
X779588Y111691D01*
X779518Y111260D01*
X779438Y110831D01*
X779348Y110404D01*
X779247Y109980D01*
X779136Y109558D01*
X779014Y109139D01*
X778883Y108723D01*
X778741Y108310D01*
X778589Y107901D01*
X778427Y107496D01*
X778255Y107095D01*
X778073Y106698D01*
X777882Y106306D01*
X777681Y105919D01*
X777470Y105536D01*
X777250Y105159D01*
X777021Y104788D01*
X776784Y104422D01*
X776537Y104062D01*
X776281Y103708D01*
X776017Y103361D01*
X775744Y103020D01*
X775463Y102687D01*
X775174Y102360D01*
X774877Y102040D01*
X774572Y101728D01*
X774260Y101423D01*
X773940Y101126D01*
X773613Y100837D01*
X773280Y100556D01*
X772939Y100283D01*
X772592Y100019D01*
X772238Y99763D01*
X771878Y99516D01*
X771512Y99279D01*
X771141Y99050D01*
X770764Y98830D01*
X770381Y98619D01*
X769994Y98418D01*
X769602Y98227D01*
X769205Y98045D01*
X768804Y97873D01*
X768399Y97711D01*
X767990Y97559D01*
X767577Y97417D01*
X767161Y97286D01*
X766742Y97164D01*
X766320Y97053D01*
X765896Y96952D01*
X765469Y96862D01*
X765040Y96782D01*
X764609Y96712D01*
X764176Y96654D01*
X763743Y96606D01*
X763308Y96568D01*
X762872Y96541D01*
X762436Y96525D01*
X762000Y96520D01*
X761564Y96525D01*
X761128Y96541D01*
X760692Y96568D01*
X760257Y96606D01*
X759824Y96654D01*
X759391Y96712D01*
X758960Y96782D01*
X758531Y96862D01*
X758104Y96952D01*
X757680Y97053D01*
X757258Y97164D01*
X756839Y97286D01*
X756423Y97417D01*
X756010Y97559D01*
X755601Y97711D01*
X755196Y97873D01*
X754795Y98045D01*
X754398Y98227D01*
X754006Y98418D01*
X753619Y98619D01*
X753236Y98830D01*
X752859Y99050D01*
X752488Y99279D01*
X752122Y99516D01*
X751762Y99763D01*
X751408Y100019D01*
X751061Y100283D01*
X750720Y100556D01*
X750387Y100837D01*
X750060Y101126D01*
X749740Y101423D01*
X749428Y101728D01*
X749123Y102040D01*
X748826Y102360D01*
X748537Y102687D01*
X748256Y103020D01*
X747983Y103361D01*
X747719Y103708D01*
X747463Y104062D01*
X747216Y104422D01*
X746979Y104788D01*
X746750Y105159D01*
X746530Y105536D01*
X746319Y105919D01*
X746118Y106306D01*
X745927Y106698D01*
X745745Y107095D01*
X745573Y107496D01*
X745411Y107901D01*
X745259Y108310D01*
X745117Y108723D01*
X744986Y109139D01*
X744864Y109558D01*
X744753Y109980D01*
X744652Y110404D01*
X744562Y110831D01*
X744482Y111260D01*
X744412Y111691D01*
X744354Y112124D01*
X744306Y112557D01*
X744268Y112992D01*
X744241Y113428D01*
X744225Y113864D01*
X744220Y114300D01*
X759460Y114300D02*
X759462Y114400D01*
X759468Y114501D01*
X759478Y114600D01*
X759492Y114700D01*
X759509Y114799D01*
X759531Y114897D01*
X759557Y114994D01*
X759586Y115090D01*
X759619Y115184D01*
X759656Y115278D01*
X759696Y115370D01*
X759740Y115460D01*
X759788Y115548D01*
X759839Y115635D01*
X759893Y115719D01*
X759951Y115801D01*
X760012Y115881D01*
X760076Y115958D01*
X760143Y116033D01*
X760213Y116105D01*
X760286Y116174D01*
X760361Y116240D01*
X760439Y116304D01*
X760519Y116364D01*
X760602Y116421D01*
X760687Y116474D01*
X760774Y116524D01*
X760863Y116571D01*
X760953Y116614D01*
X761045Y116654D01*
X761139Y116690D01*
X761234Y116722D01*
X761330Y116750D01*
X761428Y116775D01*
X761526Y116795D01*
X761625Y116812D01*
X761725Y116825D01*
X761824Y116834D01*
X761925Y116839D01*
X762025Y116840D01*
X762125Y116837D01*
X762226Y116830D01*
X762325Y116819D01*
X762425Y116804D01*
X762523Y116786D01*
X762621Y116763D01*
X762718Y116736D01*
X762813Y116706D01*
X762908Y116672D01*
X763001Y116634D01*
X763092Y116593D01*
X763182Y116548D01*
X763270Y116500D01*
X763356Y116448D01*
X763440Y116393D01*
X763521Y116334D01*
X763600Y116272D01*
X763677Y116208D01*
X763751Y116140D01*
X763822Y116069D01*
X763891Y115996D01*
X763956Y115920D01*
X764019Y115841D01*
X764078Y115760D01*
X764134Y115677D01*
X764187Y115592D01*
X764236Y115504D01*
X764282Y115415D01*
X764324Y115324D01*
X764363Y115231D01*
X764398Y115137D01*
X764429Y115042D01*
X764457Y114945D01*
X764480Y114848D01*
X764500Y114749D01*
X764516Y114650D01*
X764528Y114551D01*
X764536Y114450D01*
X764540Y114350D01*
X764540Y114250D01*
X764536Y114150D01*
X764528Y114049D01*
X764516Y113950D01*
X764500Y113851D01*
X764480Y113752D01*
X764457Y113655D01*
X764429Y113558D01*
X764398Y113463D01*
X764363Y113369D01*
X764324Y113276D01*
X764282Y113185D01*
X764236Y113096D01*
X764187Y113008D01*
X764134Y112923D01*
X764078Y112840D01*
X764019Y112759D01*
X763956Y112680D01*
X763891Y112604D01*
X763822Y112531D01*
X763751Y112460D01*
X763677Y112392D01*
X763600Y112328D01*
X763521Y112266D01*
X763440Y112207D01*
X763356Y112152D01*
X763270Y112100D01*
X763182Y112052D01*
X763092Y112007D01*
X763001Y111966D01*
X762908Y111928D01*
X762813Y111894D01*
X762718Y111864D01*
X762621Y111837D01*
X762523Y111814D01*
X762425Y111796D01*
X762325Y111781D01*
X762226Y111770D01*
X762125Y111763D01*
X762025Y111760D01*
X761925Y111761D01*
X761824Y111766D01*
X761725Y111775D01*
X761625Y111788D01*
X761526Y111805D01*
X761428Y111825D01*
X761330Y111850D01*
X761234Y111878D01*
X761139Y111910D01*
X761045Y111946D01*
X760953Y111986D01*
X760863Y112029D01*
X760774Y112076D01*
X760687Y112126D01*
X760602Y112179D01*
X760519Y112236D01*
X760439Y112296D01*
X760361Y112360D01*
X760286Y112426D01*
X760213Y112495D01*
X760143Y112567D01*
X760076Y112642D01*
X760012Y112719D01*
X759951Y112799D01*
X759893Y112881D01*
X759839Y112965D01*
X759788Y113052D01*
X759740Y113140D01*
X759696Y113230D01*
X759656Y113322D01*
X759619Y113416D01*
X759586Y113510D01*
X759557Y113606D01*
X759531Y113703D01*
X759509Y113801D01*
X759492Y113900D01*
X759478Y114000D01*
X759468Y114099D01*
X759462Y114200D01*
X759460Y114300D01*
X792480Y106680D02*
X795020Y106680D01*
X795020Y121920D01*
X792480Y121920D01*
X731520Y121920D02*
X728980Y121920D01*
X728980Y106680D01*
X731520Y106680D01*
D13*
X749300Y142240D02*
X749300Y144780D01*
X749300Y142240D02*
X774700Y142240D01*
X774700Y144780D01*
X773430Y86360D02*
X749300Y86360D01*
X773430Y86360D02*
X773430Y83820D01*
X749300Y83820D02*
X749300Y86360D01*
D12*
X749300Y83820D02*
X740410Y83820D01*
X774700Y144780D02*
X783590Y144780D01*
X774700Y144780D02*
X749300Y144780D01*
X740410Y144780D01*
X749300Y83820D02*
X773430Y83820D01*
X783590Y83820D01*
X792480Y104140D02*
X792480Y106680D01*
X792480Y121920D02*
X792480Y124460D01*
X731520Y106680D02*
X731520Y104140D01*
X731520Y121920D02*
X731520Y124460D01*
X43180Y325120D02*
X43180Y436880D01*
X83820Y436880D02*
X83820Y325120D01*
X49530Y433070D02*
X49532Y433192D01*
X49538Y433314D01*
X49548Y433436D01*
X49561Y433557D01*
X49579Y433678D01*
X49600Y433798D01*
X49626Y433918D01*
X49655Y434036D01*
X49687Y434154D01*
X49724Y434271D01*
X49764Y434386D01*
X49808Y434500D01*
X49856Y434612D01*
X49907Y434723D01*
X49962Y434832D01*
X50020Y434940D01*
X50082Y435045D01*
X50147Y435148D01*
X50215Y435250D01*
X50287Y435349D01*
X50361Y435445D01*
X50439Y435540D01*
X50520Y435631D01*
X50603Y435721D01*
X50689Y435807D01*
X50779Y435890D01*
X50870Y435971D01*
X50965Y436049D01*
X51061Y436123D01*
X51160Y436195D01*
X51262Y436263D01*
X51365Y436328D01*
X51470Y436390D01*
X51578Y436448D01*
X51687Y436503D01*
X51798Y436554D01*
X51910Y436602D01*
X52024Y436646D01*
X52139Y436686D01*
X52256Y436723D01*
X52374Y436755D01*
X52492Y436784D01*
X52612Y436810D01*
X52732Y436831D01*
X52853Y436849D01*
X52974Y436862D01*
X53096Y436872D01*
X53218Y436878D01*
X53340Y436880D01*
X77470Y328930D02*
X77468Y328808D01*
X77462Y328686D01*
X77452Y328564D01*
X77439Y328443D01*
X77421Y328322D01*
X77400Y328202D01*
X77374Y328082D01*
X77345Y327964D01*
X77313Y327846D01*
X77276Y327729D01*
X77236Y327614D01*
X77192Y327500D01*
X77144Y327388D01*
X77093Y327277D01*
X77038Y327168D01*
X76980Y327060D01*
X76918Y326955D01*
X76853Y326852D01*
X76785Y326750D01*
X76713Y326651D01*
X76639Y326555D01*
X76561Y326460D01*
X76480Y326369D01*
X76397Y326279D01*
X76311Y326193D01*
X76221Y326110D01*
X76130Y326029D01*
X76035Y325951D01*
X75939Y325877D01*
X75840Y325805D01*
X75738Y325737D01*
X75635Y325672D01*
X75530Y325610D01*
X75422Y325552D01*
X75313Y325497D01*
X75202Y325446D01*
X75090Y325398D01*
X74976Y325354D01*
X74861Y325314D01*
X74744Y325277D01*
X74626Y325245D01*
X74508Y325216D01*
X74388Y325190D01*
X74268Y325169D01*
X74147Y325151D01*
X74026Y325138D01*
X73904Y325128D01*
X73782Y325122D01*
X73660Y325120D01*
X77470Y433070D02*
X77468Y433192D01*
X77462Y433314D01*
X77452Y433436D01*
X77439Y433557D01*
X77421Y433678D01*
X77400Y433798D01*
X77374Y433918D01*
X77345Y434036D01*
X77313Y434154D01*
X77276Y434271D01*
X77236Y434386D01*
X77192Y434500D01*
X77144Y434612D01*
X77093Y434723D01*
X77038Y434832D01*
X76980Y434940D01*
X76918Y435045D01*
X76853Y435148D01*
X76785Y435250D01*
X76713Y435349D01*
X76639Y435445D01*
X76561Y435540D01*
X76480Y435631D01*
X76397Y435721D01*
X76311Y435807D01*
X76221Y435890D01*
X76130Y435971D01*
X76035Y436049D01*
X75939Y436123D01*
X75840Y436195D01*
X75738Y436263D01*
X75635Y436328D01*
X75530Y436390D01*
X75422Y436448D01*
X75313Y436503D01*
X75202Y436554D01*
X75090Y436602D01*
X74976Y436646D01*
X74861Y436686D01*
X74744Y436723D01*
X74626Y436755D01*
X74508Y436784D01*
X74388Y436810D01*
X74268Y436831D01*
X74147Y436849D01*
X74026Y436862D01*
X73904Y436872D01*
X73782Y436878D01*
X73660Y436880D01*
X83820Y436880D02*
X43180Y436880D01*
X77470Y433070D02*
X77470Y328930D01*
X58420Y325120D02*
X43180Y325120D01*
X58420Y325120D02*
X83820Y325120D01*
X58420Y325120D02*
X49530Y334010D01*
X49530Y433070D01*
M02*
